  0
SECTION
  2
HEADER
  9
$ACADVER
  1
AC1009
  9
$FILLMODE
 70
 0
  9
$SPLFRAME
 70
 1
  9
$EXTMIN
 10
0
 20
0
 30
0.0
  9
$EXTMAX
 10
41.6667
 20
41.6667
 30
0.0
  0
ENDSEC
  0
SECTION
  2
TABLES
  0
TABLE
  2
LAYER
 70
1
  0
LAYER
  2
0
 70
     0
 62
     7
  6
CONTINUOUS
  0
ENDTAB
  0
ENDSEC
  0
SECTION
  2
ENTITIES
  0
POLYLINE
  8
0
 62
     0
 66
     1
 10
0
 20
0
 30
0.0
 70
     1
 40
0
 41
0
  0
VERTEX
  8
0
 10
35.2431
 20
47.3806
 30
0.0
 40
0
 41
0
  0
VERTEX
  8
0
 10
35.1915
 20
47.3747
 30
0.0
 40
0
 41
0
  0
VERTEX
  8
0
 10
35.0385
 20
47.3462
 30
0.0
 40
0
 41
0
  0
VERTEX
  8
0
 10
34.8594
 20
47.2904
 30
0.0
 40
0
 41
0
  0
VERTEX
  8
0
 10
34.6954
 20
47.2089
 30
0.0
 40
0
 41
0
  0
VERTEX
  8
0
 10
34.574
 20
47.1275
 30
0.0
 40
0
 41
0
  0
VERTEX
  8
0
 10
34.5361
 20
47.0972
 30
0.0
 40
0
 41
0
  0
VERTEX
  8
0
 10
34.4918
 20
47.0621
 30
0.0
 40
0
 41
0
  0
VERTEX
  8
0
 10
34.3732
 20
46.9389
 30
0.0
 40
0
 41
0
  0
VERTEX
  8
0
 10
34.2397
 20
46.7493
 30
0.0
 40
0
 41
0
  0
VERTEX
  8
0
 10
34.141
 20
46.5379
 30
0.0
 40
0
 41
0
  0
VERTEX
  8
0
 10
34.0913
 20
46.3708
 30
0.0
 40
0
 41
0
  0
VERTEX
  8
0
 10
34.0819
 20
46.3139
 30
0.0
 40
0
 41
0
  0
VERTEX
  8
0
 10
34.0767
 20
46.2803
 30
0.0
 40
0
 41
0
  0
VERTEX
  8
0
 10
34.0706
 20
46.1776
 30
0.0
 40
0
 41
0
  0
VERTEX
  8
0
 10
34.0732
 20
46.0249
 30
0.0
 40
0
 41
0
  0
VERTEX
  8
0
 10
34.0889
 20
45.8739
 30
0.0
 40
0
 41
0
  0
VERTEX
  8
0
 10
34.1074
 20
45.775
 30
0.0
 40
0
 41
0
  0
VERTEX
  8
0
 10
34.1167
 20
45.7431
 30
0.0
 40
0
 41
0
  0
VERTEX
  8
0
 10
34.1292
 20
45.7011
 30
0.0
 40
0
 41
0
  0
VERTEX
  8
0
 10
34.1782
 20
45.5786
 30
0.0
 40
0
 41
0
  0
VERTEX
  8
0
 10
34.2597
 20
45.4265
 30
0.0
 40
0
 41
0
  0
VERTEX
  8
0
 10
34.3599
 20
45.2882
 30
0.0
 40
0
 41
0
  0
VERTEX
  8
0
 10
34.4771
 20
45.1653
 30
0.0
 40
0
 41
0
  0
VERTEX
  8
0
 10
34.6099
 20
45.059
 30
0.0
 40
0
 41
0
  0
VERTEX
  8
0
 10
34.7569
 20
44.9708
 30
0.0
 40
0
 41
0
  0
VERTEX
  8
0
 10
34.9165
 20
44.9021
 30
0.0
 40
0
 41
0
  0
VERTEX
  8
0
 10
35.0442
 20
44.8633
 30
0.0
 40
0
 41
0
  0
VERTEX
  8
0
 10
35.0875
 20
44.8542
 30
0.0
 40
0
 41
0
  0
VERTEX
  8
0
 10
35.1157
 20
44.8479
 30
0.0
 40
0
 41
0
  0
VERTEX
  8
0
 10
35.2026
 20
44.8387
 30
0.0
 40
0
 41
0
  0
VERTEX
  8
0
 10
35.3443
 20
44.834
 30
0.0
 40
0
 41
0
  0
VERTEX
  8
0
 10
35.4876
 20
44.8397
 30
0.0
 40
0
 41
0
  0
VERTEX
  8
0
 10
35.5786
 20
44.8494
 30
0.0
 40
0
 41
0
  0
VERTEX
  8
0
 10
35.6083
 20
44.8556
 30
0.0
 40
0
 41
0
  0
VERTEX
  8
0
 10
35.6522
 20
44.8647
 30
0.0
 40
0
 41
0
  0
VERTEX
  8
0
 10
35.7813
 20
44.9049
 30
0.0
 40
0
 41
0
  0
VERTEX
  8
0
 10
35.9458
 20
44.9786
 30
0.0
 40
0
 41
0
  0
VERTEX
  8
0
 10
36.099
 20
45.0757
 30
0.0
 40
0
 41
0
  0
VERTEX
  8
0
 10
36.2051
 20
45.1625
 30
0.0
 40
0
 41
0
  0
VERTEX
  8
0
 10
36.2375
 20
45.1944
 30
0.0
 40
0
 41
0
  0
VERTEX
  8
0
 10
36.2664
 20
45.2231
 30
0.0
 40
0
 41
0
  0
VERTEX
  8
0
 10
36.3472
 20
45.3147
 30
0.0
 40
0
 41
0
  0
VERTEX
  8
0
 10
36.4353
 20
45.4381
 30
0.0
 40
0
 41
0
  0
VERTEX
  8
0
 10
36.5053
 20
45.5704
 30
0.0
 40
0
 41
0
  0
VERTEX
  8
0
 10
36.5492
 20
45.6806
 30
0.0
 40
0
 41
0
  0
VERTEX
  8
0
 10
36.5611
 20
45.7181
 30
0.0
 40
0
 41
0
  0
VERTEX
  8
0
 10
36.5782
 20
45.7724
 30
0.0
 40
0
 41
0
  0
VERTEX
  8
0
 10
36.6104
 20
45.9411
 30
0.0
 40
0
 41
0
  0
VERTEX
  8
0
 10
36.6197
 20
46.1636
 30
0.0
 40
0
 41
0
  0
VERTEX
  8
0
 10
36.5911
 20
46.3811
 30
0.0
 40
0
 41
0
  0
VERTEX
  8
0
 10
36.5264
 20
46.5889
 30
0.0
 40
0
 41
0
  0
VERTEX
  8
0
 10
36.4272
 20
46.7826
 30
0.0
 40
0
 41
0
  0
VERTEX
  8
0
 10
36.2954
 20
46.9579
 30
0.0
 40
0
 41
0
  0
VERTEX
  8
0
 10
36.1331
 20
47.1101
 30
0.0
 40
0
 41
0
  0
VERTEX
  8
0
 10
35.9918
 20
47.2079
 30
0.0
 40
0
 41
0
  0
VERTEX
  8
0
 10
35.9417
 20
47.2347
 30
0.0
 40
0
 41
0
  0
VERTEX
  8
0
 10
35.9018
 20
47.256
 30
0.0
 40
0
 41
0
  0
VERTEX
  8
0
 10
35.775
 20
47.3071
 30
0.0
 40
0
 41
0
  0
VERTEX
  8
0
 10
35.5933
 20
47.3576
 30
0.0
 40
0
 41
0
  0
VERTEX
  8
0
 10
35.4113
 20
47.3832
 30
0.0
 40
0
 41
0
  0
VERTEX
  8
0
 10
35.2846
 20
47.3853
 30
0.0
 40
0
 41
0
  0
VERTEX
  8
0
 10
35.2431
 20
47.3806
 30
0.0
 40
0
 41
0
  0
SEQEND
 8
0
  0
POLYLINE
  8
0
 62
     0
 66
     1
 10
0
 20
0
 30
0.0
 70
     1
 40
0
 41
0
  0
VERTEX
  8
0
 10
35.5083
 20
46.4875
 30
0.0
 40
0
 41
0
  0
VERTEX
  8
0
 10
35.5319
 20
46.4771
 30
0.0
 40
0
 41
0
  0
VERTEX
  8
0
 10
35.5975
 20
46.4343
 30
0.0
 40
0
 41
0
  0
VERTEX
  8
0
 10
35.6679
 20
46.3644
 30
0.0
 40
0
 41
0
  0
VERTEX
  8
0
 10
35.7185
 20
46.2822
 30
0.0
 40
0
 41
0
  0
VERTEX
  8
0
 10
35.7485
 20
46.1914
 30
0.0
 40
0
 41
0
  0
VERTEX
  8
0
 10
35.7569
 20
46.096
 30
0.0
 40
0
 41
0
  0
VERTEX
  8
0
 10
35.7433
 20
46
 30
0.0
 40
0
 41
0
  0
VERTEX
  8
0
 10
35.7065
 20
45.9075
 30
0.0
 40
0
 41
0
  0
VERTEX
  8
0
 10
35.6632
 20
45.8414
 30
0.0
 40
0
 41
0
  0
VERTEX
  8
0
 10
35.6458
 20
45.8222
 30
0.0
 40
0
 41
0
  0
VERTEX
  8
0
 10
35.6249
 20
45.7988
 30
0.0
 40
0
 41
0
  0
VERTEX
  8
0
 10
35.5464
 20
45.7424
 30
0.0
 40
0
 41
0
  0
VERTEX
  8
0
 10
35.4281
 20
45.6981
 30
0.0
 40
0
 41
0
  0
VERTEX
  8
0
 10
35.3021
 20
45.6915
 30
0.0
 40
0
 41
0
  0
VERTEX
  8
0
 10
35.2076
 20
45.7119
 30
0.0
 40
0
 41
0
  0
VERTEX
  8
0
 10
35.1792
 20
45.725
 30
0.0
 40
0
 41
0
  0
VERTEX
  8
0
 10
35.1485
 20
45.739
 30
0.0
 40
0
 41
0
  0
VERTEX
  8
0
 10
35.0647
 20
45.7994
 30
0.0
 40
0
 41
0
  0
VERTEX
  8
0
 10
34.9849
 20
45.8964
 30
0.0
 40
0
 41
0
  0
VERTEX
  8
0
 10
34.9393
 20
46.0079
 30
0.0
 40
0
 41
0
  0
VERTEX
  8
0
 10
34.9276
 20
46.1258
 30
0.0
 40
0
 41
0
  0
VERTEX
  8
0
 10
34.9494
 20
46.2424
 30
0.0
 40
0
 41
0
  0
VERTEX
  8
0
 10
35.0043
 20
46.3494
 30
0.0
 40
0
 41
0
  0
VERTEX
  8
0
 10
35.0922
 20
46.4389
 30
0.0
 40
0
 41
0
  0
VERTEX
  8
0
 10
35.1808
 20
46.4915
 30
0.0
 40
0
 41
0
  0
VERTEX
  8
0
 10
35.2125
 20
46.5028
 30
0.0
 40
0
 41
0
  0
VERTEX
  8
0
 10
35.2351
 20
46.5108
 30
0.0
 40
0
 41
0
  0
VERTEX
  8
0
 10
35.3589
 20
46.5228
 30
0.0
 40
0
 41
0
  0
VERTEX
  8
0
 10
35.4847
 20
46.4979
 30
0.0
 40
0
 41
0
  0
VERTEX
  8
0
 10
35.5083
 20
46.4875
 30
0.0
 40
0
 41
0
  0
SEQEND
 8
0
  0
POLYLINE
  8
0
 62
     0
 66
     1
 10
0
 20
0
 30
0.0
 70
     1
 40
0
 41
0
  0
VERTEX
  8
0
 10
25.3056
 20
43.4236
 30
0.0
 40
0
 41
0
  0
VERTEX
  8
0
 10
22.7292
 20
40.8472
 30
0.0
 40
0
 41
0
  0
VERTEX
  8
0
 10
20.8
 20
40.8472
 30
0.0
 40
0
 41
0
  0
VERTEX
  8
0
 10
16.5569
 20
36.6083
 30
0.0
 40
0
 41
0
  0
VERTEX
  8
0
 10
16.4489
 20
36.5004
 30
0.0
 40
0
 41
0
  0
VERTEX
  8
0
 10
16.1244
 20
36.1764
 30
0.0
 40
0
 41
0
  0
VERTEX
  8
0
 10
15.7042
 20
35.7564
 30
0.0
 40
0
 41
0
  0
VERTEX
  8
0
 10
15.2981
 20
35.3507
 30
0.0
 40
0
 41
0
  0
VERTEX
  8
0
 10
14.9085
 20
34.9612
 30
0.0
 40
0
 41
0
  0
VERTEX
  8
0
 10
14.5375
 20
34.5904
 30
0.0
 40
0
 41
0
  0
VERTEX
  8
0
 10
14.1874
 20
34.2403
 30
0.0
 40
0
 41
0
  0
VERTEX
  8
0
 10
13.8602
 20
33.9131
 30
0.0
 40
0
 41
0
  0
VERTEX
  8
0
 10
13.5581
 20
33.611
 30
0.0
 40
0
 41
0
  0
VERTEX
  8
0
 10
13.2834
 20
33.3361
 30
0.0
 40
0
 41
0
  0
VERTEX
  8
0
 10
13.0382
 20
33.0907
 30
0.0
 40
0
 41
0
  0
VERTEX
  8
0
 10
12.8247
 20
32.8768
 30
0.0
 40
0
 41
0
  0
VERTEX
  8
0
 10
12.645
 20
32.6968
 30
0.0
 40
0
 41
0
  0
VERTEX
  8
0
 10
12.5014
 20
32.5528
 30
0.0
 40
0
 41
0
  0
VERTEX
  8
0
 10
12.3959
 20
32.4469
 30
0.0
 40
0
 41
0
  0
VERTEX
  8
0
 10
12.3308
 20
32.3814
 30
0.0
 40
0
 41
0
  0
VERTEX
  8
0
 10
12.309
 20
32.3597
 30
0.0
 40
0
 41
0
  0
VERTEX
  8
0
 10
12.3083
 20
32.3583
 30
0.0
 40
0
 41
0
  0
VERTEX
  8
0
 10
12.3083
 20
32.3583
 30
0.0
 40
0
 41
0
  0
VERTEX
  8
0
 10
12.3282
 20
32.3578
 30
0.0
 40
0
 41
0
  0
VERTEX
  8
0
 10
12.3876
 20
32.3571
 30
0.0
 40
0
 41
0
  0
VERTEX
  8
0
 10
12.4857
 20
32.3565
 30
0.0
 40
0
 41
0
  0
VERTEX
  8
0
 10
12.6214
 20
32.356
 30
0.0
 40
0
 41
0
  0
VERTEX
  8
0
 10
12.7937
 20
32.3553
 30
0.0
 40
0
 41
0
  0
VERTEX
  8
0
 10
13.0017
 20
32.3547
 30
0.0
 40
0
 41
0
  0
VERTEX
  8
0
 10
13.2444
 20
32.3542
 30
0.0
 40
0
 41
0
  0
VERTEX
  8
0
 10
13.5208
 20
32.3536
 30
0.0
 40
0
 41
0
  0
VERTEX
  8
0
 10
13.8298
 20
32.3532
 30
0.0
 40
0
 41
0
  0
VERTEX
  8
0
 10
14.1706
 20
32.3526
 30
0.0
 40
0
 41
0
  0
VERTEX
  8
0
 10
14.5419
 20
32.3522
 30
0.0
 40
0
 41
0
  0
VERTEX
  8
0
 10
14.9432
 20
32.3518
 30
0.0
 40
0
 41
0
  0
VERTEX
  8
0
 10
15.3732
 20
32.3514
 30
0.0
 40
0
 41
0
  0
VERTEX
  8
0
 10
15.8308
 20
32.351
 30
0.0
 40
0
 41
0
  0
VERTEX
  8
0
 10
16.3154
 20
32.3506
 30
0.0
 40
0
 41
0
  0
VERTEX
  8
0
 10
16.8257
 20
32.3501
 30
0.0
 40
0
 41
0
  0
VERTEX
  8
0
 10
17.3607
 20
32.3499
 30
0.0
 40
0
 41
0
  0
VERTEX
  8
0
 10
17.9196
 20
32.3496
 30
0.0
 40
0
 41
0
  0
VERTEX
  8
0
 10
18.5014
 20
32.3492
 30
0.0
 40
0
 41
0
  0
VERTEX
  8
0
 10
19.105
 20
32.349
 30
0.0
 40
0
 41
0
  0
VERTEX
  8
0
 10
19.7294
 20
32.3488
 30
0.0
 40
0
 41
0
  0
VERTEX
  8
0
 10
20.3738
 20
32.3485
 30
0.0
 40
0
 41
0
  0
VERTEX
  8
0
 10
21.0369
 20
32.3482
 30
0.0
 40
0
 41
0
  0
VERTEX
  8
0
 10
21.7181
 20
32.3481
 30
0.0
 40
0
 41
0
  0
VERTEX
  8
0
 10
22.4161
 20
32.3478
 30
0.0
 40
0
 41
0
  0
VERTEX
  8
0
 10
23.13
 20
32.3476
 30
0.0
 40
0
 41
0
  0
VERTEX
  8
0
 10
23.8589
 20
32.3475
 30
0.0
 40
0
 41
0
  0
VERTEX
  8
0
 10
24.6018
 20
32.3475
 30
0.0
 40
0
 41
0
  0
VERTEX
  8
0
 10
25.3576
 20
32.3474
 30
0.0
 40
0
 41
0
  0
VERTEX
  8
0
 10
26.1254
 20
32.3472
 30
0.0
 40
0
 41
0
  0
VERTEX
  8
0
 10
26.9042
 20
32.3472
 30
0.0
 40
0
 41
0
  0
VERTEX
  8
0
 10
27.4958
 20
32.3472
 30
0.0
 40
0
 41
0
  0
VERTEX
  8
0
 10
27.6931
 20
32.3472
 30
0.0
 40
0
 41
0
  0
VERTEX
  8
0
 10
43.0819
 20
32.3472
 30
0.0
 40
0
 41
0
  0
VERTEX
  8
0
 10
43.1306
 20
32.2444
 30
0.0
 40
0
 41
0
  0
VERTEX
  8
0
 10
43.1603
 20
32.1803
 30
0.0
 40
0
 41
0
  0
VERTEX
  8
0
 10
43.2769
 20
32.0006
 30
0.0
 40
0
 41
0
  0
VERTEX
  8
0
 10
43.4688
 20
31.7986
 30
0.0
 40
0
 41
0
  0
VERTEX
  8
0
 10
43.7001
 20
31.6436
 30
0.0
 40
0
 41
0
  0
VERTEX
  8
0
 10
43.8969
 20
31.5587
 30
0.0
 40
0
 41
0
  0
VERTEX
  8
0
 10
43.9653
 20
31.5403
 30
0.0
 40
0
 41
0
  0
VERTEX
  8
0
 10
43.999
 20
31.531
 30
0.0
 40
0
 41
0
  0
VERTEX
  8
0
 10
44.1043
 20
31.5169
 30
0.0
 40
0
 41
0
  0
VERTEX
  8
0
 10
44.2774
 20
31.5075
 30
0.0
 40
0
 41
0
  0
VERTEX
  8
0
 10
44.45
 20
31.5124
 30
0.0
 40
0
 41
0
  0
VERTEX
  8
0
 10
44.554
 20
31.5236
 30
0.0
 40
0
 41
0
  0
VERTEX
  8
0
 10
44.5875
 20
31.5319
 30
0.0
 40
0
 41
0
  0
VERTEX
  8
0
 10
44.6306
 20
31.5428
 30
0.0
 40
0
 41
0
  0
VERTEX
  8
0
 10
44.7569
 20
31.5868
 30
0.0
 40
0
 41
0
  0
VERTEX
  8
0
 10
44.9153
 20
31.6626
 30
0.0
 40
0
 41
0
  0
VERTEX
  8
0
 10
45.0606
 20
31.7579
 30
0.0
 40
0
 41
0
  0
VERTEX
  8
0
 10
45.191
 20
31.8706
 30
0.0
 40
0
 41
0
  0
VERTEX
  8
0
 10
45.3047
 20
31.9989
 30
0.0
 40
0
 41
0
  0
VERTEX
  8
0
 10
45.4
 20
32.1414
 30
0.0
 40
0
 41
0
  0
VERTEX
  8
0
 10
45.475
 20
32.296
 30
0.0
 40
0
 41
0
  0
VERTEX
  8
0
 10
45.5176
 20
32.4192
 30
0.0
 40
0
 41
0
  0
VERTEX
  8
0
 10
45.5278
 20
32.4611
 30
0.0
 40
0
 41
0
  0
VERTEX
  8
0
 10
45.539
 20
32.5064
 30
0.0
 40
0
 41
0
  0
VERTEX
  8
0
 10
45.5593
 20
32.6457
 30
0.0
 40
0
 41
0
  0
VERTEX
  8
0
 10
45.5647
 20
32.8343
 30
0.0
 40
0
 41
0
  0
VERTEX
  8
0
 10
45.5443
 20
33.0206
 30
0.0
 40
0
 41
0
  0
VERTEX
  8
0
 10
45.5133
 20
33.1542
 30
0.0
 40
0
 41
0
  0
VERTEX
  8
0
 10
45.4986
 20
33.1972
 30
0.0
 40
0
 41
0
  0
VERTEX
  8
0
 10
45.4858
 20
33.2346
 30
0.0
 40
0
 41
0
  0
VERTEX
  8
0
 10
45.4382
 20
33.3435
 30
0.0
 40
0
 41
0
  0
VERTEX
  8
0
 10
45.3611
 20
33.4792
 30
0.0
 40
0
 41
0
  0
VERTEX
  8
0
 10
45.2683
 20
33.6035
 30
0.0
 40
0
 41
0
  0
VERTEX
  8
0
 10
45.1611
 20
33.7151
 30
0.0
 40
0
 41
0
  0
VERTEX
  8
0
 10
45.0406
 20
33.8132
 30
0.0
 40
0
 41
0
  0
VERTEX
  8
0
 10
44.9081
 20
33.8967
 30
0.0
 40
0
 41
0
  0
VERTEX
  8
0
 10
44.7644
 20
33.9644
 30
0.0
 40
0
 41
0
  0
VERTEX
  8
0
 10
44.65
 20
34.005
 30
0.0
 40
0
 41
0
  0
VERTEX
  8
0
 10
44.6111
 20
34.0153
 30
0.0
 40
0
 41
0
  0
VERTEX
  8
0
 10
44.5751
 20
34.025
 30
0.0
 40
0
 41
0
  0
VERTEX
  8
0
 10
44.4635
 20
34.0411
 30
0.0
 40
0
 41
0
  0
VERTEX
  8
0
 10
44.2912
 20
34.0499
 30
0.0
 40
0
 41
0
  0
VERTEX
  8
0
 10
44.1197
 20
34.0417
 30
0.0
 40
0
 41
0
  0
VERTEX
  8
0
 10
44.0093
 20
34.0261
 30
0.0
 40
0
 41
0
  0
VERTEX
  8
0
 10
43.9736
 20
34.0167
 30
0.0
 40
0
 41
0
  0
VERTEX
  8
0
 10
43.9043
 20
33.9979
 30
0.0
 40
0
 41
0
  0
VERTEX
  8
0
 10
43.7039
 20
33.9125
 30
0.0
 40
0
 41
0
  0
VERTEX
  8
0
 10
43.4696
 20
33.7572
 30
0.0
 40
0
 41
0
  0
VERTEX
  8
0
 10
43.2761
 20
33.5551
 30
0.0
 40
0
 41
0
  0
VERTEX
  8
0
 10
43.1589
 20
33.3754
 30
0.0
 40
0
 41
0
  0
VERTEX
  8
0
 10
43.1292
 20
33.3111
 30
0.0
 40
0
 41
0
  0
VERTEX
  8
0
 10
43.0819
 20
33.2083
 30
0.0
 40
0
 41
0
  0
VERTEX
  8
0
 10
14.3681
 20
33.2083
 30
0.0
 40
0
 41
0
  0
VERTEX
  8
0
 10
21.1458
 20
39.9861
 30
0.0
 40
0
 41
0
  0
VERTEX
  8
0
 10
23.0903
 20
39.9861
 30
0.0
 40
0
 41
0
  0
VERTEX
  8
0
 10
27.8889
 20
44.7847
 30
0.0
 40
0
 41
0
  0
VERTEX
  8
0
 10
29.8681
 20
42.8056
 30
0.0
 40
0
 41
0
  0
VERTEX
  8
0
 10
31.7708
 20
42.8056
 30
0.0
 40
0
 41
0
  0
VERTEX
  8
0
 10
34.4028
 20
40.1736
 30
0.0
 40
0
 41
0
  0
VERTEX
  8
0
 10
34.8708
 20
40.6417
 30
0.0
 40
0
 41
0
  0
VERTEX
  8
0
 10
35.3403
 20
41.1097
 30
0.0
 40
0
 41
0
  0
VERTEX
  8
0
 10
37.8944
 20
38.5597
 30
0.0
 40
0
 41
0
  0
VERTEX
  8
0
 10
40.4486
 20
36.0097
 30
0.0
 40
0
 41
0
  0
VERTEX
  8
0
 10
40.4306
 20
35.9667
 30
0.0
 40
0
 41
0
  0
VERTEX
  8
0
 10
40.4281
 20
35.9608
 30
0.0
 40
0
 41
0
  0
VERTEX
  8
0
 10
40.421
 20
35.9413
 30
0.0
 40
0
 41
0
  0
VERTEX
  8
0
 10
40.4081
 20
35.9036
 30
0.0
 40
0
 41
0
  0
VERTEX
  8
0
 10
40.3935
 20
35.859
 30
0.0
 40
0
 41
0
  0
VERTEX
  8
0
 10
40.3826
 20
35.8242
 30
0.0
 40
0
 41
0
  0
VERTEX
  8
0
 10
40.3792
 20
35.8125
 30
0.0
 40
0
 41
0
  0
VERTEX
  8
0
 10
40.369
 20
35.7799
 30
0.0
 40
0
 41
0
  0
VERTEX
  8
0
 10
40.3504
 20
35.6779
 30
0.0
 40
0
 41
0
  0
VERTEX
  8
0
 10
40.3357
 20
35.5168
 30
0.0
 40
0
 41
0
  0
VERTEX
  8
0
 10
40.3361
 20
35.3529
 30
0.0
 40
0
 41
0
  0
VERTEX
  8
0
 10
40.3457
 20
35.245
 30
0.0
 40
0
 41
0
  0
VERTEX
  8
0
 10
40.3528
 20
35.2097
 30
0.0
 40
0
 41
0
  0
VERTEX
  8
0
 10
40.3619
 20
35.165
 30
0.0
 40
0
 41
0
  0
VERTEX
  8
0
 10
40.4019
 20
35.0329
 30
0.0
 40
0
 41
0
  0
VERTEX
  8
0
 10
40.4743
 20
34.8675
 30
0.0
 40
0
 41
0
  0
VERTEX
  8
0
 10
40.5696
 20
34.715
 30
0.0
 40
0
 41
0
  0
VERTEX
  8
0
 10
40.6557
 20
34.6088
 30
0.0
 40
0
 41
0
  0
VERTEX
  8
0
 10
40.6875
 20
34.5764
 30
0.0
 40
0
 41
0
  0
VERTEX
  8
0
 10
40.72
 20
34.5431
 30
0.0
 40
0
 41
0
  0
VERTEX
  8
0
 10
40.826
 20
34.4511
 30
0.0
 40
0
 41
0
  0
VERTEX
  8
0
 10
40.9725
 20
34.3511
 30
0.0
 40
0
 41
0
  0
VERTEX
  8
0
 10
41.13
 20
34.2744
 30
0.0
 40
0
 41
0
  0
VERTEX
  8
0
 10
41.2578
 20
34.2304
 30
0.0
 40
0
 41
0
  0
VERTEX
  8
0
 10
41.3014
 20
34.2194
 30
0.0
 40
0
 41
0
  0
VERTEX
  8
0
 10
41.3372
 20
34.2104
 30
0.0
 40
0
 41
0
  0
VERTEX
  8
0
 10
41.4479
 20
34.1954
 30
0.0
 40
0
 41
0
  0
VERTEX
  8
0
 10
41.6161
 20
34.1879
 30
0.0
 40
0
 41
0
  0
VERTEX
  8
0
 10
41.7824
 20
34.1964
 30
0.0
 40
0
 41
0
  0
VERTEX
  8
0
 10
41.8892
 20
34.2117
 30
0.0
 40
0
 41
0
  0
VERTEX
  8
0
 10
41.9236
 20
34.2208
 30
0.0
 40
0
 41
0
  0
VERTEX
  8
0
 10
41.9511
 20
34.2282
 30
0.0
 40
0
 41
0
  0
VERTEX
  8
0
 10
42.0322
 20
34.2562
 30
0.0
 40
0
 41
0
  0
VERTEX
  8
0
 10
42.1471
 20
34.3049
 30
0.0
 40
0
 41
0
  0
VERTEX
  8
0
 10
42.2574
 20
34.3618
 30
0.0
 40
0
 41
0
  0
VERTEX
  8
0
 10
42.3299
 20
34.4058
 30
0.0
 40
0
 41
0
  0
VERTEX
  8
0
 10
42.3528
 20
34.4222
 30
0.0
 40
0
 41
0
  0
VERTEX
  8
0
 10
42.374
 20
34.4375
 30
0.0
 40
0
 41
0
  0
VERTEX
  8
0
 10
42.434
 20
34.4883
 30
0.0
 40
0
 41
0
  0
VERTEX
  8
0
 10
42.5215
 20
34.5719
 30
0.0
 40
0
 41
0
  0
VERTEX
  8
0
 10
42.6028
 20
34.6601
 30
0.0
 40
0
 41
0
  0
VERTEX
  8
0
 10
42.651
 20
34.7193
 30
0.0
 40
0
 41
0
  0
VERTEX
  8
0
 10
42.6653
 20
34.7403
 30
0.0
 40
0
 41
0
  0
VERTEX
  8
0
 10
42.6967
 20
34.7861
 30
0.0
 40
0
 41
0
  0
VERTEX
  8
0
 10
42.7726
 20
34.936
 30
0.0
 40
0
 41
0
  0
VERTEX
  8
0
 10
42.8451
 20
35.1529
 30
0.0
 40
0
 41
0
  0
VERTEX
  8
0
 10
42.8801
 20
35.3796
 30
0.0
 40
0
 41
0
  0
VERTEX
  8
0
 10
42.8815
 20
35.5486
 30
0.0
 40
0
 41
0
  0
VERTEX
  8
0
 10
42.875
 20
35.6042
 30
0.0
 40
0
 41
0
  0
VERTEX
  8
0
 10
42.8701
 20
35.645
 30
0.0
 40
0
 41
0
  0
VERTEX
  8
0
 10
42.8458
 20
35.7664
 30
0.0
 40
0
 41
0
  0
VERTEX
  8
0
 10
42.7986
 20
35.9201
 30
0.0
 40
0
 41
0
  0
VERTEX
  8
0
 10
42.7338
 20
36.0643
 30
0.0
 40
0
 41
0
  0
VERTEX
  8
0
 10
42.6521
 20
36.1981
 30
0.0
 40
0
 41
0
  0
VERTEX
  8
0
 10
42.5543
 20
36.3206
 30
0.0
 40
0
 41
0
  0
VERTEX
  8
0
 10
42.441
 20
36.4306
 30
0.0
 40
0
 41
0
  0
VERTEX
  8
0
 10
42.3129
 20
36.5272
 30
0.0
 40
0
 41
0
  0
VERTEX
  8
0
 10
42.2074
 20
36.5913
 30
0.0
 40
0
 41
0
  0
VERTEX
  8
0
 10
42.1708
 20
36.6097
 30
0.0
 40
0
 41
0
  0
VERTEX
  8
0
 10
42.1168
 20
36.6369
 30
0.0
 40
0
 41
0
  0
VERTEX
  8
0
 10
41.9426
 20
36.6939
 30
0.0
 40
0
 41
0
  0
VERTEX
  8
0
 10
41.6929
 20
36.7331
 30
0.0
 40
0
 41
0
  0
VERTEX
  8
0
 10
41.4397
 20
36.7257
 30
0.0
 40
0
 41
0
  0
VERTEX
  8
0
 10
41.2587
 20
36.691
 30
0.0
 40
0
 41
0
  0
VERTEX
  8
0
 10
41.2014
 20
36.6708
 30
0.0
 40
0
 41
0
  0
VERTEX
  8
0
 10
41.1915
 20
36.6675
 30
0.0
 40
0
 41
0
  0
VERTEX
  8
0
 10
41.1619
 20
36.6574
 30
0.0
 40
0
 41
0
  0
VERTEX
  8
0
 10
41.1257
 20
36.6449
 30
0.0
 40
0
 41
0
  0
VERTEX
  8
0
 10
41.0967
 20
36.6349
 30
0.0
 40
0
 41
0
  0
VERTEX
  8
0
 10
41.0826
 20
36.6303
 30
0.0
 40
0
 41
0
  0
VERTEX
  8
0
 10
41.0792
 20
36.6292
 30
0.0
 40
0
 41
0
  0
VERTEX
  8
0
 10
41.0769
 20
36.6285
 30
0.0
 40
0
 41
0
  0
VERTEX
  8
0
 10
41.0675
 20
36.6365
 30
0.0
 40
0
 41
0
  0
VERTEX
  8
0
 10
41.0388
 20
36.6613
 30
0.0
 40
0
 41
0
  0
VERTEX
  8
0
 10
40.9918
 20
36.7046
 30
0.0
 40
0
 41
0
  0
VERTEX
  8
0
 10
40.9254
 20
36.7678
 30
0.0
 40
0
 41
0
  0
VERTEX
  8
0
 10
40.8385
 20
36.8517
 30
0.0
 40
0
 41
0
  0
VERTEX
  8
0
 10
40.7299
 20
36.9575
 30
0.0
 40
0
 41
0
  0
VERTEX
  8
0
 10
40.5985
 20
37.0864
 30
0.0
 40
0
 41
0
  0
VERTEX
  8
0
 10
40.4432
 20
37.2396
 30
0.0
 40
0
 41
0
  0
VERTEX
  8
0
 10
40.2628
 20
37.4181
 30
0.0
 40
0
 41
0
  0
VERTEX
  8
0
 10
40.0563
 20
37.6231
 30
0.0
 40
0
 41
0
  0
VERTEX
  8
0
 10
39.8224
 20
37.8554
 30
0.0
 40
0
 41
0
  0
VERTEX
  8
0
 10
39.5601
 20
38.1167
 30
0.0
 40
0
 41
0
  0
VERTEX
  8
0
 10
39.2683
 20
38.4076
 30
0.0
 40
0
 41
0
  0
VERTEX
  8
0
 10
38.9458
 20
38.7297
 30
0.0
 40
0
 41
0
  0
VERTEX
  8
0
 10
38.5914
 20
39.0836
 30
0.0
 40
0
 41
0
  0
VERTEX
  8
0
 10
38.301
 20
39.374
 30
0.0
 40
0
 41
0
  0
VERTEX
  8
0
 10
38.2042
 20
39.4708
 30
0.0
 40
0
 41
0
  0
VERTEX
  8
0
 10
38.1315
 20
39.5435
 30
0.0
 40
0
 41
0
  0
VERTEX
  8
0
 10
37.9136
 20
39.761
 30
0.0
 40
0
 41
0
  0
VERTEX
  8
0
 10
37.6312
 20
40.0431
 30
0.0
 40
0
 41
0
  0
VERTEX
  8
0
 10
37.3582
 20
40.3154
 30
0.0
 40
0
 41
0
  0
VERTEX
  8
0
 10
37.0961
 20
40.5769
 30
0.0
 40
0
 41
0
  0
VERTEX
  8
0
 10
36.8465
 20
40.8257
 30
0.0
 40
0
 41
0
  0
VERTEX
  8
0
 10
36.6107
 20
41.0607
 30
0.0
 40
0
 41
0
  0
VERTEX
  8
0
 10
36.3904
 20
41.2801
 30
0.0
 40
0
 41
0
  0
VERTEX
  8
0
 10
36.1868
 20
41.4826
 30
0.0
 40
0
 41
0
  0
VERTEX
  8
0
 10
36.0015
 20
41.6669
 30
0.0
 40
0
 41
0
  0
VERTEX
  8
0
 10
35.836
 20
41.8313
 30
0.0
 40
0
 41
0
  0
VERTEX
  8
0
 10
35.6917
 20
41.9743
 30
0.0
 40
0
 41
0
  0
VERTEX
  8
0
 10
35.5701
 20
42.0947
 30
0.0
 40
0
 41
0
  0
VERTEX
  8
0
 10
35.4728
 20
42.1908
 30
0.0
 40
0
 41
0
  0
VERTEX
  8
0
 10
35.401
 20
42.2614
 30
0.0
 40
0
 41
0
  0
VERTEX
  8
0
 10
35.3564
 20
42.3047
 30
0.0
 40
0
 41
0
  0
VERTEX
  8
0
 10
35.3443
 20
42.3194
 30
0.0
 40
0
 41
0
  0
VERTEX
  8
0
 10
35.3403
 20
42.3194
 30
0.0
 40
0
 41
0
  0
VERTEX
  8
0
 10
35.3371
 20
42.3194
 30
0.0
 40
0
 41
0
  0
VERTEX
  8
0
 10
35.3278
 20
42.31
 30
0.0
 40
0
 41
0
  0
VERTEX
  8
0
 10
35.2981
 20
42.2831
 30
0.0
 40
0
 41
0
  0
VERTEX
  8
0
 10
35.2529
 20
42.2403
 30
0.0
 40
0
 41
0
  0
VERTEX
  8
0
 10
35.1944
 20
42.1838
 30
0.0
 40
0
 41
0
  0
VERTEX
  8
0
 10
35.1244
 20
42.1153
 30
0.0
 40
0
 41
0
  0
VERTEX
  8
0
 10
35.0449
 20
42.0371
 30
0.0
 40
0
 41
0
  0
VERTEX
  8
0
 10
34.9579
 20
41.9507
 30
0.0
 40
0
 41
0
  0
VERTEX
  8
0
 10
34.8883
 20
41.8814
 30
0.0
 40
0
 41
0
  0
VERTEX
  8
0
 10
34.8653
 20
41.8583
 30
0.0
 40
0
 41
0
  0
VERTEX
  8
0
 10
34.4028
 20
41.3958
 30
0.0
 40
0
 41
0
  0
VERTEX
  8
0
 10
32.1458
 20
43.6528
 30
0.0
 40
0
 41
0
  0
VERTEX
  8
0
 10
30.2431
 20
43.6528
 30
0.0
 40
0
 41
0
  0
VERTEX
  8
0
 10
29.0694
 20
44.8264
 30
0.0
 40
0
 41
0
  0
VERTEX
  8
0
 10
29.0104
 20
44.8854
 30
0.0
 40
0
 41
0
  0
VERTEX
  8
0
 10
28.8335
 20
45.0622
 30
0.0
 40
0
 41
0
  0
VERTEX
  8
0
 10
28.6131
 20
45.2822
 30
0.0
 40
0
 41
0
  0
VERTEX
  8
0
 10
28.4132
 20
45.4815
 30
0.0
 40
0
 41
0
  0
VERTEX
  8
0
 10
28.2385
 20
45.6554
 30
0.0
 40
0
 41
0
  0
VERTEX
  8
0
 10
28.094
 20
45.799
 30
0.0
 40
0
 41
0
  0
VERTEX
  8
0
 10
27.9843
 20
45.9075
 30
0.0
 40
0
 41
0
  0
VERTEX
  8
0
 10
27.9143
 20
45.9761
 30
0.0
 40
0
 41
0
  0
VERTEX
  8
0
 10
27.8953
 20
46
 30
0.0
 40
0
 41
0
  0
VERTEX
  8
0
 10
27.8889
 20
46
 30
0.0
 40
0
 41
0
  0
VERTEX
  8
0
 10
27.8853
 20
46
 30
0.0
 40
0
 41
0
  0
VERTEX
  8
0
 10
27.8747
 20
45.9867
 30
0.0
 40
0
 41
0
  0
VERTEX
  8
0
 10
27.8347
 20
45.9474
 30
0.0
 40
0
 41
0
  0
VERTEX
  8
0
 10
27.7703
 20
45.8837
 30
0.0
 40
0
 41
0
  0
VERTEX
  8
0
 10
27.6826
 20
45.7967
 30
0.0
 40
0
 41
0
  0
VERTEX
  8
0
 10
27.5732
 20
45.6878
 30
0.0
 40
0
 41
0
  0
VERTEX
  8
0
 10
27.4432
 20
45.5583
 30
0.0
 40
0
 41
0
  0
VERTEX
  8
0
 10
27.2939
 20
45.4097
 30
0.0
 40
0
 41
0
  0
VERTEX
  8
0
 10
27.1269
 20
45.2431
 30
0.0
 40
0
 41
0
  0
VERTEX
  8
0
 10
26.9432
 20
45.0599
 30
0.0
 40
0
 41
0
  0
VERTEX
  8
0
 10
26.7443
 20
44.8614
 30
0.0
 40
0
 41
0
  0
VERTEX
  8
0
 10
26.5315
 20
44.6489
 30
0.0
 40
0
 41
0
  0
VERTEX
  8
0
 10
26.3063
 20
44.4239
 30
0.0
 40
0
 41
0
  0
VERTEX
  8
0
 10
26.0697
 20
44.1875
 30
0.0
 40
0
 41
0
  0
VERTEX
  8
0
 10
25.8231
 20
43.9411
 30
0.0
 40
0
 41
0
  0
VERTEX
  8
0
 10
25.5679
 20
43.686
 30
0.0
 40
0
 41
0
  0
VERTEX
  8
0
 10
25.3711
 20
43.4893
 30
0.0
 40
0
 41
0
  0
VERTEX
  8
0
 10
25.3056
 20
43.4236
 30
0.0
 40
0
 41
0
  0
SEQEND
 8
0
  0
POLYLINE
  8
0
 62
     0
 66
     1
 10
0
 20
0
 30
0.0
 70
     1
 40
0
 41
0
  0
VERTEX
  8
0
 10
41.7903
 20
35.8319
 30
0.0
 40
0
 41
0
  0
VERTEX
  8
0
 10
41.8136
 20
35.8203
 30
0.0
 40
0
 41
0
  0
VERTEX
  8
0
 10
41.8782
 20
35.774
 30
0.0
 40
0
 41
0
  0
VERTEX
  8
0
 10
41.9461
 20
35.7007
 30
0.0
 40
0
 41
0
  0
VERTEX
  8
0
 10
41.9932
 20
35.616
 30
0.0
 40
0
 41
0
  0
VERTEX
  8
0
 10
42.0188
 20
35.5242
 30
0.0
 40
0
 41
0
  0
VERTEX
  8
0
 10
42.0221
 20
35.429
 30
0.0
 40
0
 41
0
  0
VERTEX
  8
0
 10
42.0028
 20
35.3349
 30
0.0
 40
0
 41
0
  0
VERTEX
  8
0
 10
41.96
 20
35.2456
 30
0.0
 40
0
 41
0
  0
VERTEX
  8
0
 10
41.9119
 20
35.1831
 30
0.0
 40
0
 41
0
  0
VERTEX
  8
0
 10
41.8931
 20
35.1653
 30
0.0
 40
0
 41
0
  0
VERTEX
  8
0
 10
41.8633
 20
35.1368
 30
0.0
 40
0
 41
0
  0
VERTEX
  8
0
 10
41.7532
 20
35.0731
 30
0.0
 40
0
 41
0
  0
VERTEX
  8
0
 10
41.601
 20
35.0437
 30
0.0
 40
0
 41
0
  0
VERTEX
  8
0
 10
41.4493
 20
35.0771
 30
0.0
 40
0
 41
0
  0
VERTEX
  8
0
 10
41.3404
 20
35.1432
 30
0.0
 40
0
 41
0
  0
VERTEX
  8
0
 10
41.3111
 20
35.1722
 30
0.0
 40
0
 41
0
  0
VERTEX
  8
0
 10
41.2826
 20
35.2008
 30
0.0
 40
0
 41
0
  0
VERTEX
  8
0
 10
41.2199
 20
35.3094
 30
0.0
 40
0
 41
0
  0
VERTEX
  8
0
 10
41.1901
 20
35.4637
 30
0.0
 40
0
 41
0
  0
VERTEX
  8
0
 10
41.2215
 20
35.6178
 30
0.0
 40
0
 41
0
  0
VERTEX
  8
0
 10
41.2853
 20
35.7257
 30
0.0
 40
0
 41
0
  0
VERTEX
  8
0
 10
41.3139
 20
35.7542
 30
0.0
 40
0
 41
0
  0
VERTEX
  8
0
 10
41.3292
 20
35.7694
 30
0.0
 40
0
 41
0
  0
VERTEX
  8
0
 10
41.3792
 20
35.8108
 30
0.0
 40
0
 41
0
  0
VERTEX
  8
0
 10
41.445
 20
35.8472
 30
0.0
 40
0
 41
0
  0
VERTEX
  8
0
 10
41.52
 20
35.8671
 30
0.0
 40
0
 41
0
  0
VERTEX
  8
0
 10
41.5893
 20
35.8733
 30
0.0
 40
0
 41
0
  0
VERTEX
  8
0
 10
41.6125
 20
35.8736
 30
0.0
 40
0
 41
0
  0
VERTEX
  8
0
 10
41.625
 20
35.8737
 30
0.0
 40
0
 41
0
  0
VERTEX
  8
0
 10
41.6624
 20
35.8728
 30
0.0
 40
0
 41
0
  0
VERTEX
  8
0
 10
41.7029
 20
35.8668
 30
0.0
 40
0
 41
0
  0
VERTEX
  8
0
 10
41.7428
 20
35.8539
 30
0.0
 40
0
 41
0
  0
VERTEX
  8
0
 10
41.7785
 20
35.8378
 30
0.0
 40
0
 41
0
  0
VERTEX
  8
0
 10
41.7903
 20
35.8319
 30
0.0
 40
0
 41
0
  0
SEQEND
 8
0
  0
POLYLINE
  8
0
 62
     0
 66
     1
 10
0
 20
0
 30
0.0
 70
     1
 40
0
 41
0
  0
VERTEX
  8
0
 10
44.4847
 20
33.1444
 30
0.0
 40
0
 41
0
  0
VERTEX
  8
0
 10
44.5167
 20
33.1271
 30
0.0
 40
0
 41
0
  0
VERTEX
  8
0
 10
44.6014
 20
33.0543
 30
0.0
 40
0
 41
0
  0
VERTEX
  8
0
 10
44.6742
 20
32.9415
 30
0.0
 40
0
 41
0
  0
VERTEX
  8
0
 10
44.705
 20
32.8163
 30
0.0
 40
0
 41
0
  0
VERTEX
  8
0
 10
44.6962
 20
32.689
 30
0.0
 40
0
 41
0
  0
VERTEX
  8
0
 10
44.6503
 20
32.57
 30
0.0
 40
0
 41
0
  0
VERTEX
  8
0
 10
44.5692
 20
32.4693
 30
0.0
 40
0
 41
0
  0
VERTEX
  8
0
 10
44.4554
 20
32.3971
 30
0.0
 40
0
 41
0
  0
VERTEX
  8
0
 10
44.3475
 20
32.3663
 30
0.0
 40
0
 41
0
  0
VERTEX
  8
0
 10
44.3111
 20
32.3639
 30
0.0
 40
0
 41
0
  0
VERTEX
  8
0
 10
44.2975
 20
32.3631
 30
0.0
 40
0
 41
0
  0
VERTEX
  8
0
 10
44.2565
 20
32.3618
 30
0.0
 40
0
 41
0
  0
VERTEX
  8
0
 10
44.215
 20
32.3651
 30
0.0
 40
0
 41
0
  0
VERTEX
  8
0
 10
44.1765
 20
32.3754
 30
0.0
 40
0
 41
0
  0
VERTEX
  8
0
 10
44.1418
 20
32.3893
 30
0.0
 40
0
 41
0
  0
VERTEX
  8
0
 10
44.1306
 20
32.3944
 30
0.0
 40
0
 41
0
  0
VERTEX
  8
0
 10
44.1119
 20
32.4029
 30
0.0
 40
0
 41
0
  0
VERTEX
  8
0
 10
44.0586
 20
32.4333
 30
0.0
 40
0
 41
0
  0
VERTEX
  8
0
 10
44.001
 20
32.479
 30
0.0
 40
0
 41
0
  0
VERTEX
  8
0
 10
43.9543
 20
32.5349
 30
0.0
 40
0
 41
0
  0
VERTEX
  8
0
 10
43.9238
 20
32.5862
 30
0.0
 40
0
 41
0
  0
VERTEX
  8
0
 10
43.9153
 20
32.6042
 30
0.0
 40
0
 41
0
  0
VERTEX
  8
0
 10
43.9056
 20
32.6244
 30
0.0
 40
0
 41
0
  0
VERTEX
  8
0
 10
43.8849
 20
32.6896
 30
0.0
 40
0
 41
0
  0
VERTEX
  8
0
 10
43.874
 20
32.7754
 30
0.0
 40
0
 41
0
  0
VERTEX
  8
0
 10
43.8819
 20
32.8596
 30
0.0
 40
0
 41
0
  0
VERTEX
  8
0
 10
43.9075
 20
32.9397
 30
0.0
 40
0
 41
0
  0
VERTEX
  8
0
 10
43.9496
 20
33.0138
 30
0.0
 40
0
 41
0
  0
VERTEX
  8
0
 10
44.0072
 20
33.0793
 30
0.0
 40
0
 41
0
  0
VERTEX
  8
0
 10
44.0794
 20
33.1343
 30
0.0
 40
0
 41
0
  0
VERTEX
  8
0
 10
44.1431
 20
33.1679
 30
0.0
 40
0
 41
0
  0
VERTEX
  8
0
 10
44.1653
 20
33.1764
 30
0.0
 40
0
 41
0
  0
VERTEX
  8
0
 10
44.1825
 20
33.1828
 30
0.0
 40
0
 41
0
  0
VERTEX
  8
0
 10
44.2381
 20
33.1911
 30
0.0
 40
0
 41
0
  0
VERTEX
  8
0
 10
44.3235
 20
33.1901
 30
0.0
 40
0
 41
0
  0
VERTEX
  8
0
 10
44.4096
 20
33.1743
 30
0.0
 40
0
 41
0
  0
VERTEX
  8
0
 10
44.4672
 20
33.1542
 30
0.0
 40
0
 41
0
  0
VERTEX
  8
0
 10
44.4847
 20
33.1444
 30
0.0
 40
0
 41
0
  0
SEQEND
 8
0
  0
POLYLINE
  8
0
 62
     0
 66
     1
 10
0
 20
0
 30
0.0
 70
     1
 40
0
 41
0
  0
VERTEX
  8
0
 10
27.6944
 20
42.8736
 30
0.0
 40
0
 41
0
  0
VERTEX
  8
0
 10
27.6565
 20
42.8678
 30
0.0
 40
0
 41
0
  0
VERTEX
  8
0
 10
27.5442
 20
42.8408
 30
0.0
 40
0
 41
0
  0
VERTEX
  8
0
 10
27.3994
 20
42.7899
 30
0.0
 40
0
 41
0
  0
VERTEX
  8
0
 10
27.2622
 20
42.7221
 30
0.0
 40
0
 41
0
  0
VERTEX
  8
0
 10
27.1339
 20
42.6388
 30
0.0
 40
0
 41
0
  0
VERTEX
  8
0
 10
27.0161
 20
42.541
 30
0.0
 40
0
 41
0
  0
VERTEX
  8
0
 10
26.9107
 20
42.43
 30
0.0
 40
0
 41
0
  0
VERTEX
  8
0
 10
26.819
 20
42.3072
 30
0.0
 40
0
 41
0
  0
VERTEX
  8
0
 10
26.7599
 20
42.2081
 30
0.0
 40
0
 41
0
  0
VERTEX
  8
0
 10
26.7431
 20
42.1736
 30
0.0
 40
0
 41
0
  0
VERTEX
  8
0
 10
26.7265
 20
42.1401
 30
0.0
 40
0
 41
0
  0
VERTEX
  8
0
 10
26.6824
 20
42.0371
 30
0.0
 40
0
 41
0
  0
VERTEX
  8
0
 10
26.6449
 20
41.9126
 30
0.0
 40
0
 41
0
  0
VERTEX
  8
0
 10
26.626
 20
41.7782
 30
0.0
 40
0
 41
0
  0
VERTEX
  8
0
 10
26.6208
 20
41.6529
 30
0.0
 40
0
 41
0
  0
VERTEX
  8
0
 10
26.6208
 20
41.6111
 30
0.0
 40
0
 41
0
  0
VERTEX
  8
0
 10
26.6206
 20
41.5701
 30
0.0
 40
0
 41
0
  0
VERTEX
  8
0
 10
26.6251
 20
41.4474
 30
0.0
 40
0
 41
0
  0
VERTEX
  8
0
 10
26.6431
 20
41.315
 30
0.0
 40
0
 41
0
  0
VERTEX
  8
0
 10
26.6786
 20
41.1924
 30
0.0
 40
0
 41
0
  0
VERTEX
  8
0
 10
26.7206
 20
41.0913
 30
0.0
 40
0
 41
0
  0
VERTEX
  8
0
 10
26.7361
 20
41.0583
 30
0.0
 40
0
 41
0
  0
VERTEX
  8
0
 10
26.7479
 20
41.0339
 30
0.0
 40
0
 41
0
  0
VERTEX
  8
0
 10
26.7858
 20
40.9615
 30
0.0
 40
0
 41
0
  0
VERTEX
  8
0
 10
26.8361
 20
40.88
 30
0.0
 40
0
 41
0
  0
VERTEX
  8
0
 10
26.8947
 20
40.8031
 30
0.0
 40
0
 41
0
  0
VERTEX
  8
0
 10
26.9501
 20
40.7399
 30
0.0
 40
0
 41
0
  0
VERTEX
  8
0
 10
26.9694
 20
40.7194
 30
0.0
 40
0
 41
0
  0
VERTEX
  8
0
 10
27.0008
 20
40.6862
 30
0.0
 40
0
 41
0
  0
VERTEX
  8
0
 10
27.1057
 20
40.5962
 30
0.0
 40
0
 41
0
  0
VERTEX
  8
0
 10
27.2581
 20
40.4956
 30
0.0
 40
0
 41
0
  0
VERTEX
  8
0
 10
27.4235
 20
40.4182
 30
0.0
 40
0
 41
0
  0
VERTEX
  8
0
 10
27.5986
 20
40.3651
 30
0.0
 40
0
 41
0
  0
VERTEX
  8
0
 10
27.7803
 20
40.3369
 30
0.0
 40
0
 41
0
  0
VERTEX
  8
0
 10
27.9651
 20
40.3346
 30
0.0
 40
0
 41
0
  0
VERTEX
  8
0
 10
28.15
 20
40.3585
 30
0.0
 40
0
 41
0
  0
VERTEX
  8
0
 10
28.2876
 20
40.3936
 30
0.0
 40
0
 41
0
  0
VERTEX
  8
0
 10
28.3319
 20
40.4097
 30
0.0
 40
0
 41
0
  0
VERTEX
  8
0
 10
28.4347
 20
40.4472
 30
0.0
 40
0
 41
0
  0
VERTEX
  8
0
 10
31.0347
 20
37.8472
 30
0.0
 40
0
 41
0
  0
VERTEX
  8
0
 10
34.9028
 20
37.8472
 30
0.0
 40
0
 41
0
  0
VERTEX
  8
0
 10
34.9028
 20
35.0278
 30
0.0
 40
0
 41
0
  0
VERTEX
  8
0
 10
36.6069
 20
35.0278
 30
0.0
 40
0
 41
0
  0
VERTEX
  8
0
 10
36.6306
 20
34.9694
 30
0.0
 40
0
 41
0
  0
VERTEX
  8
0
 10
36.6447
 20
34.9315
 30
0.0
 40
0
 41
0
  0
VERTEX
  8
0
 10
36.7029
 20
34.8236
 30
0.0
 40
0
 41
0
  0
VERTEX
  8
0
 10
36.8076
 20
34.6735
 30
0.0
 40
0
 41
0
  0
VERTEX
  8
0
 10
36.9321
 20
34.5344
 30
0.0
 40
0
 41
0
  0
VERTEX
  8
0
 10
37.0288
 20
34.4472
 30
0.0
 40
0
 41
0
  0
VERTEX
  8
0
 10
37.0639
 20
34.4222
 30
0.0
 40
0
 41
0
  0
VERTEX
  8
0
 10
37.0868
 20
34.4058
 30
0.0
 40
0
 41
0
  0
VERTEX
  8
0
 10
37.1592
 20
34.3618
 30
0.0
 40
0
 41
0
  0
VERTEX
  8
0
 10
37.2696
 20
34.3049
 30
0.0
 40
0
 41
0
  0
VERTEX
  8
0
 10
37.3844
 20
34.2562
 30
0.0
 40
0
 41
0
  0
VERTEX
  8
0
 10
37.4654
 20
34.2282
 30
0.0
 40
0
 41
0
  0
VERTEX
  8
0
 10
37.4931
 20
34.2208
 30
0.0
 40
0
 41
0
  0
VERTEX
  8
0
 10
37.5275
 20
34.2117
 30
0.0
 40
0
 41
0
  0
VERTEX
  8
0
 10
37.6342
 20
34.1964
 30
0.0
 40
0
 41
0
  0
VERTEX
  8
0
 10
37.8008
 20
34.1879
 30
0.0
 40
0
 41
0
  0
VERTEX
  8
0
 10
37.9697
 20
34.1954
 30
0.0
 40
0
 41
0
  0
VERTEX
  8
0
 10
38.0817
 20
34.2104
 30
0.0
 40
0
 41
0
  0
VERTEX
  8
0
 10
38.1181
 20
34.2194
 30
0.0
 40
0
 41
0
  0
VERTEX
  8
0
 10
38.1619
 20
34.2304
 30
0.0
 40
0
 41
0
  0
VERTEX
  8
0
 10
38.2906
 20
34.276
 30
0.0
 40
0
 41
0
  0
VERTEX
  8
0
 10
38.4515
 20
34.3554
 30
0.0
 40
0
 41
0
  0
VERTEX
  8
0
 10
38.5989
 20
34.4558
 30
0.0
 40
0
 41
0
  0
VERTEX
  8
0
 10
38.7307
 20
34.575
 30
0.0
 40
0
 41
0
  0
VERTEX
  8
0
 10
38.8449
 20
34.7108
 30
0.0
 40
0
 41
0
  0
VERTEX
  8
0
 10
38.9393
 20
34.8613
 30
0.0
 40
0
 41
0
  0
VERTEX
  8
0
 10
39.0121
 20
35.024
 30
0.0
 40
0
 41
0
  0
VERTEX
  8
0
 10
39.0521
 20
35.1533
 30
0.0
 40
0
 41
0
  0
VERTEX
  8
0
 10
39.0611
 20
35.1972
 30
0.0
 40
0
 41
0
  0
VERTEX
  8
0
 10
39.0674
 20
35.2268
 30
0.0
 40
0
 41
0
  0
VERTEX
  8
0
 10
39.0775
 20
35.3175
 30
0.0
 40
0
 41
0
  0
VERTEX
  8
0
 10
39.0829
 20
35.4583
 30
0.0
 40
0
 41
0
  0
VERTEX
  8
0
 10
39.0775
 20
35.5992
 30
0.0
 40
0
 41
0
  0
VERTEX
  8
0
 10
39.0674
 20
35.6899
 30
0.0
 40
0
 41
0
  0
VERTEX
  8
0
 10
39.0611
 20
35.7194
 30
0.0
 40
0
 41
0
  0
VERTEX
  8
0
 10
39.0542
 20
35.7528
 30
0.0
 40
0
 41
0
  0
VERTEX
  8
0
 10
38.999
 20
35.9279
 30
0.0
 40
0
 41
0
  0
VERTEX
  8
0
 10
38.9239
 20
36.0956
 30
0.0
 40
0
 41
0
  0
VERTEX
  8
0
 10
38.9069
 20
36.125
 30
0.0
 40
0
 41
0
  0
VERTEX
  8
0
 10
38.8989
 20
36.1389
 30
0.0
 40
0
 41
0
  0
VERTEX
  8
0
 10
38.8713
 20
36.1788
 30
0.0
 40
0
 41
0
  0
VERTEX
  8
0
 10
38.8233
 20
36.239
 30
0.0
 40
0
 41
0
  0
VERTEX
  8
0
 10
38.7664
 20
36.3026
 30
0.0
 40
0
 41
0
  0
VERTEX
  8
0
 10
38.7035
 20
36.3668
 30
0.0
 40
0
 41
0
  0
VERTEX
  8
0
 10
38.6376
 20
36.4285
 30
0.0
 40
0
 41
0
  0
VERTEX
  8
0
 10
38.5722
 20
36.4846
 30
0.0
 40
0
 41
0
  0
VERTEX
  8
0
 10
38.5099
 20
36.5321
 30
0.0
 40
0
 41
0
  0
VERTEX
  8
0
 10
38.4685
 20
36.5599
 30
0.0
 40
0
 41
0
  0
VERTEX
  8
0
 10
38.4542
 20
36.5681
 30
0.0
 40
0
 41
0
  0
VERTEX
  8
0
 10
38.4136
 20
36.5908
 30
0.0
 40
0
 41
0
  0
VERTEX
  8
0
 10
38.2864
 20
36.6487
 30
0.0
 40
0
 41
0
  0
VERTEX
  8
0
 10
38.1164
 20
36.7021
 30
0.0
 40
0
 41
0
  0
VERTEX
  8
0
 10
37.9374
 20
36.7294
 30
0.0
 40
0
 41
0
  0
VERTEX
  8
0
 10
37.7914
 20
36.7342
 30
0.0
 40
0
 41
0
  0
VERTEX
  8
0
 10
37.7431
 20
36.7319
 30
0.0
 40
0
 41
0
  0
VERTEX
  8
0
 10
37.6992
 20
36.7301
 30
0.0
 40
0
 41
0
  0
VERTEX
  8
0
 10
37.5681
 20
36.7128
 30
0.0
 40
0
 41
0
  0
VERTEX
  8
0
 10
37.4007
 20
36.6708
 30
0.0
 40
0
 41
0
  0
VERTEX
  8
0
 10
37.2428
 20
36.6074
 30
0.0
 40
0
 41
0
  0
VERTEX
  8
0
 10
37.0961
 20
36.5236
 30
0.0
 40
0
 41
0
  0
VERTEX
  8
0
 10
36.9626
 20
36.4208
 30
0.0
 40
0
 41
0
  0
VERTEX
  8
0
 10
36.8442
 20
36.3004
 30
0.0
 40
0
 41
0
  0
VERTEX
  8
0
 10
36.7425
 20
36.1633
 30
0.0
 40
0
 41
0
  0
VERTEX
  8
0
 10
36.6776
 20
36.0504
 30
0.0
 40
0
 41
0
  0
VERTEX
  8
0
 10
36.6597
 20
36.0111
 30
0.0
 40
0
 41
0
  0
VERTEX
  8
0
 10
36.6042
 20
35.8889
 30
0.0
 40
0
 41
0
  0
VERTEX
  8
0
 10
35.75
 20
35.8889
 30
0.0
 40
0
 41
0
  0
VERTEX
  8
0
 10
35.75
 20
38.7083
 30
0.0
 40
0
 41
0
  0
VERTEX
  8
0
 10
31.3958
 20
38.7083
 30
0.0
 40
0
 41
0
  0
VERTEX
  8
0
 10
29.0444
 20
41.0597
 30
0.0
 40
0
 41
0
  0
VERTEX
  8
0
 10
29.0722
 20
41.1236
 30
0.0
 40
0
 41
0
  0
VERTEX
  8
0
 10
29.0758
 20
41.1319
 30
0.0
 40
0
 41
0
  0
VERTEX
  8
0
 10
29.0851
 20
41.1575
 30
0.0
 40
0
 41
0
  0
VERTEX
  8
0
 10
29.1001
 20
41.2032
 30
0.0
 40
0
 41
0
  0
VERTEX
  8
0
 10
29.1154
 20
41.2544
 30
0.0
 40
0
 41
0
  0
VERTEX
  8
0
 10
29.126
 20
41.2928
 30
0.0
 40
0
 41
0
  0
VERTEX
  8
0
 10
29.1292
 20
41.3056
 30
0.0
 40
0
 41
0
  0
VERTEX
  8
0
 10
29.1374
 20
41.339
 30
0.0
 40
0
 41
0
  0
VERTEX
  8
0
 10
29.151
 20
41.4419
 30
0.0
 40
0
 41
0
  0
VERTEX
  8
0
 10
29.1594
 20
41.6033
 30
0.0
 40
0
 41
0
  0
VERTEX
  8
0
 10
29.1543
 20
41.7624
 30
0.0
 40
0
 41
0
  0
VERTEX
  8
0
 10
29.1428
 20
41.8601
 30
0.0
 40
0
 41
0
  0
VERTEX
  8
0
 10
29.1347
 20
41.8917
 30
0.0
 40
0
 41
0
  0
VERTEX
  8
0
 10
29.1236
 20
41.9362
 30
0.0
 40
0
 41
0
  0
VERTEX
  8
0
 10
29.0792
 20
42.0674
 30
0.0
 40
0
 41
0
  0
VERTEX
  8
0
 10
29.004
 20
42.2292
 30
0.0
 40
0
 41
0
  0
VERTEX
  8
0
 10
28.9103
 20
42.3758
 30
0.0
 40
0
 41
0
  0
VERTEX
  8
0
 10
28.7988
 20
42.5067
 30
0.0
 40
0
 41
0
  0
VERTEX
  8
0
 10
28.6707
 20
42.6203
 30
0.0
 40
0
 41
0
  0
VERTEX
  8
0
 10
28.5271
 20
42.716
 30
0.0
 40
0
 41
0
  0
VERTEX
  8
0
 10
28.3689
 20
42.7924
 30
0.0
 40
0
 41
0
  0
VERTEX
  8
0
 10
28.2408
 20
42.8374
 30
0.0
 40
0
 41
0
  0
VERTEX
  8
0
 10
28.1972
 20
42.8486
 30
0.0
 40
0
 41
0
  0
VERTEX
  8
0
 10
28.1693
 20
42.8557
 30
0.0
 40
0
 41
0
  0
VERTEX
  8
0
 10
28.0835
 20
42.8688
 30
0.0
 40
0
 41
0
  0
VERTEX
  8
0
 10
27.9469
 20
42.8804
 30
0.0
 40
0
 41
0
  0
VERTEX
  8
0
 10
27.8097
 20
42.8825
 30
0.0
 40
0
 41
0
  0
VERTEX
  8
0
 10
27.7229
 20
42.8779
 30
0.0
 40
0
 41
0
  0
VERTEX
  8
0
 10
27.6944
 20
42.8736
 30
0.0
 40
0
 41
0
  0
SEQEND
 8
0
  0
POLYLINE
  8
0
 62
     0
 66
     1
 10
0
 20
0
 30
0.0
 70
     1
 40
0
 41
0
  0
VERTEX
  8
0
 10
28.0597
 20
41.9889
 30
0.0
 40
0
 41
0
  0
VERTEX
  8
0
 10
28.0878
 20
41.9764
 30
0.0
 40
0
 41
0
  0
VERTEX
  8
0
 10
28.1638
 20
41.9204
 30
0.0
 40
0
 41
0
  0
VERTEX
  8
0
 10
28.2425
 20
41.8236
 30
0.0
 40
0
 41
0
  0
VERTEX
  8
0
 10
28.2904
 20
41.7081
 30
0.0
 40
0
 41
0
  0
VERTEX
  8
0
 10
28.3036
 20
41.6142
 30
0.0
 40
0
 41
0
  0
VERTEX
  8
0
 10
28.3014
 20
41.5833
 30
0.0
 40
0
 41
0
  0
VERTEX
  8
0
 10
28.3
 20
41.5631
 30
0.0
 40
0
 41
0
  0
VERTEX
  8
0
 10
28.2883
 20
41.5025
 30
0.0
 40
0
 41
0
  0
VERTEX
  8
0
 10
28.2617
 20
41.4283
 30
0.0
 40
0
 41
0
  0
VERTEX
  8
0
 10
28.2228
 20
41.3621
 30
0.0
 40
0
 41
0
  0
VERTEX
  8
0
 10
28.1728
 20
41.305
 30
0.0
 40
0
 41
0
  0
VERTEX
  8
0
 10
28.1131
 20
41.2586
 30
0.0
 40
0
 41
0
  0
VERTEX
  8
0
 10
28.0449
 20
41.2238
 30
0.0
 40
0
 41
0
  0
VERTEX
  8
0
 10
27.9697
 20
41.2019
 30
0.0
 40
0
 41
0
  0
VERTEX
  8
0
 10
27.909
 20
41.1944
 30
0.0
 40
0
 41
0
  0
VERTEX
  8
0
 10
27.8889
 20
41.1944
 30
0.0
 40
0
 41
0
  0
VERTEX
  8
0
 10
27.8678
 20
41.1944
 30
0.0
 40
0
 41
0
  0
VERTEX
  8
0
 10
27.8046
 20
41.2013
 30
0.0
 40
0
 41
0
  0
VERTEX
  8
0
 10
27.7304
 20
41.2229
 30
0.0
 40
0
 41
0
  0
VERTEX
  8
0
 10
27.6621
 20
41.2613
 30
0.0
 40
0
 41
0
  0
VERTEX
  8
0
 10
27.6111
 20
41.3026
 30
0.0
 40
0
 41
0
  0
VERTEX
  8
0
 10
27.5958
 20
41.3181
 30
0.0
 40
0
 41
0
  0
VERTEX
  8
0
 10
27.5792
 20
41.3349
 30
0.0
 40
0
 41
0
  0
VERTEX
  8
0
 10
27.5344
 20
41.3907
 30
0.0
 40
0
 41
0
  0
VERTEX
  8
0
 10
27.4953
 20
41.4644
 30
0.0
 40
0
 41
0
  0
VERTEX
  8
0
 10
27.4761
 20
41.5453
 30
0.0
 40
0
 41
0
  0
VERTEX
  8
0
 10
27.4733
 20
41.6157
 30
0.0
 40
0
 41
0
  0
VERTEX
  8
0
 10
27.475
 20
41.6389
 30
0.0
 40
0
 41
0
  0
VERTEX
  8
0
 10
27.4768
 20
41.6647
 30
0.0
 40
0
 41
0
  0
VERTEX
  8
0
 10
27.4953
 20
41.7413
 30
0.0
 40
0
 41
0
  0
VERTEX
  8
0
 10
27.5381
 20
41.8313
 30
0.0
 40
0
 41
0
  0
VERTEX
  8
0
 10
27.5996
 20
41.9068
 30
0.0
 40
0
 41
0
  0
VERTEX
  8
0
 10
27.6762
 20
41.9656
 30
0.0
 40
0
 41
0
  0
VERTEX
  8
0
 10
27.7642
 20
42.0053
 30
0.0
 40
0
 41
0
  0
VERTEX
  8
0
 10
27.8599
 20
42.0239
 30
0.0
 40
0
 41
0
  0
VERTEX
  8
0
 10
27.9597
 20
42.0192
 30
0.0
 40
0
 41
0
  0
VERTEX
  8
0
 10
28.036
 20
41.9994
 30
0.0
 40
0
 41
0
  0
VERTEX
  8
0
 10
28.0597
 20
41.9889
 30
0.0
 40
0
 41
0
  0
SEQEND
 8
0
  0
POLYLINE
  8
0
 62
     0
 66
     1
 10
0
 20
0
 30
0.0
 70
     1
 40
0
 41
0
  0
VERTEX
  8
0
 10
37.9806
 20
35.8417
 30
0.0
 40
0
 41
0
  0
VERTEX
  8
0
 10
38.0051
 20
35.8303
 30
0.0
 40
0
 41
0
  0
VERTEX
  8
0
 10
38.0729
 20
35.7835
 30
0.0
 40
0
 41
0
  0
VERTEX
  8
0
 10
38.1443
 20
35.7079
 30
0.0
 40
0
 41
0
  0
VERTEX
  8
0
 10
38.194
 20
35.6196
 30
0.0
 40
0
 41
0
  0
VERTEX
  8
0
 10
38.2214
 20
35.5235
 30
0.0
 40
0
 41
0
  0
VERTEX
  8
0
 10
38.2253
 20
35.4242
 30
0.0
 40
0
 41
0
  0
VERTEX
  8
0
 10
38.2054
 20
35.3263
 30
0.0
 40
0
 41
0
  0
VERTEX
  8
0
 10
38.1606
 20
35.2347
 30
0.0
 40
0
 41
0
  0
VERTEX
  8
0
 10
38.1101
 20
35.1717
 30
0.0
 40
0
 41
0
  0
VERTEX
  8
0
 10
38.0903
 20
35.1542
 30
0.0
 40
0
 41
0
  0
VERTEX
  8
0
 10
38.0747
 20
35.1406
 30
0.0
 40
0
 41
0
  0
VERTEX
  8
0
 10
38.0249
 20
35.1032
 30
0.0
 40
0
 41
0
  0
VERTEX
  8
0
 10
37.9624
 20
35.0707
 30
0.0
 40
0
 41
0
  0
VERTEX
  8
0
 10
37.8943
 20
35.0536
 30
0.0
 40
0
 41
0
  0
VERTEX
  8
0
 10
37.8329
 20
35.0486
 30
0.0
 40
0
 41
0
  0
VERTEX
  8
0
 10
37.8125
 20
35.0486
 30
0.0
 40
0
 41
0
  0
VERTEX
  8
0
 10
37.7976
 20
35.0486
 30
0.0
 40
0
 41
0
  0
VERTEX
  8
0
 10
37.7532
 20
35.0501
 30
0.0
 40
0
 41
0
  0
VERTEX
  8
0
 10
37.7092
 20
35.056
 30
0.0
 40
0
 41
0
  0
VERTEX
  8
0
 10
37.6717
 20
35.0674
 30
0.0
 40
0
 41
0
  0
VERTEX
  8
0
 10
37.6417
 20
35.0811
 30
0.0
 40
0
 41
0
  0
VERTEX
  8
0
 10
37.6319
 20
35.0861
 30
0.0
 40
0
 41
0
  0
VERTEX
  8
0
 10
37.599
 20
35.1035
 30
0.0
 40
0
 41
0
  0
VERTEX
  8
0
 10
37.5114
 20
35.1769
 30
0.0
 40
0
 41
0
  0
VERTEX
  8
0
 10
37.4306
 20
35.2958
 30
0.0
 40
0
 41
0
  0
VERTEX
  8
0
 10
37.3944
 20
35.4314
 30
0.0
 40
0
 41
0
  0
VERTEX
  8
0
 10
37.3986
 20
35.5389
 30
0.0
 40
0
 41
0
  0
VERTEX
  8
0
 10
37.4083
 20
35.5722
 30
0.0
 40
0
 41
0
  0
VERTEX
  8
0
 10
37.4146
 20
35.5943
 30
0.0
 40
0
 41
0
  0
VERTEX
  8
0
 10
37.4437
 20
35.6575
 30
0.0
 40
0
 41
0
  0
VERTEX
  8
0
 10
37.4958
 20
35.731
 30
0.0
 40
0
 41
0
  0
VERTEX
  8
0
 10
37.5612
 20
35.7911
 30
0.0
 40
0
 41
0
  0
VERTEX
  8
0
 10
37.6372
 20
35.8367
 30
0.0
 40
0
 41
0
  0
VERTEX
  8
0
 10
37.7201
 20
35.866
 30
0.0
 40
0
 41
0
  0
VERTEX
  8
0
 10
37.8071
 20
35.8775
 30
0.0
 40
0
 41
0
  0
VERTEX
  8
0
 10
37.895
 20
35.87
 30
0.0
 40
0
 41
0
  0
VERTEX
  8
0
 10
37.9603
 20
35.8513
 30
0.0
 40
0
 41
0
  0
VERTEX
  8
0
 10
37.9806
 20
35.8417
 30
0.0
 40
0
 41
0
  0
SEQEND
 8
0
  0
POLYLINE
  8
0
 62
     0
 66
     1
 10
0
 20
0
 30
0.0
 70
     1
 40
0
 41
0
  0
VERTEX
  8
0
 10
27.6403
 20
39.0694
 30
0.0
 40
0
 41
0
  0
VERTEX
  8
0
 10
27.6204
 20
39.0651
 30
0.0
 40
0
 41
0
  0
VERTEX
  8
0
 10
27.5615
 20
39.0492
 30
0.0
 40
0
 41
0
  0
VERTEX
  8
0
 10
27.4749
 20
39.0213
 30
0.0
 40
0
 41
0
  0
VERTEX
  8
0
 10
27.3889
 20
38.9886
 30
0.0
 40
0
 41
0
  0
VERTEX
  8
0
 10
27.3312
 20
38.9636
 30
0.0
 40
0
 41
0
  0
VERTEX
  8
0
 10
27.3125
 20
38.9542
 30
0.0
 40
0
 41
0
  0
VERTEX
  8
0
 10
27.2643
 20
38.9303
 30
0.0
 40
0
 41
0
  0
VERTEX
  8
0
 10
27.1292
 20
38.8396
 30
0.0
 40
0
 41
0
  0
VERTEX
  8
0
 10
26.9615
 20
38.6888
 30
0.0
 40
0
 41
0
  0
VERTEX
  8
0
 10
26.8208
 20
38.5138
 30
0.0
 40
0
 41
0
  0
VERTEX
  8
0
 10
26.7387
 20
38.3754
 30
0.0
 40
0
 41
0
  0
VERTEX
  8
0
 10
26.7181
 20
38.3264
 30
0.0
 40
0
 41
0
  0
VERTEX
  8
0
 10
26.6833
 20
38.2431
 30
0.0
 40
0
 41
0
  0
VERTEX
  8
0
 10
24.1986
 20
38.2389
 30
0.0
 40
0
 41
0
  0
VERTEX
  8
0
 10
21.7153
 20
38.2361
 30
0.0
 40
0
 41
0
  0
VERTEX
  8
0
 10
20.1583
 20
36.6792
 30
0.0
 40
0
 41
0
  0
VERTEX
  8
0
 10
20.0764
 20
36.7014
 30
0.0
 40
0
 41
0
  0
VERTEX
  8
0
 10
20.046
 20
36.7096
 30
0.0
 40
0
 41
0
  0
VERTEX
  8
0
 10
19.9518
 20
36.7235
 30
0.0
 40
0
 41
0
  0
VERTEX
  8
0
 10
19.8014
 20
36.7329
 30
0.0
 40
0
 41
0
  0
VERTEX
  8
0
 10
19.6478
 20
36.7289
 30
0.0
 40
0
 41
0
  0
VERTEX
  8
0
 10
19.5468
 20
36.7182
 30
0.0
 40
0
 41
0
  0
VERTEX
  8
0
 10
19.5139
 20
36.7111
 30
0.0
 40
0
 41
0
  0
VERTEX
  8
0
 10
19.4628
 20
36.7006
 30
0.0
 40
0
 41
0
  0
VERTEX
  8
0
 10
19.3131
 20
36.6528
 30
0.0
 40
0
 41
0
  0
VERTEX
  8
0
 10
19.1289
 20
36.5658
 30
0.0
 40
0
 41
0
  0
VERTEX
  8
0
 10
18.9636
 20
36.4528
 30
0.0
 40
0
 41
0
  0
VERTEX
  8
0
 10
18.8194
 20
36.3164
 30
0.0
 40
0
 41
0
  0
VERTEX
  8
0
 10
18.6988
 20
36.1589
 30
0.0
 40
0
 41
0
  0
VERTEX
  8
0
 10
18.6037
 20
35.9831
 30
0.0
 40
0
 41
0
  0
VERTEX
  8
0
 10
18.5367
 20
35.7912
 30
0.0
 40
0
 41
0
  0
VERTEX
  8
0
 10
18.5051
 20
35.6378
 30
0.0
 40
0
 41
0
  0
VERTEX
  8
0
 10
18.5
 20
35.5861
 30
0.0
 40
0
 41
0
  0
VERTEX
  8
0
 10
18.4964
 20
35.5489
 30
0.0
 40
0
 41
0
  0
VERTEX
  8
0
 10
18.494
 20
35.436
 30
0.0
 40
0
 41
0
  0
VERTEX
  8
0
 10
18.505
 20
35.2885
 30
0.0
 40
0
 41
0
  0
VERTEX
  8
0
 10
18.5326
 20
35.1447
 30
0.0
 40
0
 41
0
  0
VERTEX
  8
0
 10
18.5761
 20
35.006
 30
0.0
 40
0
 41
0
  0
VERTEX
  8
0
 10
18.6353
 20
34.8733
 30
0.0
 40
0
 41
0
  0
VERTEX
  8
0
 10
18.7096
 20
34.7478
 30
0.0
 40
0
 41
0
  0
VERTEX
  8
0
 10
18.7983
 20
34.631
 30
0.0
 40
0
 41
0
  0
VERTEX
  8
0
 10
18.8742
 20
34.5489
 30
0.0
 40
0
 41
0
  0
VERTEX
  8
0
 10
18.9014
 20
34.5236
 30
0.0
 40
0
 41
0
  0
VERTEX
  8
0
 10
18.9313
 20
34.496
 30
0.0
 40
0
 41
0
  0
VERTEX
  8
0
 10
19.0278
 20
34.4204
 30
0.0
 40
0
 41
0
  0
VERTEX
  8
0
 10
19.1638
 20
34.3356
 30
0.0
 40
0
 41
0
  0
VERTEX
  8
0
 10
19.3097
 20
34.2688
 30
0.0
 40
0
 41
0
  0
VERTEX
  8
0
 10
19.4268
 20
34.2294
 30
0.0
 40
0
 41
0
  0
VERTEX
  8
0
 10
19.4667
 20
34.2194
 30
0.0
 40
0
 41
0
  0
VERTEX
  8
0
 10
19.5018
 20
34.211
 30
0.0
 40
0
 41
0
  0
VERTEX
  8
0
 10
19.6099
 20
34.1958
 30
0.0
 40
0
 41
0
  0
VERTEX
  8
0
 10
19.7701
 20
34.1878
 30
0.0
 40
0
 41
0
  0
VERTEX
  8
0
 10
19.9303
 20
34.1954
 30
0.0
 40
0
 41
0
  0
VERTEX
  8
0
 10
20.0385
 20
34.2107
 30
0.0
 40
0
 41
0
  0
VERTEX
  8
0
 10
20.0736
 20
34.2194
 30
0.0
 40
0
 41
0
  0
VERTEX
  8
0
 10
20.1312
 20
34.2339
 30
0.0
 40
0
 41
0
  0
VERTEX
  8
0
 10
20.2989
 20
34.2979
 30
0.0
 40
0
 41
0
  0
VERTEX
  8
0
 10
20.5033
 20
34.4146
 30
0.0
 40
0
 41
0
  0
VERTEX
  8
0
 10
20.6824
 20
34.5667
 30
0.0
 40
0
 41
0
  0
VERTEX
  8
0
 10
20.7992
 20
34.7022
 30
0.0
 40
0
 41
0
  0
VERTEX
  8
0
 10
20.8319
 20
34.7514
 30
0.0
 40
0
 41
0
  0
VERTEX
  8
0
 10
20.8581
 20
34.7904
 30
0.0
 40
0
 41
0
  0
VERTEX
  8
0
 10
20.9256
 20
34.915
 30
0.0
 40
0
 41
0
  0
VERTEX
  8
0
 10
20.991
 20
35.0853
 30
0.0
 40
0
 41
0
  0
VERTEX
  8
0
 10
21.0292
 20
35.2668
 30
0.0
 40
0
 41
0
  0
VERTEX
  8
0
 10
21.0417
 20
35.4147
 30
0.0
 40
0
 41
0
  0
VERTEX
  8
0
 10
21.0417
 20
35.4639
 30
0.0
 40
0
 41
0
  0
VERTEX
  8
0
 10
21.0417
 20
35.5049
 30
0.0
 40
0
 41
0
  0
VERTEX
  8
0
 10
21.0333
 20
35.6278
 30
0.0
 40
0
 41
0
  0
VERTEX
  8
0
 10
21.0076
 20
35.7788
 30
0.0
 40
0
 41
0
  0
VERTEX
  8
0
 10
20.9631
 20
35.9221
 30
0.0
 40
0
 41
0
  0
VERTEX
  8
0
 10
20.9167
 20
36.0285
 30
0.0
 40
0
 41
0
  0
VERTEX
  8
0
 10
20.8986
 20
36.0625
 30
0.0
 40
0
 41
0
  0
VERTEX
  8
0
 10
20.8514
 20
36.15
 30
0.0
 40
0
 41
0
  0
VERTEX
  8
0
 10
22.0903
 20
37.3889
 30
0.0
 40
0
 41
0
  0
VERTEX
  8
0
 10
24.3861
 20
37.3861
 30
0.0
 40
0
 41
0
  0
VERTEX
  8
0
 10
26.6833
 20
37.3819
 30
0.0
 40
0
 41
0
  0
VERTEX
  8
0
 10
26.7181
 20
37.2986
 30
0.0
 40
0
 41
0
  0
VERTEX
  8
0
 10
26.7396
 20
37.2472
 30
0.0
 40
0
 41
0
  0
VERTEX
  8
0
 10
26.8257
 20
37.1018
 30
0.0
 40
0
 41
0
  0
VERTEX
  8
0
 10
26.9725
 20
36.9233
 30
0.0
 40
0
 41
0
  0
VERTEX
  8
0
 10
27.15
 20
36.7713
 30
0.0
 40
0
 41
0
  0
VERTEX
  8
0
 10
27.2976
 20
36.6785
 30
0.0
 40
0
 41
0
  0
VERTEX
  8
0
 10
27.35
 20
36.6542
 30
0.0
 40
0
 41
0
  0
VERTEX
  8
0
 10
27.3883
 20
36.6361
 30
0.0
 40
0
 41
0
  0
VERTEX
  8
0
 10
27.5085
 20
36.5925
 30
0.0
 40
0
 41
0
  0
VERTEX
  8
0
 10
27.6739
 20
36.5533
 30
0.0
 40
0
 41
0
  0
VERTEX
  8
0
 10
27.8442
 20
36.5368
 30
0.0
 40
0
 41
0
  0
VERTEX
  8
0
 10
27.9738
 20
36.5388
 30
0.0
 40
0
 41
0
  0
VERTEX
  8
0
 10
28.0167
 20
36.5431
 30
0.0
 40
0
 41
0
  0
VERTEX
  8
0
 10
28.045
 20
36.546
 30
0.0
 40
0
 41
0
  0
VERTEX
  8
0
 10
28.1297
 20
36.5581
 30
0.0
 40
0
 41
0
  0
VERTEX
  8
0
 10
28.2294
 20
36.5799
 30
0.0
 40
0
 41
0
  0
VERTEX
  8
0
 10
28.3257
 20
36.6111
 30
0.0
 40
0
 41
0
  0
VERTEX
  8
0
 10
28.4026
 20
36.6426
 30
0.0
 40
0
 41
0
  0
VERTEX
  8
0
 10
28.4278
 20
36.6542
 30
0.0
 40
0
 41
0
  0
VERTEX
  8
0
 10
28.4712
 20
36.6742
 30
0.0
 40
0
 41
0
  0
VERTEX
  8
0
 10
28.5953
 20
36.7476
 30
0.0
 40
0
 41
0
  0
VERTEX
  8
0
 10
28.7446
 20
36.8635
 30
0.0
 40
0
 41
0
  0
VERTEX
  8
0
 10
28.8739
 20
36.999
 30
0.0
 40
0
 41
0
  0
VERTEX
  8
0
 10
28.9815
 20
37.1515
 30
0.0
 40
0
 41
0
  0
VERTEX
  8
0
 10
29.066
 20
37.3182
 30
0.0
 40
0
 41
0
  0
VERTEX
  8
0
 10
29.1254
 20
37.4963
 30
0.0
 40
0
 41
0
  0
VERTEX
  8
0
 10
29.1582
 20
37.6828
 30
0.0
 40
0
 41
0
  0
VERTEX
  8
0
 10
29.165
 20
37.8271
 30
0.0
 40
0
 41
0
  0
VERTEX
  8
0
 10
29.1625
 20
37.875
 30
0.0
 40
0
 41
0
  0
VERTEX
  8
0
 10
29.1592
 20
37.9335
 30
0.0
 40
0
 41
0
  0
VERTEX
  8
0
 10
29.1301
 20
38.1076
 30
0.0
 40
0
 41
0
  0
VERTEX
  8
0
 10
29.0603
 20
38.3222
 30
0.0
 40
0
 41
0
  0
VERTEX
  8
0
 10
28.9525
 20
38.5192
 30
0.0
 40
0
 41
0
  0
VERTEX
  8
0
 10
28.8468
 20
38.6572
 30
0.0
 40
0
 41
0
  0
VERTEX
  8
0
 10
28.8069
 20
38.6986
 30
0.0
 40
0
 41
0
  0
VERTEX
  8
0
 10
28.7788
 20
38.7281
 30
0.0
 40
0
 41
0
  0
VERTEX
  8
0
 10
28.6875
 20
38.81
 30
0.0
 40
0
 41
0
  0
VERTEX
  8
0
 10
28.561
 20
38.9006
 30
0.0
 40
0
 41
0
  0
VERTEX
  8
0
 10
28.4215
 20
38.9742
 30
0.0
 40
0
 41
0
  0
VERTEX
  8
0
 10
28.3039
 20
39.0217
 30
0.0
 40
0
 41
0
  0
VERTEX
  8
0
 10
28.2639
 20
39.0347
 30
0.0
 40
0
 41
0
  0
VERTEX
  8
0
 10
28.2465
 20
39.0404
 30
0.0
 40
0
 41
0
  0
VERTEX
  8
0
 10
28.194
 20
39.0556
 30
0.0
 40
0
 41
0
  0
VERTEX
  8
0
 10
28.1286
 20
39.0678
 30
0.0
 40
0
 41
0
  0
VERTEX
  8
0
 10
28.0457
 20
39.0742
 30
0.0
 40
0
 41
0
  0
VERTEX
  8
0
 10
27.9542
 20
39.0772
 30
0.0
 40
0
 41
0
  0
VERTEX
  8
0
 10
27.9236
 20
39.0778
 30
0.0
 40
0
 41
0
  0
VERTEX
  8
0
 10
27.9008
 20
39.0783
 30
0.0
 40
0
 41
0
  0
VERTEX
  8
0
 10
27.8324
 20
39.0786
 30
0.0
 40
0
 41
0
  0
VERTEX
  8
0
 10
27.7486
 20
39.0774
 30
0.0
 40
0
 41
0
  0
VERTEX
  8
0
 10
27.6814
 20
39.0742
 30
0.0
 40
0
 41
0
  0
VERTEX
  8
0
 10
27.6486
 20
39.0712
 30
0.0
 40
0
 41
0
  0
VERTEX
  8
0
 10
27.6403
 20
39.0694
 30
0.0
 40
0
 41
0
  0
SEQEND
 8
0
  0
POLYLINE
  8
0
 62
     0
 66
     1
 10
0
 20
0
 30
0.0
 70
     1
 40
0
 41
0
  0
VERTEX
  8
0
 10
28.0583
 20
38.1917
 30
0.0
 40
0
 41
0
  0
VERTEX
  8
0
 10
28.0763
 20
38.1842
 30
0.0
 40
0
 41
0
  0
VERTEX
  8
0
 10
28.1256
 20
38.151
 30
0.0
 40
0
 41
0
  0
VERTEX
  8
0
 10
28.1917
 20
38.0901
 30
0.0
 40
0
 41
0
  0
VERTEX
  8
0
 10
28.2474
 20
38.0196
 30
0.0
 40
0
 41
0
  0
VERTEX
  8
0
 10
28.2769
 20
37.9683
 30
0.0
 40
0
 41
0
  0
VERTEX
  8
0
 10
28.2833
 20
37.95
 30
0.0
 40
0
 41
0
  0
VERTEX
  8
0
 10
28.2922
 20
37.9236
 30
0.0
 40
0
 41
0
  0
VERTEX
  8
0
 10
28.3056
 20
37.8399
 30
0.0
 40
0
 41
0
  0
VERTEX
  8
0
 10
28.2975
 20
37.7321
 30
0.0
 40
0
 41
0
  0
VERTEX
  8
0
 10
28.2599
 20
37.63
 30
0.0
 40
0
 41
0
  0
VERTEX
  8
0
 10
28.2124
 20
37.5572
 30
0.0
 40
0
 41
0
  0
VERTEX
  8
0
 10
28.1931
 20
37.5361
 30
0.0
 40
0
 41
0
  0
VERTEX
  8
0
 10
28.1776
 20
37.5193
 30
0.0
 40
0
 41
0
  0
VERTEX
  8
0
 10
28.126
 20
37.474
 30
0.0
 40
0
 41
0
  0
VERTEX
  8
0
 10
28.0544
 20
37.4308
 30
0.0
 40
0
 41
0
  0
VERTEX
  8
0
 10
27.9763
 20
37.4056
 30
0.0
 40
0
 41
0
  0
VERTEX
  8
0
 10
27.9107
 20
37.3972
 30
0.0
 40
0
 41
0
  0
VERTEX
  8
0
 10
27.8889
 20
37.3972
 30
0.0
 40
0
 41
0
  0
VERTEX
  8
0
 10
27.8635
 20
37.3971
 30
0.0
 40
0
 41
0
  0
VERTEX
  8
0
 10
27.7872
 20
37.4096
 30
0.0
 40
0
 41
0
  0
VERTEX
  8
0
 10
27.6954
 20
37.4451
 30
0.0
 40
0
 41
0
  0
VERTEX
  8
0
 10
27.616
 20
37.5004
 30
0.0
 40
0
 41
0
  0
VERTEX
  8
0
 10
27.5515
 20
37.5719
 30
0.0
 40
0
 41
0
  0
VERTEX
  8
0
 10
27.5046
 20
37.656
 30
0.0
 40
0
 41
0
  0
VERTEX
  8
0
 10
27.4778
 20
37.7492
 30
0.0
 40
0
 41
0
  0
VERTEX
  8
0
 10
27.4735
 20
37.8479
 30
0.0
 40
0
 41
0
  0
VERTEX
  8
0
 10
27.4863
 20
37.9246
 30
0.0
 40
0
 41
0
  0
VERTEX
  8
0
 10
27.4944
 20
37.9486
 30
0.0
 40
0
 41
0
  0
VERTEX
  8
0
 10
27.4972
 20
37.9567
 30
0.0
 40
0
 41
0
  0
VERTEX
  8
0
 10
27.5081
 20
37.9797
 30
0.0
 40
0
 41
0
  0
VERTEX
  8
0
 10
27.5285
 20
38.0154
 30
0.0
 40
0
 41
0
  0
VERTEX
  8
0
 10
27.5531
 20
38.0515
 30
0.0
 40
0
 41
0
  0
VERTEX
  8
0
 10
27.5722
 20
38.0758
 30
0.0
 40
0
 41
0
  0
VERTEX
  8
0
 10
27.5792
 20
38.0833
 30
0.0
 40
0
 41
0
  0
VERTEX
  8
0
 10
27.6019
 20
38.1088
 30
0.0
 40
0
 41
0
  0
VERTEX
  8
0
 10
27.6843
 20
38.1726
 30
0.0
 40
0
 41
0
  0
VERTEX
  8
0
 10
27.8015
 20
38.2208
 30
0.0
 40
0
 41
0
  0
VERTEX
  8
0
 10
27.9274
 20
38.2275
 30
0.0
 40
0
 41
0
  0
VERTEX
  8
0
 10
28.0275
 20
38.205
 30
0.0
 40
0
 41
0
  0
VERTEX
  8
0
 10
28.0583
 20
38.1917
 30
0.0
 40
0
 41
0
  0
SEQEND
 8
0
  0
POLYLINE
  8
0
 62
     0
 66
     1
 10
0
 20
0
 30
0.0
 70
     1
 40
0
 41
0
  0
VERTEX
  8
0
 10
19.9292
 20
35.8472
 30
0.0
 40
0
 41
0
  0
VERTEX
  8
0
 10
19.9469
 20
35.839
 30
0.0
 40
0
 41
0
  0
VERTEX
  8
0
 10
19.9983
 20
35.8093
 30
0.0
 40
0
 41
0
  0
VERTEX
  8
0
 10
20.0551
 20
35.7644
 30
0.0
 40
0
 41
0
  0
VERTEX
  8
0
 10
20.1022
 20
35.71
 30
0.0
 40
0
 41
0
  0
VERTEX
  8
0
 10
20.1331
 20
35.6604
 30
0.0
 40
0
 41
0
  0
VERTEX
  8
0
 10
20.1417
 20
35.6431
 30
0.0
 40
0
 41
0
  0
VERTEX
  8
0
 10
20.1475
 20
35.6308
 30
0.0
 40
0
 41
0
  0
VERTEX
  8
0
 10
20.1638
 20
35.5935
 30
0.0
 40
0
 41
0
  0
VERTEX
  8
0
 10
20.1774
 20
35.5519
 30
0.0
 40
0
 41
0
  0
VERTEX
  8
0
 10
20.1842
 20
35.5101
 30
0.0
 40
0
 41
0
  0
VERTEX
  8
0
 10
20.1861
 20
35.4724
 30
0.0
 40
0
 41
0
  0
VERTEX
  8
0
 10
20.1861
 20
35.4597
 30
0.0
 40
0
 41
0
  0
VERTEX
  8
0
 10
20.1861
 20
35.4313
 30
0.0
 40
0
 41
0
  0
VERTEX
  8
0
 10
20.1699
 20
35.346
 30
0.0
 40
0
 41
0
  0
VERTEX
  8
0
 10
20.1236
 20
35.2428
 30
0.0
 40
0
 41
0
  0
VERTEX
  8
0
 10
20.0501
 20
35.1547
 30
0.0
 40
0
 41
0
  0
VERTEX
  8
0
 10
19.9789
 20
35.1
 30
0.0
 40
0
 41
0
  0
VERTEX
  8
0
 10
19.9528
 20
35.0861
 30
0.0
 40
0
 41
0
  0
VERTEX
  8
0
 10
19.9429
 20
35.0811
 30
0.0
 40
0
 41
0
  0
VERTEX
  8
0
 10
19.9122
 20
35.0674
 30
0.0
 40
0
 41
0
  0
VERTEX
  8
0
 10
19.8743
 20
35.056
 30
0.0
 40
0
 41
0
  0
VERTEX
  8
0
 10
19.8301
 20
35.0501
 30
0.0
 40
0
 41
0
  0
VERTEX
  8
0
 10
19.7857
 20
35.0486
 30
0.0
 40
0
 41
0
  0
VERTEX
  8
0
 10
19.7708
 20
35.0486
 30
0.0
 40
0
 41
0
  0
VERTEX
  8
0
 10
19.756
 20
35.0486
 30
0.0
 40
0
 41
0
  0
VERTEX
  8
0
 10
19.7115
 20
35.0501
 30
0.0
 40
0
 41
0
  0
VERTEX
  8
0
 10
19.6675
 20
35.056
 30
0.0
 40
0
 41
0
  0
VERTEX
  8
0
 10
19.63
 20
35.0674
 30
0.0
 40
0
 41
0
  0
VERTEX
  8
0
 10
19.6
 20
35.0811
 30
0.0
 40
0
 41
0
  0
VERTEX
  8
0
 10
19.5903
 20
35.0861
 30
0.0
 40
0
 41
0
  0
VERTEX
  8
0
 10
19.5635
 20
35.1004
 30
0.0
 40
0
 41
0
  0
VERTEX
  8
0
 10
19.4897
 20
35.1561
 30
0.0
 40
0
 41
0
  0
VERTEX
  8
0
 10
19.4161
 20
35.244
 30
0.0
 40
0
 41
0
  0
VERTEX
  8
0
 10
19.371
 20
35.3476
 30
0.0
 40
0
 41
0
  0
VERTEX
  8
0
 10
19.3556
 20
35.4358
 30
0.0
 40
0
 41
0
  0
VERTEX
  8
0
 10
19.3556
 20
35.4653
 30
0.0
 40
0
 41
0
  0
VERTEX
  8
0
 10
19.3558
 20
35.4942
 30
0.0
 40
0
 41
0
  0
VERTEX
  8
0
 10
19.3714
 20
35.5808
 30
0.0
 40
0
 41
0
  0
VERTEX
  8
0
 10
19.4161
 20
35.6819
 30
0.0
 40
0
 41
0
  0
VERTEX
  8
0
 10
19.4882
 20
35.7665
 30
0.0
 40
0
 41
0
  0
VERTEX
  8
0
 10
19.56
 20
35.8189
 30
0.0
 40
0
 41
0
  0
VERTEX
  8
0
 10
19.5861
 20
35.8319
 30
0.0
 40
0
 41
0
  0
VERTEX
  8
0
 10
19.5976
 20
35.8378
 30
0.0
 40
0
 41
0
  0
VERTEX
  8
0
 10
19.6331
 20
35.8539
 30
0.0
 40
0
 41
0
  0
VERTEX
  8
0
 10
19.6736
 20
35.8671
 30
0.0
 40
0
 41
0
  0
VERTEX
  8
0
 10
19.7161
 20
35.8733
 30
0.0
 40
0
 41
0
  0
VERTEX
  8
0
 10
19.7561
 20
35.875
 30
0.0
 40
0
 41
0
  0
VERTEX
  8
0
 10
19.7694
 20
35.875
 30
0.0
 40
0
 41
0
  0
VERTEX
  8
0
 10
19.7918
 20
35.875
 30
0.0
 40
0
 41
0
  0
VERTEX
  8
0
 10
19.8592
 20
35.8679
 30
0.0
 40
0
 41
0
  0
VERTEX
  8
0
 10
19.9188
 20
35.8518
 30
0.0
 40
0
 41
0
  0
VERTEX
  8
0
 10
19.9292
 20
35.8472
 30
0.0
 40
0
 41
0
  0
SEQEND
 8
0
  0
POLYLINE
  8
0
 62
     0
 66
     1
 10
0
 20
0
 30
0.0
 70
     1
 40
0
 41
0
  0
VERTEX
  8
0
 10
23.2917
 20
36.7097
 30
0.0
 40
0
 41
0
  0
VERTEX
  8
0
 10
23.2458
 20
36.6997
 30
0.0
 40
0
 41
0
  0
VERTEX
  8
0
 10
23.1114
 20
36.6557
 30
0.0
 40
0
 41
0
  0
VERTEX
  8
0
 10
22.9432
 20
36.5764
 30
0.0
 40
0
 41
0
  0
VERTEX
  8
0
 10
22.789
 20
36.4742
 30
0.0
 40
0
 41
0
  0
VERTEX
  8
0
 10
22.6515
 20
36.3514
 30
0.0
 40
0
 41
0
  0
VERTEX
  8
0
 10
22.5328
 20
36.2104
 30
0.0
 40
0
 41
0
  0
VERTEX
  8
0
 10
22.4351
 20
36.0535
 30
0.0
 40
0
 41
0
  0
VERTEX
  8
0
 10
22.361
 20
35.8831
 30
0.0
 40
0
 41
0
  0
VERTEX
  8
0
 10
22.3211
 20
35.7475
 30
0.0
 40
0
 41
0
  0
VERTEX
  8
0
 10
22.3125
 20
35.7014
 30
0.0
 40
0
 41
0
  0
VERTEX
  8
0
 10
22.3056
 20
35.6656
 30
0.0
 40
0
 41
0
  0
VERTEX
  8
0
 10
22.2951
 20
35.5561
 30
0.0
 40
0
 41
0
  0
VERTEX
  8
0
 10
22.2944
 20
35.3986
 30
0.0
 40
0
 41
0
  0
VERTEX
  8
0
 10
22.3093
 20
35.2432
 30
0.0
 40
0
 41
0
  0
VERTEX
  8
0
 10
22.329
 20
35.1382
 30
0.0
 40
0
 41
0
  0
VERTEX
  8
0
 10
22.3389
 20
35.1042
 30
0.0
 40
0
 41
0
  0
VERTEX
  8
0
 10
22.3525
 20
35.0586
 30
0.0
 40
0
 41
0
  0
VERTEX
  8
0
 10
22.4064
 20
34.9256
 30
0.0
 40
0
 41
0
  0
VERTEX
  8
0
 10
22.4964
 20
34.7624
 30
0.0
 40
0
 41
0
  0
VERTEX
  8
0
 10
22.6072
 20
34.6164
 30
0.0
 40
0
 41
0
  0
VERTEX
  8
0
 10
22.7369
 20
34.4887
 30
0.0
 40
0
 41
0
  0
VERTEX
  8
0
 10
22.8839
 20
34.3811
 30
0.0
 40
0
 41
0
  0
VERTEX
  8
0
 10
23.0465
 20
34.295
 30
0.0
 40
0
 41
0
  0
VERTEX
  8
0
 10
23.2228
 20
34.2318
 30
0.0
 40
0
 41
0
  0
VERTEX
  8
0
 10
23.3636
 20
34.1994
 30
0.0
 40
0
 41
0
  0
VERTEX
  8
0
 10
23.4111
 20
34.1931
 30
0.0
 40
0
 41
0
  0
VERTEX
  8
0
 10
23.4615
 20
34.1864
 30
0.0
 40
0
 41
0
  0
VERTEX
  8
0
 10
23.6151
 20
34.1837
 30
0.0
 40
0
 41
0
  0
VERTEX
  8
0
 10
23.8161
 20
34.2082
 30
0.0
 40
0
 41
0
  0
VERTEX
  8
0
 10
24.01
 20
34.2643
 30
0.0
 40
0
 41
0
  0
VERTEX
  8
0
 10
24.1928
 20
34.3497
 30
0.0
 40
0
 41
0
  0
VERTEX
  8
0
 10
24.3601
 20
34.4619
 30
0.0
 40
0
 41
0
  0
VERTEX
  8
0
 10
24.5083
 20
34.599
 30
0.0
 40
0
 41
0
  0
VERTEX
  8
0
 10
24.6332
 20
34.7582
 30
0.0
 40
0
 41
0
  0
VERTEX
  8
0
 10
24.7103
 20
34.891
 30
0.0
 40
0
 41
0
  0
VERTEX
  8
0
 10
24.7306
 20
34.9375
 30
0.0
 40
0
 41
0
  0
VERTEX
  8
0
 10
24.7694
 20
35.0278
 30
0.0
 40
0
 41
0
  0
VERTEX
  8
0
 10
31.2611
 20
35.0278
 30
0.0
 40
0
 41
0
  0
VERTEX
  8
0
 10
31.2931
 20
34.95
 30
0.0
 40
0
 41
0
  0
VERTEX
  8
0
 10
31.3078
 20
34.9132
 30
0.0
 40
0
 41
0
  0
VERTEX
  8
0
 10
31.3658
 20
34.8083
 30
0.0
 40
0
 41
0
  0
VERTEX
  8
0
 10
31.4683
 20
34.6638
 30
0.0
 40
0
 41
0
  0
VERTEX
  8
0
 10
31.5892
 20
34.5303
 30
0.0
 40
0
 41
0
  0
VERTEX
  8
0
 10
31.6828
 20
34.4464
 30
0.0
 40
0
 41
0
  0
VERTEX
  8
0
 10
31.7167
 20
34.4222
 30
0.0
 40
0
 41
0
  0
VERTEX
  8
0
 10
31.7396
 20
34.4058
 30
0.0
 40
0
 41
0
  0
VERTEX
  8
0
 10
31.8119
 20
34.3618
 30
0.0
 40
0
 41
0
  0
VERTEX
  8
0
 10
31.9224
 20
34.3049
 30
0.0
 40
0
 41
0
  0
VERTEX
  8
0
 10
32.0372
 20
34.2562
 30
0.0
 40
0
 41
0
  0
VERTEX
  8
0
 10
32.1182
 20
34.2282
 30
0.0
 40
0
 41
0
  0
VERTEX
  8
0
 10
32.1458
 20
34.2208
 30
0.0
 40
0
 41
0
  0
VERTEX
  8
0
 10
32.1804
 20
34.2117
 30
0.0
 40
0
 41
0
  0
VERTEX
  8
0
 10
32.2878
 20
34.1967
 30
0.0
 40
0
 41
0
  0
VERTEX
  8
0
 10
32.4544
 20
34.1885
 30
0.0
 40
0
 41
0
  0
VERTEX
  8
0
 10
32.6228
 20
34.1961
 30
0.0
 40
0
 41
0
  0
VERTEX
  8
0
 10
32.7335
 20
34.2107
 30
0.0
 40
0
 41
0
  0
VERTEX
  8
0
 10
32.7694
 20
34.2194
 30
0.0
 40
0
 41
0
  0
VERTEX
  8
0
 10
32.7967
 20
34.2263
 30
0.0
 40
0
 41
0
  0
VERTEX
  8
0
 10
32.8774
 20
34.2524
 30
0.0
 40
0
 41
0
  0
VERTEX
  8
0
 10
32.991
 20
34.2976
 30
0.0
 40
0
 41
0
  0
VERTEX
  8
0
 10
33.0983
 20
34.3496
 30
0.0
 40
0
 41
0
  0
VERTEX
  8
0
 10
33.1661
 20
34.3882
 30
0.0
 40
0
 41
0
  0
VERTEX
  8
0
 10
33.1875
 20
34.4028
 30
0.0
 40
0
 41
0
  0
VERTEX
  8
0
 10
33.2372
 20
34.4368
 30
0.0
 40
0
 41
0
  0
VERTEX
  8
0
 10
33.3724
 20
34.5599
 30
0.0
 40
0
 41
0
  0
VERTEX
  8
0
 10
33.5267
 20
34.7532
 30
0.0
 40
0
 41
0
  0
VERTEX
  8
0
 10
33.6442
 20
34.9719
 30
0.0
 40
0
 41
0
  0
VERTEX
  8
0
 10
33.7054
 20
35.146
 30
0.0
 40
0
 41
0
  0
VERTEX
  8
0
 10
33.7181
 20
35.2056
 30
0.0
 40
0
 41
0
  0
VERTEX
  8
0
 10
33.725
 20
35.2396
 30
0.0
 40
0
 41
0
  0
VERTEX
  8
0
 10
33.7333
 20
35.344
 30
0.0
 40
0
 41
0
  0
VERTEX
  8
0
 10
33.734
 20
35.5138
 30
0.0
 40
0
 41
0
  0
VERTEX
  8
0
 10
33.7212
 20
35.6811
 30
0.0
 40
0
 41
0
  0
VERTEX
  8
0
 10
33.7056
 20
35.7807
 30
0.0
 40
0
 41
0
  0
VERTEX
  8
0
 10
33.6958
 20
35.8125
 30
0.0
 40
0
 41
0
  0
VERTEX
  8
0
 10
33.6836
 20
35.8529
 30
0.0
 40
0
 41
0
  0
VERTEX
  8
0
 10
33.6374
 20
35.971
 30
0.0
 40
0
 41
0
  0
VERTEX
  8
0
 10
33.5618
 20
36.1174
 30
0.0
 40
0
 41
0
  0
VERTEX
  8
0
 10
33.47
 20
36.251
 30
0.0
 40
0
 41
0
  0
VERTEX
  8
0
 10
33.3626
 20
36.371
 30
0.0
 40
0
 41
0
  0
VERTEX
  8
0
 10
33.2408
 20
36.4765
 30
0.0
 40
0
 41
0
  0
VERTEX
  8
0
 10
33.1054
 20
36.5667
 30
0.0
 40
0
 41
0
  0
VERTEX
  8
0
 10
32.9572
 20
36.6404
 30
0.0
 40
0
 41
0
  0
VERTEX
  8
0
 10
32.8379
 20
36.6856
 30
0.0
 40
0
 41
0
  0
VERTEX
  8
0
 10
32.7972
 20
36.6972
 30
0.0
 40
0
 41
0
  0
VERTEX
  8
0
 10
32.7811
 20
36.7019
 30
0.0
 40
0
 41
0
  0
VERTEX
  8
0
 10
32.7324
 20
36.7139
 30
0.0
 40
0
 41
0
  0
VERTEX
  8
0
 10
32.6668
 20
36.7235
 30
0.0
 40
0
 41
0
  0
VERTEX
  8
0
 10
32.5818
 20
36.7275
 30
0.0
 40
0
 41
0
  0
VERTEX
  8
0
 10
32.4892
 20
36.7279
 30
0.0
 40
0
 41
0
  0
VERTEX
  8
0
 10
32.4583
 20
36.7278
 30
0.0
 40
0
 41
0
  0
VERTEX
  8
0
 10
32.4265
 20
36.7278
 30
0.0
 40
0
 41
0
  0
VERTEX
  8
0
 10
32.3311
 20
36.7267
 30
0.0
 40
0
 41
0
  0
VERTEX
  8
0
 10
32.2461
 20
36.7215
 30
0.0
 40
0
 41
0
  0
VERTEX
  8
0
 10
32.1794
 20
36.7103
 30
0.0
 40
0
 41
0
  0
VERTEX
  8
0
 10
32.1249
 20
36.6957
 30
0.0
 40
0
 41
0
  0
VERTEX
  8
0
 10
32.1069
 20
36.6903
 30
0.0
 40
0
 41
0
  0
VERTEX
  8
0
 10
32.0393
 20
36.6696
 30
0.0
 40
0
 41
0
  0
VERTEX
  8
0
 10
31.845
 20
36.5794
 30
0.0
 40
0
 41
0
  0
VERTEX
  8
0
 10
31.6193
 20
36.4208
 30
0.0
 40
0
 41
0
  0
VERTEX
  8
0
 10
31.4349
 20
36.2196
 30
0.0
 40
0
 41
0
  0
VERTEX
  8
0
 10
31.3247
 20
36.0433
 30
0.0
 40
0
 41
0
  0
VERTEX
  8
0
 10
31.2972
 20
35.9806
 30
0.0
 40
0
 41
0
  0
VERTEX
  8
0
 10
31.2583
 20
35.8889
 30
0.0
 40
0
 41
0
  0
VERTEX
  8
0
 10
28.0111
 20
35.8889
 30
0.0
 40
0
 41
0
  0
VERTEX
  8
0
 10
27.9033
 20
35.8889
 30
0.0
 40
0
 41
0
  0
VERTEX
  8
0
 10
27.58
 20
35.8889
 30
0.0
 40
0
 41
0
  0
VERTEX
  8
0
 10
27.184
 20
35.8892
 30
0.0
 40
0
 41
0
  0
VERTEX
  8
0
 10
26.8222
 20
35.8894
 30
0.0
 40
0
 41
0
  0
VERTEX
  8
0
 10
26.4936
 20
35.8897
 30
0.0
 40
0
 41
0
  0
VERTEX
  8
0
 10
26.1969
 20
35.8903
 30
0.0
 40
0
 41
0
  0
VERTEX
  8
0
 10
25.9314
 20
35.8908
 30
0.0
 40
0
 41
0
  0
VERTEX
  8
0
 10
25.696
 20
35.8915
 30
0.0
 40
0
 41
0
  0
VERTEX
  8
0
 10
25.4896
 20
35.8924
 30
0.0
 40
0
 41
0
  0
VERTEX
  8
0
 10
25.3113
 20
35.8933
 30
0.0
 40
0
 41
0
  0
VERTEX
  8
0
 10
25.16
 20
35.8944
 30
0.0
 40
0
 41
0
  0
VERTEX
  8
0
 10
25.0347
 20
35.8957
 30
0.0
 40
0
 41
0
  0
VERTEX
  8
0
 10
24.9346
 20
35.8971
 30
0.0
 40
0
 41
0
  0
VERTEX
  8
0
 10
24.8583
 20
35.8986
 30
0.0
 40
0
 41
0
  0
VERTEX
  8
0
 10
24.8051
 20
35.9004
 30
0.0
 40
0
 41
0
  0
VERTEX
  8
0
 10
24.774
 20
35.9022
 30
0.0
 40
0
 41
0
  0
VERTEX
  8
0
 10
24.7639
 20
35.9038
 30
0.0
 40
0
 41
0
  0
VERTEX
  8
0
 10
24.7639
 20
35.9042
 30
0.0
 40
0
 41
0
  0
VERTEX
  8
0
 10
24.7639
 20
35.9079
 30
0.0
 40
0
 41
0
  0
VERTEX
  8
0
 10
24.7594
 20
35.9192
 30
0.0
 40
0
 41
0
  0
VERTEX
  8
0
 10
24.7474
 20
35.9485
 30
0.0
 40
0
 41
0
  0
VERTEX
  8
0
 10
24.7293
 20
35.9879
 30
0.0
 40
0
 41
0
  0
VERTEX
  8
0
 10
24.7126
 20
36.0221
 30
0.0
 40
0
 41
0
  0
VERTEX
  8
0
 10
24.7069
 20
36.0333
 30
0.0
 40
0
 41
0
  0
VERTEX
  8
0
 10
24.6776
 20
36.0922
 30
0.0
 40
0
 41
0
  0
VERTEX
  8
0
 10
24.5661
 20
36.2571
 30
0.0
 40
0
 41
0
  0
VERTEX
  8
0
 10
24.3857
 20
36.4429
 30
0.0
 40
0
 41
0
  0
VERTEX
  8
0
 10
24.1694
 20
36.5879
 30
0.0
 40
0
 41
0
  0
VERTEX
  8
0
 10
23.9849
 20
36.67
 30
0.0
 40
0
 41
0
  0
VERTEX
  8
0
 10
23.9208
 20
36.6889
 30
0.0
 40
0
 41
0
  0
VERTEX
  8
0
 10
23.8858
 20
36.6994
 30
0.0
 40
0
 41
0
  0
VERTEX
  8
0
 10
23.7771
 20
36.7188
 30
0.0
 40
0
 41
0
  0
VERTEX
  8
0
 10
23.6099
 20
36.7326
 30
0.0
 40
0
 41
0
  0
VERTEX
  8
0
 10
23.441
 20
36.7299
 30
0.0
 40
0
 41
0
  0
VERTEX
  8
0
 10
23.3283
 20
36.7178
 30
0.0
 40
0
 41
0
  0
VERTEX
  8
0
 10
23.2917
 20
36.7097
 30
0.0
 40
0
 41
0
  0
SEQEND
 8
0
  0
POLYLINE
  8
0
 62
     0
 66
     1
 10
0
 20
0
 30
0.0
 70
     1
 40
0
 41
0
  0
VERTEX
  8
0
 10
23.7472
 20
35.8333
 30
0.0
 40
0
 41
0
  0
VERTEX
  8
0
 10
23.7743
 20
35.8199
 30
0.0
 40
0
 41
0
  0
VERTEX
  8
0
 10
23.849
 20
35.7664
 30
0.0
 40
0
 41
0
  0
VERTEX
  8
0
 10
23.9214
 20
35.6818
 30
0.0
 40
0
 41
0
  0
VERTEX
  8
0
 10
23.9642
 20
35.5793
 30
0.0
 40
0
 41
0
  0
VERTEX
  8
0
 10
23.9779
 20
35.4886
 30
0.0
 40
0
 41
0
  0
VERTEX
  8
0
 10
23.9778
 20
35.4583
 30
0.0
 40
0
 41
0
  0
VERTEX
  8
0
 10
23.9778
 20
35.4369
 30
0.0
 40
0
 41
0
  0
VERTEX
  8
0
 10
23.9713
 20
35.3728
 30
0.0
 40
0
 41
0
  0
VERTEX
  8
0
 10
23.9503
 20
35.2986
 30
0.0
 40
0
 41
0
  0
VERTEX
  8
0
 10
23.9133
 20
35.2318
 30
0.0
 40
0
 41
0
  0
VERTEX
  8
0
 10
23.8733
 20
35.1828
 30
0.0
 40
0
 41
0
  0
VERTEX
  8
0
 10
23.8583
 20
35.1681
 30
0.0
 40
0
 41
0
  0
VERTEX
  8
0
 10
23.84
 20
35.1499
 30
0.0
 40
0
 41
0
  0
VERTEX
  8
0
 10
23.7765
 20
35.1036
 30
0.0
 40
0
 41
0
  0
VERTEX
  8
0
 10
23.6869
 20
35.0628
 30
0.0
 40
0
 41
0
  0
VERTEX
  8
0
 10
23.5935
 20
35.0451
 30
0.0
 40
0
 41
0
  0
VERTEX
  8
0
 10
23.4994
 20
35.0499
 30
0.0
 40
0
 41
0
  0
VERTEX
  8
0
 10
23.409
 20
35.0764
 30
0.0
 40
0
 41
0
  0
VERTEX
  8
0
 10
23.3257
 20
35.1242
 30
0.0
 40
0
 41
0
  0
VERTEX
  8
0
 10
23.2535
 20
35.1924
 30
0.0
 40
0
 41
0
  0
VERTEX
  8
0
 10
23.2075
 20
35.2572
 30
0.0
 40
0
 41
0
  0
VERTEX
  8
0
 10
23.1958
 20
35.2806
 30
0.0
 40
0
 41
0
  0
VERTEX
  8
0
 10
23.1833
 20
35.3057
 30
0.0
 40
0
 41
0
  0
VERTEX
  8
0
 10
23.159
 20
35.3881
 30
0.0
 40
0
 41
0
  0
VERTEX
  8
0
 10
23.1522
 20
35.4975
 30
0.0
 40
0
 41
0
  0
VERTEX
  8
0
 10
23.1749
 20
35.6025
 30
0.0
 40
0
 41
0
  0
VERTEX
  8
0
 10
23.2103
 20
35.675
 30
0.0
 40
0
 41
0
  0
VERTEX
  8
0
 10
23.2264
 20
35.6958
 30
0.0
 40
0
 41
0
  0
VERTEX
  8
0
 10
23.2431
 20
35.7176
 30
0.0
 40
0
 41
0
  0
VERTEX
  8
0
 10
23.3001
 20
35.7775
 30
0.0
 40
0
 41
0
  0
VERTEX
  8
0
 10
23.3788
 20
35.8328
 30
0.0
 40
0
 41
0
  0
VERTEX
  8
0
 10
23.4674
 20
35.8644
 30
0.0
 40
0
 41
0
  0
VERTEX
  8
0
 10
23.545
 20
35.8747
 30
0.0
 40
0
 41
0
  0
VERTEX
  8
0
 10
23.5708
 20
35.875
 30
0.0
 40
0
 41
0
  0
VERTEX
  8
0
 10
23.5832
 20
35.875
 30
0.0
 40
0
 41
0
  0
VERTEX
  8
0
 10
23.6203
 20
35.8732
 30
0.0
 40
0
 41
0
  0
VERTEX
  8
0
 10
23.6611
 20
35.8667
 30
0.0
 40
0
 41
0
  0
VERTEX
  8
0
 10
23.7008
 20
35.8539
 30
0.0
 40
0
 41
0
  0
VERTEX
  8
0
 10
23.7358
 20
35.8387
 30
0.0
 40
0
 41
0
  0
VERTEX
  8
0
 10
23.7472
 20
35.8333
 30
0.0
 40
0
 41
0
  0
SEQEND
 8
0
  0
POLYLINE
  8
0
 62
     0
 66
     1
 10
0
 20
0
 30
0.0
 70
     1
 40
0
 41
0
  0
VERTEX
  8
0
 10
32.6333
 20
35.8417
 30
0.0
 40
0
 41
0
  0
VERTEX
  8
0
 10
32.6506
 20
35.8338
 30
0.0
 40
0
 41
0
  0
VERTEX
  8
0
 10
32.6993
 20
35.8033
 30
0.0
 40
0
 41
0
  0
VERTEX
  8
0
 10
32.7571
 20
35.7539
 30
0.0
 40
0
 41
0
  0
VERTEX
  8
0
 10
32.8058
 20
35.6944
 30
0.0
 40
0
 41
0
  0
VERTEX
  8
0
 10
32.8362
 20
35.6442
 30
0.0
 40
0
 41
0
  0
VERTEX
  8
0
 10
32.8444
 20
35.6264
 30
0.0
 40
0
 41
0
  0
VERTEX
  8
0
 10
32.8528
 20
35.6083
 30
0.0
 40
0
 41
0
  0
VERTEX
  8
0
 10
32.8706
 20
35.5506
 30
0.0
 40
0
 41
0
  0
VERTEX
  8
0
 10
32.8808
 20
35.4732
 30
0.0
 40
0
 41
0
  0
VERTEX
  8
0
 10
32.8757
 20
35.3964
 30
0.0
 40
0
 41
0
  0
VERTEX
  8
0
 10
32.8562
 20
35.3219
 30
0.0
 40
0
 41
0
  0
VERTEX
  8
0
 10
32.8229
 20
35.2517
 30
0.0
 40
0
 41
0
  0
VERTEX
  8
0
 10
32.7765
 20
35.1878
 30
0.0
 40
0
 41
0
  0
VERTEX
  8
0
 10
32.7176
 20
35.1319
 30
0.0
 40
0
 41
0
  0
VERTEX
  8
0
 10
32.6657
 20
35.0958
 30
0.0
 40
0
 41
0
  0
VERTEX
  8
0
 10
32.6472
 20
35.0861
 30
0.0
 40
0
 41
0
  0
VERTEX
  8
0
 10
32.6374
 20
35.0811
 30
0.0
 40
0
 41
0
  0
VERTEX
  8
0
 10
32.6067
 20
35.0674
 30
0.0
 40
0
 41
0
  0
VERTEX
  8
0
 10
32.5687
 20
35.056
 30
0.0
 40
0
 41
0
  0
VERTEX
  8
0
 10
32.5246
 20
35.0501
 30
0.0
 40
0
 41
0
  0
VERTEX
  8
0
 10
32.4801
 20
35.0486
 30
0.0
 40
0
 41
0
  0
VERTEX
  8
0
 10
32.4653
 20
35.0486
 30
0.0
 40
0
 41
0
  0
VERTEX
  8
0
 10
32.4504
 20
35.0486
 30
0.0
 40
0
 41
0
  0
VERTEX
  8
0
 10
32.406
 20
35.0501
 30
0.0
 40
0
 41
0
  0
VERTEX
  8
0
 10
32.3619
 20
35.056
 30
0.0
 40
0
 41
0
  0
VERTEX
  8
0
 10
32.3244
 20
35.0674
 30
0.0
 40
0
 41
0
  0
VERTEX
  8
0
 10
32.2944
 20
35.0811
 30
0.0
 40
0
 41
0
  0
VERTEX
  8
0
 10
32.2847
 20
35.0861
 30
0.0
 40
0
 41
0
  0
VERTEX
  8
0
 10
32.2579
 20
35.1004
 30
0.0
 40
0
 41
0
  0
VERTEX
  8
0
 10
32.1842
 20
35.1561
 30
0.0
 40
0
 41
0
  0
VERTEX
  8
0
 10
32.1106
 20
35.244
 30
0.0
 40
0
 41
0
  0
VERTEX
  8
0
 10
32.0654
 20
35.3476
 30
0.0
 40
0
 41
0
  0
VERTEX
  8
0
 10
32.05
 20
35.4358
 30
0.0
 40
0
 41
0
  0
VERTEX
  8
0
 10
32.05
 20
35.4653
 30
0.0
 40
0
 41
0
  0
VERTEX
  8
0
 10
32.0503
 20
35.4942
 30
0.0
 40
0
 41
0
  0
VERTEX
  8
0
 10
32.0658
 20
35.5808
 30
0.0
 40
0
 41
0
  0
VERTEX
  8
0
 10
32.1106
 20
35.6819
 30
0.0
 40
0
 41
0
  0
VERTEX
  8
0
 10
32.1826
 20
35.7665
 30
0.0
 40
0
 41
0
  0
VERTEX
  8
0
 10
32.2544
 20
35.8189
 30
0.0
 40
0
 41
0
  0
VERTEX
  8
0
 10
32.2806
 20
35.8319
 30
0.0
 40
0
 41
0
  0
VERTEX
  8
0
 10
32.3011
 20
35.8424
 30
0.0
 40
0
 41
0
  0
VERTEX
  8
0
 10
32.3679
 20
35.8646
 30
0.0
 40
0
 41
0
  0
VERTEX
  8
0
 10
32.4585
 20
35.8769
 30
0.0
 40
0
 41
0
  0
VERTEX
  8
0
 10
32.5483
 20
35.8693
 30
0.0
 40
0
 41
0
  0
VERTEX
  8
0
 10
32.6132
 20
35.851
 30
0.0
 40
0
 41
0
  0
VERTEX
  8
0
 10
32.6333
 20
35.8417
 30
0.0
 40
0
 41
0
  0
SEQEND
 8
0
  0
POLYLINE
  8
0
 62
     0
 66
     1
 10
0
 20
0
 30
0.0
 70
     1
 40
0
 41
0
  0
VERTEX
  8
0
 10
17.1319
 20
27.5139
 30
0.0
 40
0
 41
0
  0
VERTEX
  8
0
 10
20.7847
 20
23.8611
 30
0.0
 40
0
 41
0
  0
VERTEX
  8
0
 10
22.7153
 20
23.8611
 30
0.0
 40
0
 41
0
  0
VERTEX
  8
0
 10
27.8889
 20
18.6875
 30
0.0
 40
0
 41
0
  0
VERTEX
  8
0
 10
30.2431
 20
21.0417
 30
0.0
 40
0
 41
0
  0
VERTEX
  8
0
 10
32.1319
 20
21.0417
 30
0.0
 40
0
 41
0
  0
VERTEX
  8
0
 10
34.4028
 20
23.3125
 30
0.0
 40
0
 41
0
  0
VERTEX
  8
0
 10
34.8708
 20
22.8444
 30
0.0
 40
0
 41
0
  0
VERTEX
  8
0
 10
35.3403
 20
22.3764
 30
0.0
 40
0
 41
0
  0
VERTEX
  8
0
 10
39.3861
 20
26.4111
 30
0.0
 40
0
 41
0
  0
VERTEX
  8
0
 10
39.489
 20
26.5139
 30
0.0
 40
0
 41
0
  0
VERTEX
  8
0
 10
39.7979
 20
26.8222
 30
0.0
 40
0
 41
0
  0
VERTEX
  8
0
 10
40.1983
 20
27.2219
 30
0.0
 40
0
 41
0
  0
VERTEX
  8
0
 10
40.585
 20
27.6082
 30
0.0
 40
0
 41
0
  0
VERTEX
  8
0
 10
40.9561
 20
27.9789
 30
0.0
 40
0
 41
0
  0
VERTEX
  8
0
 10
41.3094
 20
28.3318
 30
0.0
 40
0
 41
0
  0
VERTEX
  8
0
 10
41.6429
 20
28.665
 30
0.0
 40
0
 41
0
  0
VERTEX
  8
0
 10
41.9546
 20
28.9765
 30
0.0
 40
0
 41
0
  0
VERTEX
  8
0
 10
42.2421
 20
29.2642
 30
0.0
 40
0
 41
0
  0
VERTEX
  8
0
 10
42.5038
 20
29.5257
 30
0.0
 40
0
 41
0
  0
VERTEX
  8
0
 10
42.7371
 20
29.7593
 30
0.0
 40
0
 41
0
  0
VERTEX
  8
0
 10
42.9404
 20
29.9628
 30
0.0
 40
0
 41
0
  0
VERTEX
  8
0
 10
43.1113
 20
30.134
 30
0.0
 40
0
 41
0
  0
VERTEX
  8
0
 10
43.2478
 20
30.271
 30
0.0
 40
0
 41
0
  0
VERTEX
  8
0
 10
43.3479
 20
30.3717
 30
0.0
 40
0
 41
0
  0
VERTEX
  8
0
 10
43.4096
 20
30.4339
 30
0.0
 40
0
 41
0
  0
VERTEX
  8
0
 10
43.4306
 20
30.4501
 30
0.0
 40
0
 41
0
  0
VERTEX
  8
0
 10
43.4306
 20
30.4556
 30
0.0
 40
0
 41
0
  0
VERTEX
  8
0
 10
43.4306
 20
30.4582
 30
0.0
 40
0
 41
0
  0
VERTEX
  8
0
 10
43.4167
 20
30.466
 30
0.0
 40
0
 41
0
  0
VERTEX
  8
0
 10
43.3788
 20
30.4869
 30
0.0
 40
0
 41
0
  0
VERTEX
  8
0
 10
43.3226
 20
30.5156
 30
0.0
 40
0
 41
0
  0
VERTEX
  8
0
 10
43.2714
 20
30.5406
 30
0.0
 40
0
 41
0
  0
VERTEX
  8
0
 10
43.2542
 20
30.5486
 30
0.0
 40
0
 41
0
  0
VERTEX
  8
0
 10
43.2193
 20
30.5649
 30
0.0
 40
0
 41
0
  0
VERTEX
  8
0
 10
43.1167
 20
30.6183
 30
0.0
 40
0
 41
0
  0
VERTEX
  8
0
 10
42.9799
 20
30.6985
 30
0.0
 40
0
 41
0
  0
VERTEX
  8
0
 10
42.8533
 20
30.7825
 30
0.0
 40
0
 41
0
  0
VERTEX
  8
0
 10
42.7728
 20
30.8424
 30
0.0
 40
0
 41
0
  0
VERTEX
  8
0
 10
42.7472
 20
30.8639
 30
0.0
 40
0
 41
0
  0
VERTEX
  8
0
 10
42.6806
 20
30.9194
 30
0.0
 40
0
 41
0
  0
VERTEX
  8
0
 10
39.0111
 20
27.2569
 30
0.0
 40
0
 41
0
  0
VERTEX
  8
0
 10
35.3417
 20
23.5958
 30
0.0
 40
0
 41
0
  0
VERTEX
  8
0
 10
34.4028
 20
24.5347
 30
0.0
 40
0
 41
0
  0
VERTEX
  8
0
 10
31.7708
 20
21.9028
 30
0.0
 40
0
 41
0
  0
VERTEX
  8
0
 10
29.8819
 20
21.9028
 30
0.0
 40
0
 41
0
  0
VERTEX
  8
0
 10
27.8889
 20
19.9097
 30
0.0
 40
0
 41
0
  0
VERTEX
  8
0
 10
23.0903
 20
24.7083
 30
0.0
 40
0
 41
0
  0
VERTEX
  8
0
 10
21.1597
 20
24.7083
 30
0.0
 40
0
 41
0
  0
VERTEX
  8
0
 10
14.7014
 20
31.1667
 30
0.0
 40
0
 41
0
  0
VERTEX
  8
0
 10
13.4792
 20
31.1667
 30
0.0
 40
0
 41
0
  0
VERTEX
  8
0
 10
17.1319
 20
27.5139
 30
0.0
 40
0
 41
0
  0
SEQEND
 8
0
  0
POLYLINE
  8
0
 62
     0
 66
     1
 10
0
 20
0
 30
0.0
 70
     1
 40
0
 41
0
  0
VERTEX
  8
0
 10
18.6806
 20
28.3542
 30
0.0
 40
0
 41
0
  0
VERTEX
  8
0
 10
21.4931
 20
25.5417
 30
0.0
 40
0
 41
0
  0
VERTEX
  8
0
 10
23.4236
 20
25.5417
 30
0.0
 40
0
 41
0
  0
VERTEX
  8
0
 10
27.8889
 20
21.0764
 30
0.0
 40
0
 41
0
  0
VERTEX
  8
0
 10
29.5486
 20
22.7361
 30
0.0
 40
0
 41
0
  0
VERTEX
  8
0
 10
31.4375
 20
22.7361
 30
0.0
 40
0
 41
0
  0
VERTEX
  8
0
 10
34.4028
 20
25.7014
 30
0.0
 40
0
 41
0
  0
VERTEX
  8
0
 10
35.3458
 20
24.7583
 30
0.0
 40
0
 41
0
  0
VERTEX
  8
0
 10
38.5486
 20
27.9583
 30
0.0
 40
0
 41
0
  0
VERTEX
  8
0
 10
41.7514
 20
31.1597
 30
0.0
 40
0
 41
0
  0
VERTEX
  8
0
 10
41.1431
 20
31.1639
 30
0.0
 40
0
 41
0
  0
VERTEX
  8
0
 10
40.5347
 20
31.1667
 30
0.0
 40
0
 41
0
  0
VERTEX
  8
0
 10
35.3472
 20
25.9792
 30
0.0
 40
0
 41
0
  0
VERTEX
  8
0
 10
34.4097
 20
26.9167
 30
0.0
 40
0
 41
0
  0
VERTEX
  8
0
 10
31.0764
 20
23.5833
 30
0.0
 40
0
 41
0
  0
VERTEX
  8
0
 10
29.1736
 20
23.5833
 30
0.0
 40
0
 41
0
  0
VERTEX
  8
0
 10
27.8889
 20
22.2986
 30
0.0
 40
0
 41
0
  0
VERTEX
  8
0
 10
23.7847
 20
26.4028
 30
0.0
 40
0
 41
0
  0
VERTEX
  8
0
 10
21.8542
 20
26.4028
 30
0.0
 40
0
 41
0
  0
VERTEX
  8
0
 10
17.0903
 20
31.1667
 30
0.0
 40
0
 41
0
  0
VERTEX
  8
0
 10
15.8681
 20
31.1667
 30
0.0
 40
0
 41
0
  0
VERTEX
  8
0
 10
18.6806
 20
28.3542
 30
0.0
 40
0
 41
0
  0
SEQEND
 8
0
  0
POLYLINE
  8
0
 62
     0
 66
     1
 10
0
 20
0
 30
0.0
 70
     1
 40
0
 41
0
  0
VERTEX
  8
0
 10
20.2222
 20
29.2014
 30
0.0
 40
0
 41
0
  0
VERTEX
  8
0
 10
22.1875
 20
27.2361
 30
0.0
 40
0
 41
0
  0
VERTEX
  8
0
 10
24.1181
 20
27.2361
 30
0.0
 40
0
 41
0
  0
VERTEX
  8
0
 10
27.8889
 20
23.4653
 30
0.0
 40
0
 41
0
  0
VERTEX
  8
0
 10
28.8403
 20
24.4167
 30
0.0
 40
0
 41
0
  0
VERTEX
  8
0
 10
30.7431
 20
24.4167
 30
0.0
 40
0
 41
0
  0
VERTEX
  8
0
 10
34.4097
 20
28.0833
 30
0.0
 40
0
 41
0
  0
VERTEX
  8
0
 10
35.3472
 20
27.1458
 30
0.0
 40
0
 41
0
  0
VERTEX
  8
0
 10
39.3681
 20
31.1667
 30
0.0
 40
0
 41
0
  0
VERTEX
  8
0
 10
38.1458
 20
31.1667
 30
0.0
 40
0
 41
0
  0
VERTEX
  8
0
 10
35.3403
 20
28.3611
 30
0.0
 40
0
 41
0
  0
VERTEX
  8
0
 10
34.4028
 20
29.2986
 30
0.0
 40
0
 41
0
  0
VERTEX
  8
0
 10
30.3819
 20
25.2778
 30
0.0
 40
0
 41
0
  0
VERTEX
  8
0
 10
28.4792
 20
25.2778
 30
0.0
 40
0
 41
0
  0
VERTEX
  8
0
 10
27.8889
 20
24.6875
 30
0.0
 40
0
 41
0
  0
VERTEX
  8
0
 10
24.4931
 20
28.0833
 30
0.0
 40
0
 41
0
  0
VERTEX
  8
0
 10
22.5625
 20
28.0833
 30
0.0
 40
0
 41
0
  0
VERTEX
  8
0
 10
19.4792
 20
31.1667
 30
0.0
 40
0
 41
0
  0
VERTEX
  8
0
 10
18.2569
 20
31.1667
 30
0.0
 40
0
 41
0
  0
VERTEX
  8
0
 10
20.2222
 20
29.2014
 30
0.0
 40
0
 41
0
  0
SEQEND
 8
0
  0
POLYLINE
  8
0
 62
     0
 66
     1
 10
0
 20
0
 30
0.0
 70
     1
 40
0
 41
0
  0
VERTEX
  8
0
 10
20.6528
 20
31.1556
 30
0.0
 40
0
 41
0
  0
VERTEX
  8
0
 10
20.6528
 20
31.1493
 30
0.0
 40
0
 41
0
  0
VERTEX
  8
0
 10
20.6756
 20
31.1308
 30
0.0
 40
0
 41
0
  0
VERTEX
  8
0
 10
20.7407
 20
31.0638
 30
0.0
 40
0
 41
0
  0
VERTEX
  8
0
 10
20.8438
 20
30.959
 30
0.0
 40
0
 41
0
  0
VERTEX
  8
0
 10
20.9801
 20
30.8212
 30
0.0
 40
0
 41
0
  0
VERTEX
  8
0
 10
21.1454
 20
30.6549
 30
0.0
 40
0
 41
0
  0
VERTEX
  8
0
 10
21.3349
 20
30.4646
 30
0.0
 40
0
 41
0
  0
VERTEX
  8
0
 10
21.5439
 20
30.255
 30
0.0
 40
0
 41
0
  0
VERTEX
  8
0
 10
21.7119
 20
30.0867
 30
0.0
 40
0
 41
0
  0
VERTEX
  8
0
 10
21.7681
 20
30.0306
 30
0.0
 40
0
 41
0
  0
VERTEX
  8
0
 10
22.8819
 20
28.9167
 30
0.0
 40
0
 41
0
  0
VERTEX
  8
0
 10
24.8264
 20
28.9167
 30
0.0
 40
0
 41
0
  0
VERTEX
  8
0
 10
27.6181
 20
26.125
 30
0.0
 40
0
 41
0
  0
VERTEX
  8
0
 10
30.0625
 20
26.125
 30
0.0
 40
0
 41
0
  0
VERTEX
  8
0
 10
34.4028
 20
30.4653
 30
0.0
 40
0
 41
0
  0
VERTEX
  8
0
 10
34.8653
 20
30.0028
 30
0.0
 40
0
 41
0
  0
VERTEX
  8
0
 10
34.8883
 20
29.9797
 30
0.0
 40
0
 41
0
  0
VERTEX
  8
0
 10
34.9579
 20
29.9104
 30
0.0
 40
0
 41
0
  0
VERTEX
  8
0
 10
35.0451
 20
29.8242
 30
0.0
 40
0
 41
0
  0
VERTEX
  8
0
 10
35.1247
 20
29.7458
 30
0.0
 40
0
 41
0
  0
VERTEX
  8
0
 10
35.195
 20
29.6775
 30
0.0
 40
0
 41
0
  0
VERTEX
  8
0
 10
35.2536
 20
29.621
 30
0.0
 40
0
 41
0
  0
VERTEX
  8
0
 10
35.2986
 20
29.5782
 30
0.0
 40
0
 41
0
  0
VERTEX
  8
0
 10
35.3282
 20
29.5511
 30
0.0
 40
0
 41
0
  0
VERTEX
  8
0
 10
35.3372
 20
29.5417
 30
0.0
 40
0
 41
0
  0
VERTEX
  8
0
 10
35.3403
 20
29.5417
 30
0.0
 40
0
 41
0
  0
VERTEX
  8
0
 10
35.3451
 20
29.5417
 30
0.0
 40
0
 41
0
  0
VERTEX
  8
0
 10
35.3599
 20
29.5583
 30
0.0
 40
0
 41
0
  0
VERTEX
  8
0
 10
35.41
 20
29.6057
 30
0.0
 40
0
 41
0
  0
VERTEX
  8
0
 10
35.4875
 20
29.6808
 30
0.0
 40
0
 41
0
  0
VERTEX
  8
0
 10
35.5889
 20
29.7803
 30
0.0
 40
0
 41
0
  0
VERTEX
  8
0
 10
35.7108
 20
29.9006
 30
0.0
 40
0
 41
0
  0
VERTEX
  8
0
 10
35.85
 20
30.0386
 30
0.0
 40
0
 41
0
  0
VERTEX
  8
0
 10
36.0031
 20
30.1908
 30
0.0
 40
0
 41
0
  0
VERTEX
  8
0
 10
36.1258
 20
30.3133
 30
0.0
 40
0
 41
0
  0
VERTEX
  8
0
 10
36.1667
 20
30.3542
 30
0.0
 40
0
 41
0
  0
VERTEX
  8
0
 10
36.9792
 20
31.1667
 30
0.0
 40
0
 41
0
  0
VERTEX
  8
0
 10
33.8819
 20
31.1667
 30
0.0
 40
0
 41
0
  0
VERTEX
  8
0
 10
29.6736
 20
26.9583
 30
0.0
 40
0
 41
0
  0
VERTEX
  8
0
 10
28.0069
 20
26.9583
 30
0.0
 40
0
 41
0
  0
VERTEX
  8
0
 10
25.1875
 20
29.7778
 30
0.0
 40
0
 41
0
  0
VERTEX
  8
0
 10
23.2431
 20
29.7778
 30
0.0
 40
0
 41
0
  0
VERTEX
  8
0
 10
21.8542
 20
31.1667
 30
0.0
 40
0
 41
0
  0
VERTEX
  8
0
 10
21.2542
 20
31.1667
 30
0.0
 40
0
 41
0
  0
VERTEX
  8
0
 10
21.1958
 20
31.1667
 30
0.0
 40
0
 41
0
  0
VERTEX
  8
0
 10
21.0207
 20
31.166
 30
0.0
 40
0
 41
0
  0
VERTEX
  8
0
 10
20.8294
 20
31.1638
 30
0.0
 40
0
 41
0
  0
VERTEX
  8
0
 10
20.7003
 20
31.1603
 30
0.0
 40
0
 41
0
  0
VERTEX
  8
0
 10
20.6528
 20
31.1568
 30
0.0
 40
0
 41
0
  0
VERTEX
  8
0
 10
20.6528
 20
31.1556
 30
0.0
 40
0
 41
0
  0
SEQEND
 8
0
  0
POLYLINE
  8
0
 62
     0
 66
     1
 10
0
 20
0
 30
0.0
 70
     1
 40
0
 41
0
  0
VERTEX
  8
0
 10
23.0417
 20
31.1556
 30
0.0
 40
0
 41
0
  0
VERTEX
  8
0
 10
23.0417
 20
31.1493
 30
0.0
 40
0
 41
0
  0
VERTEX
  8
0
 10
23.0628
 20
31.1306
 30
0.0
 40
0
 41
0
  0
VERTEX
  8
0
 10
23.1204
 20
31.0699
 30
0.0
 40
0
 41
0
  0
VERTEX
  8
0
 10
23.2057
 20
30.9825
 30
0.0
 40
0
 41
0
  0
VERTEX
  8
0
 10
23.2836
 20
30.9039
 30
0.0
 40
0
 41
0
  0
VERTEX
  8
0
 10
23.3097
 20
30.8778
 30
0.0
 40
0
 41
0
  0
VERTEX
  8
0
 10
23.5764
 20
30.6111
 30
0.0
 40
0
 41
0
  0
VERTEX
  8
0
 10
25.5208
 20
30.6111
 30
0.0
 40
0
 41
0
  0
VERTEX
  8
0
 10
28.3403
 20
27.7917
 30
0.0
 40
0
 41
0
  0
VERTEX
  8
0
 10
29.3403
 20
27.7917
 30
0.0
 40
0
 41
0
  0
VERTEX
  8
0
 10
31.0181
 20
29.4694
 30
0.0
 40
0
 41
0
  0
VERTEX
  8
0
 10
31.0608
 20
29.5122
 30
0.0
 40
0
 41
0
  0
VERTEX
  8
0
 10
31.1889
 20
29.6404
 30
0.0
 40
0
 41
0
  0
VERTEX
  8
0
 10
31.3549
 20
29.8065
 30
0.0
 40
0
 41
0
  0
VERTEX
  8
0
 10
31.5151
 20
29.9671
 30
0.0
 40
0
 41
0
  0
VERTEX
  8
0
 10
31.669
 20
30.1212
 30
0.0
 40
0
 41
0
  0
VERTEX
  8
0
 10
31.8154
 20
30.2681
 30
0.0
 40
0
 41
0
  0
VERTEX
  8
0
 10
31.9537
 20
30.4068
 30
0.0
 40
0
 41
0
  0
VERTEX
  8
0
 10
32.0828
 20
30.5365
 30
0.0
 40
0
 41
0
  0
VERTEX
  8
0
 10
32.2021
 20
30.6565
 30
0.0
 40
0
 41
0
  0
VERTEX
  8
0
 10
32.3104
 20
30.7656
 30
0.0
 40
0
 41
0
  0
VERTEX
  8
0
 10
32.4072
 20
30.8632
 30
0.0
 40
0
 41
0
  0
VERTEX
  8
0
 10
32.4914
 20
30.9482
 30
0.0
 40
0
 41
0
  0
VERTEX
  8
0
 10
32.5622
 20
31.0201
 30
0.0
 40
0
 41
0
  0
VERTEX
  8
0
 10
32.6188
 20
31.0776
 30
0.0
 40
0
 41
0
  0
VERTEX
  8
0
 10
32.6603
 20
31.1203
 30
0.0
 40
0
 41
0
  0
VERTEX
  8
0
 10
32.6857
 20
31.1471
 30
0.0
 40
0
 41
0
  0
VERTEX
  8
0
 10
32.6944
 20
31.1546
 30
0.0
 40
0
 41
0
  0
VERTEX
  8
0
 10
32.6944
 20
31.1569
 30
0.0
 40
0
 41
0
  0
VERTEX
  8
0
 10
32.6944
 20
31.1579
 30
0.0
 40
0
 41
0
  0
VERTEX
  8
0
 10
32.6469
 20
31.1608
 30
0.0
 40
0
 41
0
  0
VERTEX
  8
0
 10
32.5176
 20
31.1639
 30
0.0
 40
0
 41
0
  0
VERTEX
  8
0
 10
32.3264
 20
31.166
 30
0.0
 40
0
 41
0
  0
VERTEX
  8
0
 10
32.1514
 20
31.1667
 30
0.0
 40
0
 41
0
  0
VERTEX
  8
0
 10
32.0931
 20
31.1667
 30
0.0
 40
0
 41
0
  0
VERTEX
  8
0
 10
31.4931
 20
31.1667
 30
0.0
 40
0
 41
0
  0
VERTEX
  8
0
 10
28.9792
 20
28.6528
 30
0.0
 40
0
 41
0
  0
VERTEX
  8
0
 10
28.6875
 20
28.6528
 30
0.0
 40
0
 41
0
  0
VERTEX
  8
0
 10
26.1736
 20
31.1667
 30
0.0
 40
0
 41
0
  0
VERTEX
  8
0
 10
24.6083
 20
31.1667
 30
0.0
 40
0
 41
0
  0
VERTEX
  8
0
 10
24.5296
 20
31.1667
 30
0.0
 40
0
 41
0
  0
VERTEX
  8
0
 10
24.2933
 20
31.1665
 30
0.0
 40
0
 41
0
  0
VERTEX
  8
0
 10
23.9997
 20
31.166
 30
0.0
 40
0
 41
0
  0
VERTEX
  8
0
 10
23.7336
 20
31.165
 30
0.0
 40
0
 41
0
  0
VERTEX
  8
0
 10
23.5015
 20
31.1638
 30
0.0
 40
0
 41
0
  0
VERTEX
  8
0
 10
23.31
 20
31.1622
 30
0.0
 40
0
 41
0
  0
VERTEX
  8
0
 10
23.1651
 20
31.1603
 30
0.0
 40
0
 41
0
  0
VERTEX
  8
0
 10
23.0736
 20
31.1581
 30
0.0
 40
0
 41
0
  0
VERTEX
  8
0
 10
23.0417
 20
31.1563
 30
0.0
 40
0
 41
0
  0
VERTEX
  8
0
 10
23.0417
 20
31.1556
 30
0.0
 40
0
 41
0
  0
SEQEND
 8
0
  0
POLYLINE
  8
0
 62
     0
 66
     1
 10
0
 20
0
 30
0.0
 70
     1
 40
0
 41
0
  0
VERTEX
  8
0
 10
27.3611
 20
31.1556
 30
0.0
 40
0
 41
0
  0
VERTEX
  8
0
 10
27.3611
 20
31.1512
 30
0.0
 40
0
 41
0
  0
VERTEX
  8
0
 10
27.3761
 20
31.1385
 30
0.0
 40
0
 41
0
  0
VERTEX
  8
0
 10
27.4193
 20
31.0935
 30
0.0
 40
0
 41
0
  0
VERTEX
  8
0
 10
27.4874
 20
31.0237
 30
0.0
 40
0
 41
0
  0
VERTEX
  8
0
 10
27.5776
 20
30.9321
 30
0.0
 40
0
 41
0
  0
VERTEX
  8
0
 10
27.6867
 20
30.8219
 30
0.0
 40
0
 41
0
  0
VERTEX
  8
0
 10
27.8117
 20
30.696
 30
0.0
 40
0
 41
0
  0
VERTEX
  8
0
 10
27.9496
 20
30.5576
 30
0.0
 40
0
 41
0
  0
VERTEX
  8
0
 10
28.0603
 20
30.4467
 30
0.0
 40
0
 41
0
  0
VERTEX
  8
0
 10
28.0972
 20
30.4097
 30
0.0
 40
0
 41
0
  0
VERTEX
  8
0
 10
28.8333
 20
29.6736
 30
0.0
 40
0
 41
0
  0
VERTEX
  8
0
 10
30.3264
 20
31.1667
 30
0.0
 40
0
 41
0
  0
VERTEX
  8
0
 10
28.8431
 20
31.1667
 30
0.0
 40
0
 41
0
  0
VERTEX
  8
0
 10
28.7686
 20
31.1667
 30
0.0
 40
0
 41
0
  0
VERTEX
  8
0
 10
28.5453
 20
31.1665
 30
0.0
 40
0
 41
0
  0
VERTEX
  8
0
 10
28.2675
 20
31.166
 30
0.0
 40
0
 41
0
  0
VERTEX
  8
0
 10
28.0158
 20
31.165
 30
0.0
 40
0
 41
0
  0
VERTEX
  8
0
 10
27.7964
 20
31.1638
 30
0.0
 40
0
 41
0
  0
VERTEX
  8
0
 10
27.615
 20
31.1622
 30
0.0
 40
0
 41
0
  0
VERTEX
  8
0
 10
27.4779
 20
31.1603
 30
0.0
 40
0
 41
0
  0
VERTEX
  8
0
 10
27.3914
 20
31.1581
 30
0.0
 40
0
 41
0
  0
VERTEX
  8
0
 10
27.3611
 20
31.1563
 30
0.0
 40
0
 41
0
  0
VERTEX
  8
0
 10
27.3611
 20
31.1556
 30
0.0
 40
0
 41
0
  0
SEQEND
 8
0
  0
POLYLINE
  8
0
 62
     0
 66
     1
 10
0
 20
0
 30
0.0
 70
     1
 40
0
 41
0
  0
VERTEX
  8
0
 10
14.3708
 20
12.0084
 30
0.0
 40
0
 41
0
  0
VERTEX
  8
0
 10
14.3388
 20
11.9354
 30
0.0
 40
0
 41
0
  0
VERTEX
  8
0
 10
14.2428
 20
11.7165
 30
0.0
 40
0
 41
0
  0
VERTEX
  8
0
 10
14.1231
 20
11.4431
 30
0.0
 40
0
 41
0
  0
VERTEX
  8
0
 10
14.0142
 20
11.194
 30
0.0
 40
0
 41
0
  0
VERTEX
  8
0
 10
13.9189
 20
10.9755
 30
0.0
 40
0
 41
0
  0
VERTEX
  8
0
 10
13.8398
 20
10.7937
 30
0.0
 40
0
 41
0
  0
VERTEX
  8
0
 10
13.7796
 20
10.6547
 30
0.0
 40
0
 41
0
  0
VERTEX
  8
0
 10
13.7409
 20
10.5645
 30
0.0
 40
0
 41
0
  0
VERTEX
  8
0
 10
13.7274
 20
10.533
 30
0.0
 40
0
 41
0
  0
VERTEX
  8
0
 10
13.7264
 20
10.5292
 30
0.0
 40
0
 41
0
  0
VERTEX
  8
0
 10
13.7258
 20
10.5269
 30
0.0
 40
0
 41
0
  0
VERTEX
  8
0
 10
13.7248
 20
10.5196
 30
0.0
 40
0
 41
0
  0
VERTEX
  8
0
 10
13.7274
 20
10.5123
 30
0.0
 40
0
 41
0
  0
VERTEX
  8
0
 10
13.7376
 20
10.5072
 30
0.0
 40
0
 41
0
  0
VERTEX
  8
0
 10
13.7587
 20
10.5037
 30
0.0
 40
0
 41
0
  0
VERTEX
  8
0
 10
13.7939
 20
10.5016
 30
0.0
 40
0
 41
0
  0
VERTEX
  8
0
 10
13.8467
 20
10.5005
 30
0.0
 40
0
 41
0
  0
VERTEX
  8
0
 10
13.9203
 20
10.5001
 30
0.0
 40
0
 41
0
  0
VERTEX
  8
0
 10
13.9936
 20
10.5
 30
0.0
 40
0
 41
0
  0
VERTEX
  8
0
 10
14.0181
 20
10.5
 30
0.0
 40
0
 41
0
  0
VERTEX
  8
0
 10
14.3167
 20
10.5
 30
0.0
 40
0
 41
0
  0
VERTEX
  8
0
 10
14.4458
 20
10.8125
 30
0.0
 40
0
 41
0
  0
VERTEX
  8
0
 10
14.5764
 20
11.125
 30
0.0
 40
0
 41
0
  0
VERTEX
  8
0
 10
15.2903
 20
11.1222
 30
0.0
 40
0
 41
0
  0
VERTEX
  8
0
 10
16.0042
 20
11.1181
 30
0.0
 40
0
 41
0
  0
VERTEX
  8
0
 10
16.1333
 20
10.8125
 30
0.0
 40
0
 41
0
  0
VERTEX
  8
0
 10
16.2611
 20
10.5069
 30
0.0
 40
0
 41
0
  0
VERTEX
  8
0
 10
16.575
 20
10.5028
 30
0.0
 40
0
 41
0
  0
VERTEX
  8
0
 10
16.6054
 20
10.5026
 30
0.0
 40
0
 41
0
  0
VERTEX
  8
0
 10
16.6967
 20
10.502
 30
0.0
 40
0
 41
0
  0
VERTEX
  8
0
 10
16.7965
 20
10.5018
 30
0.0
 40
0
 41
0
  0
VERTEX
  8
0
 10
16.864
 20
10.502
 30
0.0
 40
0
 41
0
  0
VERTEX
  8
0
 10
16.8889
 20
10.5026
 30
0.0
 40
0
 41
0
  0
VERTEX
  8
0
 10
16.8889
 20
10.5028
 30
0.0
 40
0
 41
0
  0
VERTEX
  8
0
 10
16.8889
 20
10.5105
 30
0.0
 40
0
 41
0
  0
VERTEX
  8
0
 10
16.8758
 20
10.5338
 30
0.0
 40
0
 41
0
  0
VERTEX
  8
0
 10
16.8385
 20
10.6208
 30
0.0
 40
0
 41
0
  0
VERTEX
  8
0
 10
16.7794
 20
10.7577
 30
0.0
 40
0
 41
0
  0
VERTEX
  8
0
 10
16.7014
 20
10.9384
 30
0.0
 40
0
 41
0
  0
VERTEX
  8
0
 10
16.6069
 20
11.157
 30
0.0
 40
0
 41
0
  0
VERTEX
  8
0
 10
16.4986
 20
11.4073
 30
0.0
 40
0
 41
0
  0
VERTEX
  8
0
 10
16.3793
 20
11.6834
 30
0.0
 40
0
 41
0
  0
VERTEX
  8
0
 10
16.2833
 20
11.9052
 30
0.0
 40
0
 41
0
  0
VERTEX
  8
0
 10
16.2514
 20
11.9792
 30
0.0
 40
0
 41
0
  0
VERTEX
  8
0
 10
15.6139
 20
13.4514
 30
0.0
 40
0
 41
0
  0
VERTEX
  8
0
 10
15.3097
 20
13.4556
 30
0.0
 40
0
 41
0
  0
VERTEX
  8
0
 10
15.0069
 20
13.4583
 30
0.0
 40
0
 41
0
  0
VERTEX
  8
0
 10
14.3708
 20
12.0084
 30
0.0
 40
0
 41
0
  0
SEQEND
 8
0
  0
POLYLINE
  8
0
 62
     0
 66
     1
 10
0
 20
0
 30
0.0
 70
     1
 40
0
 41
0
  0
VERTEX
  8
0
 10
15.5486
 20
12.2153
 30
0.0
 40
0
 41
0
  0
VERTEX
  8
0
 10
15.5603
 20
12.1873
 30
0.0
 40
0
 41
0
  0
VERTEX
  8
0
 10
15.5954
 20
12.1033
 30
0.0
 40
0
 41
0
  0
VERTEX
  8
0
 10
15.6392
 20
11.9982
 30
0.0
 40
0
 41
0
  0
VERTEX
  8
0
 10
15.6792
 20
11.9022
 30
0.0
 40
0
 41
0
  0
VERTEX
  8
0
 10
15.7143
 20
11.8177
 30
0.0
 40
0
 41
0
  0
VERTEX
  8
0
 10
15.7438
 20
11.7472
 30
0.0
 40
0
 41
0
  0
VERTEX
  8
0
 10
15.7664
 20
11.693
 30
0.0
 40
0
 41
0
  0
VERTEX
  8
0
 10
15.7813
 20
11.6576
 30
0.0
 40
0
 41
0
  0
VERTEX
  8
0
 10
15.7864
 20
11.6452
 30
0.0
 40
0
 41
0
  0
VERTEX
  8
0
 10
15.7875
 20
11.6431
 30
0.0
 40
0
 41
0
  0
VERTEX
  8
0
 10
15.7878
 20
11.6424
 30
0.0
 40
0
 41
0
  0
VERTEX
  8
0
 10
15.784
 20
11.6383
 30
0.0
 40
0
 41
0
  0
VERTEX
  8
0
 10
15.7682
 20
11.6344
 30
0.0
 40
0
 41
0
  0
VERTEX
  8
0
 10
15.7379
 20
11.6313
 30
0.0
 40
0
 41
0
  0
VERTEX
  8
0
 10
15.6908
 20
11.6288
 30
0.0
 40
0
 41
0
  0
VERTEX
  8
0
 10
15.6249
 20
11.6271
 30
0.0
 40
0
 41
0
  0
VERTEX
  8
0
 10
15.5381
 20
11.6259
 30
0.0
 40
0
 41
0
  0
VERTEX
  8
0
 10
15.4282
 20
11.6252
 30
0.0
 40
0
 41
0
  0
VERTEX
  8
0
 10
15.3268
 20
11.625
 30
0.0
 40
0
 41
0
  0
VERTEX
  8
0
 10
15.2931
 20
11.625
 30
0.0
 40
0
 41
0
  0
VERTEX
  8
0
 10
15.2443
 20
11.625
 30
0.0
 40
0
 41
0
  0
VERTEX
  8
0
 10
15.0981
 20
11.6255
 30
0.0
 40
0
 41
0
  0
VERTEX
  8
0
 10
14.9387
 20
11.627
 30
0.0
 40
0
 41
0
  0
VERTEX
  8
0
 10
14.8311
 20
11.6291
 30
0.0
 40
0
 41
0
  0
VERTEX
  8
0
 10
14.7917
 20
11.6312
 30
0.0
 40
0
 41
0
  0
VERTEX
  8
0
 10
14.7917
 20
11.6319
 30
0.0
 40
0
 41
0
  0
VERTEX
  8
0
 10
14.7917
 20
11.6356
 30
0.0
 40
0
 41
0
  0
VERTEX
  8
0
 10
14.7971
 20
11.6464
 30
0.0
 40
0
 41
0
  0
VERTEX
  8
0
 10
14.8125
 20
11.6842
 30
0.0
 40
0
 41
0
  0
VERTEX
  8
0
 10
14.8364
 20
11.7422
 30
0.0
 40
0
 41
0
  0
VERTEX
  8
0
 10
14.8675
 20
11.817
 30
0.0
 40
0
 41
0
  0
VERTEX
  8
0
 10
14.9044
 20
11.9052
 30
0.0
 40
0
 41
0
  0
VERTEX
  8
0
 10
14.9457
 20
12.0036
 30
0.0
 40
0
 41
0
  0
VERTEX
  8
0
 10
14.9899
 20
12.1088
 30
0.0
 40
0
 41
0
  0
VERTEX
  8
0
 10
15.0356
 20
12.2174
 30
0.0
 40
0
 41
0
  0
VERTEX
  8
0
 10
15.0814
 20
12.3262
 30
0.0
 40
0
 41
0
  0
VERTEX
  8
0
 10
15.126
 20
12.4317
 30
0.0
 40
0
 41
0
  0
VERTEX
  8
0
 10
15.1679
 20
12.5307
 30
0.0
 40
0
 41
0
  0
VERTEX
  8
0
 10
15.2058
 20
12.6198
 30
0.0
 40
0
 41
0
  0
VERTEX
  8
0
 10
15.2383
 20
12.6958
 30
0.0
 40
0
 41
0
  0
VERTEX
  8
0
 10
15.2639
 20
12.7552
 30
0.0
 40
0
 41
0
  0
VERTEX
  8
0
 10
15.2813
 20
12.7948
 30
0.0
 40
0
 41
0
  0
VERTEX
  8
0
 10
15.2865
 20
12.8073
 30
0.0
 40
0
 41
0
  0
VERTEX
  8
0
 10
15.2889
 20
12.8111
 30
0.0
 40
0
 41
0
  0
VERTEX
  8
0
 10
15.2896
 20
12.8123
 30
0.0
 40
0
 41
0
  0
VERTEX
  8
0
 10
15.2974
 20
12.8125
 30
0.0
 40
0
 41
0
  0
VERTEX
  8
0
 10
15.3056
 20
12.8011
 30
0.0
 40
0
 41
0
  0
VERTEX
  8
0
 10
15.3069
 20
12.7972
 30
0.0
 40
0
 41
0
  0
VERTEX
  8
0
 10
15.3083
 20
12.7937
 30
0.0
 40
0
 41
0
  0
VERTEX
  8
0
 10
15.3137
 20
12.7808
 30
0.0
 40
0
 41
0
  0
VERTEX
  8
0
 10
15.329
 20
12.7434
 30
0.0
 40
0
 41
0
  0
VERTEX
  8
0
 10
15.3522
 20
12.6876
 30
0.0
 40
0
 41
0
  0
VERTEX
  8
0
 10
15.3819
 20
12.6156
 30
0.0
 40
0
 41
0
  0
VERTEX
  8
0
 10
15.4174
 20
12.5301
 30
0.0
 40
0
 41
0
  0
VERTEX
  8
0
 10
15.4576
 20
12.4332
 30
0.0
 40
0
 41
0
  0
VERTEX
  8
0
 10
15.5018
 20
12.3275
 30
0.0
 40
0
 41
0
  0
VERTEX
  8
0
 10
15.5369
 20
12.2433
 30
0.0
 40
0
 41
0
  0
VERTEX
  8
0
 10
15.5486
 20
12.2153
 30
0.0
 40
0
 41
0
  0
SEQEND
 8
0
  0
POLYLINE
  8
0
 62
     0
 66
     1
 10
0
 20
0
 30
0.0
 70
     1
 40
0
 41
0
  0
VERTEX
  8
0
 10
20.9861
 20
11.9792
 30
0.0
 40
0
 41
0
  0
VERTEX
  8
0
 10
20.9861
 20
10.5
 30
0.0
 40
0
 41
0
  0
VERTEX
  8
0
 10
21.5556
 20
10.5
 30
0.0
 40
0
 41
0
  0
VERTEX
  8
0
 10
21.5583
 20
11.4972
 30
0.0
 40
0
 41
0
  0
VERTEX
  8
0
 10
21.5625
 20
12.4945
 30
0.0
 40
0
 41
0
  0
VERTEX
  8
0
 10
22.3056
 20
11.4972
 30
0.0
 40
0
 41
0
  0
VERTEX
  8
0
 10
23.0486
 20
10.5014
 30
0.0
 40
0
 41
0
  0
VERTEX
  8
0
 10
23.3306
 20
10.5
 30
0.0
 40
0
 41
0
  0
VERTEX
  8
0
 10
23.6111
 20
10.5
 30
0.0
 40
0
 41
0
  0
VERTEX
  8
0
 10
23.6111
 20
13.4583
 30
0.0
 40
0
 41
0
  0
VERTEX
  8
0
 10
23.0417
 20
13.4583
 30
0.0
 40
0
 41
0
  0
VERTEX
  8
0
 10
23.0389
 20
12.4556
 30
0.0
 40
0
 41
0
  0
VERTEX
  8
0
 10
23.0347
 20
11.4542
 30
0.0
 40
0
 41
0
  0
VERTEX
  8
0
 10
22.2847
 20
12.4556
 30
0.0
 40
0
 41
0
  0
VERTEX
  8
0
 10
21.5361
 20
13.4583
 30
0.0
 40
0
 41
0
  0
VERTEX
  8
0
 10
20.9861
 20
13.4583
 30
0.0
 40
0
 41
0
  0
VERTEX
  8
0
 10
20.9861
 20
11.9792
 30
0.0
 40
0
 41
0
  0
SEQEND
 8
0
  0
POLYLINE
  8
0
 62
     0
 66
     1
 10
0
 20
0
 30
0.0
 70
     1
 40
0
 41
0
  0
VERTEX
  8
0
 10
28.0694
 20
11.9792
 30
0.0
 40
0
 41
0
  0
VERTEX
  8
0
 10
28.0694
 20
10.5
 30
0.0
 40
0
 41
0
  0
VERTEX
  8
0
 10
28.6389
 20
10.5
 30
0.0
 40
0
 41
0
  0
VERTEX
  8
0
 10
28.6417
 20
11.4986
 30
0.0
 40
0
 41
0
  0
VERTEX
  8
0
 10
28.6458
 20
12.4958
 30
0.0
 40
0
 41
0
  0
VERTEX
  8
0
 10
29.3889
 20
11.4986
 30
0.0
 40
0
 41
0
  0
VERTEX
  8
0
 10
30.1319
 20
10.5014
 30
0.0
 40
0
 41
0
  0
VERTEX
  8
0
 10
30.4139
 20
10.5
 30
0.0
 40
0
 41
0
  0
VERTEX
  8
0
 10
30.6944
 20
10.5
 30
0.0
 40
0
 41
0
  0
VERTEX
  8
0
 10
30.6944
 20
13.4583
 30
0.0
 40
0
 41
0
  0
VERTEX
  8
0
 10
30.125
 20
13.4583
 30
0.0
 40
0
 41
0
  0
VERTEX
  8
0
 10
30.1222
 20
12.4569
 30
0.0
 40
0
 41
0
  0
VERTEX
  8
0
 10
30.1181
 20
11.4542
 30
0.0
 40
0
 41
0
  0
VERTEX
  8
0
 10
29.3694
 20
12.4569
 30
0.0
 40
0
 41
0
  0
VERTEX
  8
0
 10
28.6208
 20
13.4583
 30
0.0
 40
0
 41
0
  0
VERTEX
  8
0
 10
28.0694
 20
13.4583
 30
0.0
 40
0
 41
0
  0
VERTEX
  8
0
 10
28.0694
 20
11.9792
 30
0.0
 40
0
 41
0
  0
SEQEND
 8
0
  0
POLYLINE
  8
0
 62
     0
 66
     1
 10
0
 20
0
 30
0.0
 70
     1
 40
0
 41
0
  0
VERTEX
  8
0
 10
35.1528
 20
11.9792
 30
0.0
 40
0
 41
0
  0
VERTEX
  8
0
 10
35.1528
 20
10.5
 30
0.0
 40
0
 41
0
  0
VERTEX
  8
0
 10
37.375
 20
10.5
 30
0.0
 40
0
 41
0
  0
VERTEX
  8
0
 10
37.375
 20
11
 30
0.0
 40
0
 41
0
  0
VERTEX
  8
0
 10
35.7361
 20
11
 30
0.0
 40
0
 41
0
  0
VERTEX
  8
0
 10
35.7361
 20
11.7361
 30
0.0
 40
0
 41
0
  0
VERTEX
  8
0
 10
37.1667
 20
11.7361
 30
0.0
 40
0
 41
0
  0
VERTEX
  8
0
 10
37.1667
 20
12.2361
 30
0.0
 40
0
 41
0
  0
VERTEX
  8
0
 10
35.7361
 20
12.2361
 30
0.0
 40
0
 41
0
  0
VERTEX
  8
0
 10
35.7361
 20
12.9583
 30
0.0
 40
0
 41
0
  0
VERTEX
  8
0
 10
37.3333
 20
12.9583
 30
0.0
 40
0
 41
0
  0
VERTEX
  8
0
 10
37.3333
 20
13.4583
 30
0.0
 40
0
 41
0
  0
VERTEX
  8
0
 10
35.1528
 20
13.4583
 30
0.0
 40
0
 41
0
  0
VERTEX
  8
0
 10
35.1528
 20
11.9792
 30
0.0
 40
0
 41
0
  0
SEQEND
 8
0
  0
POLYLINE
  8
0
 62
     0
 66
     1
 10
0
 20
0
 30
0.0
 70
     1
 40
0
 41
0
  0
VERTEX
  8
0
 10
41.3792
 20
13.4403
 30
0.0
 40
0
 41
0
  0
VERTEX
  8
0
 10
41.3806
 20
13.4365
 30
0.0
 40
0
 41
0
  0
VERTEX
  8
0
 10
41.3885
 20
13.4254
 30
0.0
 40
0
 41
0
  0
VERTEX
  8
0
 10
41.4133
 20
13.3883
 30
0.0
 40
0
 41
0
  0
VERTEX
  8
0
 10
41.4515
 20
13.3318
 30
0.0
 40
0
 41
0
  0
VERTEX
  8
0
 10
41.5014
 20
13.2587
 30
0.0
 40
0
 41
0
  0
VERTEX
  8
0
 10
41.5608
 20
13.1717
 30
0.0
 40
0
 41
0
  0
VERTEX
  8
0
 10
41.6279
 20
13.0737
 30
0.0
 40
0
 41
0
  0
VERTEX
  8
0
 10
41.7008
 20
12.9676
 30
0.0
 40
0
 41
0
  0
VERTEX
  8
0
 10
41.7775
 20
12.8559
 30
0.0
 40
0
 41
0
  0
VERTEX
  8
0
 10
41.8562
 20
12.7416
 30
0.0
 40
0
 41
0
  0
VERTEX
  8
0
 10
41.935
 20
12.6276
 30
0.0
 40
0
 41
0
  0
VERTEX
  8
0
 10
42.0118
 20
12.5164
 30
0.0
 40
0
 41
0
  0
VERTEX
  8
0
 10
42.0849
 20
12.411
 30
0.0
 40
0
 41
0
  0
VERTEX
  8
0
 10
42.1521
 20
12.3141
 30
0.0
 40
0
 41
0
  0
VERTEX
  8
0
 10
42.2115
 20
12.2286
 30
0.0
 40
0
 41
0
  0
VERTEX
  8
0
 10
42.2615
 20
12.1572
 30
0.0
 40
0
 41
0
  0
VERTEX
  8
0
 10
42.2904
 20
12.1164
 30
0.0
 40
0
 41
0
  0
VERTEX
  8
0
 10
42.3
 20
12.1028
 30
0.0
 40
0
 41
0
  0
VERTEX
  8
0
 10
42.3597
 20
12.0181
 30
0.0
 40
0
 41
0
  0
VERTEX
  8
0
 10
41.8333
 20
11.2694
 30
0.0
 40
0
 41
0
  0
VERTEX
  8
0
 10
41.8068
 20
11.2319
 30
0.0
 40
0
 41
0
  0
VERTEX
  8
0
 10
41.7272
 20
11.1191
 30
0.0
 40
0
 41
0
  0
VERTEX
  8
0
 10
41.6283
 20
10.9783
 30
0.0
 40
0
 41
0
  0
VERTEX
  8
0
 10
41.5388
 20
10.8503
 30
0.0
 40
0
 41
0
  0
VERTEX
  8
0
 10
41.4606
 20
10.7382
 30
0.0
 40
0
 41
0
  0
VERTEX
  8
0
 10
41.396
 20
10.6451
 30
0.0
 40
0
 41
0
  0
VERTEX
  8
0
 10
41.3472
 20
10.5742
 30
0.0
 40
0
 41
0
  0
VERTEX
  8
0
 10
41.3163
 20
10.5285
 30
0.0
 40
0
 41
0
  0
VERTEX
  8
0
 10
41.3056
 20
10.5155
 30
0.0
 40
0
 41
0
  0
VERTEX
  8
0
 10
41.3056
 20
10.5111
 30
0.0
 40
0
 41
0
  0
VERTEX
  8
0
 10
41.3056
 20
10.51
 30
0.0
 40
0
 41
0
  0
VERTEX
  8
0
 10
41.3321
 20
10.5065
 30
0.0
 40
0
 41
0
  0
VERTEX
  8
0
 10
41.4044
 20
10.503
 30
0.0
 40
0
 41
0
  0
VERTEX
  8
0
 10
41.5118
 20
10.5008
 30
0.0
 40
0
 41
0
  0
VERTEX
  8
0
 10
41.6103
 20
10.5
 30
0.0
 40
0
 41
0
  0
VERTEX
  8
0
 10
41.6431
 20
10.5
 30
0.0
 40
0
 41
0
  0
VERTEX
  8
0
 10
41.9792
 20
10.5
 30
0.0
 40
0
 41
0
  0
VERTEX
  8
0
 10
42.3472
 20
11.0208
 30
0.0
 40
0
 41
0
  0
VERTEX
  8
0
 10
42.3657
 20
11.0468
 30
0.0
 40
0
 41
0
  0
VERTEX
  8
0
 10
42.4214
 20
11.1247
 30
0.0
 40
0
 41
0
  0
VERTEX
  8
0
 10
42.491
 20
11.2214
 30
0.0
 40
0
 41
0
  0
VERTEX
  8
0
 10
42.5543
 20
11.3087
 30
0.0
 40
0
 41
0
  0
VERTEX
  8
0
 10
42.6099
 20
11.3846
 30
0.0
 40
0
 41
0
  0
VERTEX
  8
0
 10
42.6561
 20
11.4468
 30
0.0
 40
0
 41
0
  0
VERTEX
  8
0
 10
42.6915
 20
11.4933
 30
0.0
 40
0
 41
0
  0
VERTEX
  8
0
 10
42.7146
 20
11.522
 30
0.0
 40
0
 41
0
  0
VERTEX
  8
0
 10
42.7236
 20
11.5305
 30
0.0
 40
0
 41
0
  0
VERTEX
  8
0
 10
42.7236
 20
11.5305
 30
0.0
 40
0
 41
0
  0
VERTEX
  8
0
 10
42.7247
 20
11.5292
 30
0.0
 40
0
 41
0
  0
VERTEX
  8
0
 10
42.7326
 20
11.5182
 30
0.0
 40
0
 41
0
  0
VERTEX
  8
0
 10
42.7554
 20
11.4865
 30
0.0
 40
0
 41
0
  0
VERTEX
  8
0
 10
42.7906
 20
11.4378
 30
0.0
 40
0
 41
0
  0
VERTEX
  8
0
 10
42.8364
 20
11.374
 30
0.0
 40
0
 41
0
  0
VERTEX
  8
0
 10
42.8917
 20
11.2973
 30
0.0
 40
0
 41
0
  0
VERTEX
  8
0
 10
42.9544
 20
11.2099
 30
0.0
 40
0
 41
0
  0
VERTEX
  8
0
 10
43.0235
 20
11.1138
 30
0.0
 40
0
 41
0
  0
VERTEX
  8
0
 10
43.0787
 20
11.0368
 30
0.0
 40
0
 41
0
  0
VERTEX
  8
0
 10
43.0972
 20
11.0111
 30
0.0
 40
0
 41
0
  0
VERTEX
  8
0
 10
43.4625
 20
10.5
 30
0.0
 40
0
 41
0
  0
VERTEX
  8
0
 10
43.8069
 20
10.5
 30
0.0
 40
0
 41
0
  0
VERTEX
  8
0
 10
43.8406
 20
10.5
 30
0.0
 40
0
 41
0
  0
VERTEX
  8
0
 10
43.9413
 20
10.5008
 30
0.0
 40
0
 41
0
  0
VERTEX
  8
0
 10
44.0512
 20
10.5027
 30
0.0
 40
0
 41
0
  0
VERTEX
  8
0
 10
44.1256
 20
10.5053
 30
0.0
 40
0
 41
0
  0
VERTEX
  8
0
 10
44.1528
 20
10.5076
 30
0.0
 40
0
 41
0
  0
VERTEX
  8
0
 10
44.1528
 20
10.5084
 30
0.0
 40
0
 41
0
  0
VERTEX
  8
0
 10
44.1528
 20
10.5126
 30
0.0
 40
0
 41
0
  0
VERTEX
  8
0
 10
44.1418
 20
10.5255
 30
0.0
 40
0
 41
0
  0
VERTEX
  8
0
 10
44.1106
 20
10.5716
 30
0.0
 40
0
 41
0
  0
VERTEX
  8
0
 10
44.0612
 20
10.6435
 30
0.0
 40
0
 41
0
  0
VERTEX
  8
0
 10
43.996
 20
10.738
 30
0.0
 40
0
 41
0
  0
VERTEX
  8
0
 10
43.9169
 20
10.8521
 30
0.0
 40
0
 41
0
  0
VERTEX
  8
0
 10
43.8264
 20
10.9824
 30
0.0
 40
0
 41
0
  0
VERTEX
  8
0
 10
43.7265
 20
11.1258
 30
0.0
 40
0
 41
0
  0
VERTEX
  8
0
 10
43.6463
 20
11.2409
 30
0.0
 40
0
 41
0
  0
VERTEX
  8
0
 10
43.6194
 20
11.2792
 30
0.0
 40
0
 41
0
  0
VERTEX
  8
0
 10
43.0861
 20
12.0431
 30
0.0
 40
0
 41
0
  0
VERTEX
  8
0
 10
43.5778
 20
12.7431
 30
0.0
 40
0
 41
0
  0
VERTEX
  8
0
 10
43.6025
 20
12.7783
 30
0.0
 40
0
 41
0
  0
VERTEX
  8
0
 10
43.6767
 20
12.8842
 30
0.0
 40
0
 41
0
  0
VERTEX
  8
0
 10
43.7689
 20
13.0161
 30
0.0
 40
0
 41
0
  0
VERTEX
  8
0
 10
43.8524
 20
13.1358
 30
0.0
 40
0
 41
0
  0
VERTEX
  8
0
 10
43.9251
 20
13.2405
 30
0.0
 40
0
 41
0
  0
VERTEX
  8
0
 10
43.9853
 20
13.3273
 30
0.0
 40
0
 41
0
  0
VERTEX
  8
0
 10
44.0307
 20
13.3933
 30
0.0
 40
0
 41
0
  0
VERTEX
  8
0
 10
44.0594
 20
13.4356
 30
0.0
 40
0
 41
0
  0
VERTEX
  8
0
 10
44.0694
 20
13.4475
 30
0.0
 40
0
 41
0
  0
VERTEX
  8
0
 10
44.0694
 20
13.4514
 30
0.0
 40
0
 41
0
  0
VERTEX
  8
0
 10
44.0694
 20
13.4522
 30
0.0
 40
0
 41
0
  0
VERTEX
  8
0
 10
44.0424
 20
13.4543
 30
0.0
 40
0
 41
0
  0
VERTEX
  8
0
 10
43.9688
 20
13.4564
 30
0.0
 40
0
 41
0
  0
VERTEX
  8
0
 10
43.8596
 20
13.4578
 30
0.0
 40
0
 41
0
  0
VERTEX
  8
0
 10
43.7597
 20
13.4583
 30
0.0
 40
0
 41
0
  0
VERTEX
  8
0
 10
43.7264
 20
13.4583
 30
0.0
 40
0
 41
0
  0
VERTEX
  8
0
 10
43.3819
 20
13.4569
 30
0.0
 40
0
 41
0
  0
VERTEX
  8
0
 10
43.0486
 20
12.9806
 30
0.0
 40
0
 41
0
  0
VERTEX
  8
0
 10
42.7167
 20
12.5028
 30
0.0
 40
0
 41
0
  0
VERTEX
  8
0
 10
42.6111
 20
12.6528
 30
0.0
 40
0
 41
0
  0
VERTEX
  8
0
 10
42.5968
 20
12.6733
 30
0.0
 40
0
 41
0
  0
VERTEX
  8
0
 10
42.5528
 20
12.7364
 30
0.0
 40
0
 41
0
  0
VERTEX
  8
0
 10
42.4706
 20
12.854
 30
0.0
 40
0
 41
0
  0
VERTEX
  8
0
 10
42.3751
 20
12.9901
 30
0.0
 40
0
 41
0
  0
VERTEX
  8
0
 10
42.3021
 20
13.0945
 30
0.0
 40
0
 41
0
  0
VERTEX
  8
0
 10
42.2778
 20
13.1292
 30
0.0
 40
0
 41
0
  0
VERTEX
  8
0
 10
42.0486
 20
13.4583
 30
0.0
 40
0
 41
0
  0
VERTEX
  8
0
 10
41.7097
 20
13.4583
 30
0.0
 40
0
 41
0
  0
VERTEX
  8
0
 10
41.6679
 20
13.4583
 30
0.0
 40
0
 41
0
  0
VERTEX
  8
0
 10
41.5424
 20
13.4575
 30
0.0
 40
0
 41
0
  0
VERTEX
  8
0
 10
41.4403
 20
13.4545
 30
0.0
 40
0
 41
0
  0
VERTEX
  8
0
 10
41.3901
 20
13.449
 30
0.0
 40
0
 41
0
  0
VERTEX
  8
0
 10
41.3788
 20
13.4412
 30
0.0
 40
0
 41
0
  0
VERTEX
  8
0
 10
41.3792
 20
13.4403
 30
0.0
 40
0
 41
0
  0
SEQEND
 8
0
  0
ENDSEC
  0
EOF
