<?xml version="1.0" standalone="no"?>
<!DOCTYPE svg PUBLIC "-//W3C//DTD SVG 20010904//EN"
 "http://www.w3.org/TR/2001/REC-SVG-20010904/DTD/svg10.dtd">
<svg version="1.0" xmlns="http://www.w3.org/2000/svg"
 width="4167.000000pt" height="4167.000000pt" viewBox="0 0 4167.000000 4167.000000"
 preserveAspectRatio="xMidYMid meet">
<metadata>
Created by potrace 1.16, written by Peter Selinger 2001-2019
</metadata>
<g transform="translate(0.000000,4167.000000) scale(0.100000,-0.100000)"
fill="#000000" stroke="none">
<path d="M25375 34114 c-212 -24 -355 -81 -509 -204 -169 -134 -291 -346 -327
-564 -18 -117 -7 -301 25 -411 98 -327 361 -569 699 -640 90 -20 278 -19 375
1 169 35 328 120 453 244 117 116 185 226 233 377 134 426 -52 882 -446 1092
-148 79 -353 122 -503 105z m191 -643 c189 -84 239 -325 99 -479 -83 -93 -223
-122 -336 -70 -253 116 -238 467 24 560 65 23 145 19 213 -11z"/>
<path d="M18220 31265 l-1855 -1855 -694 0 -695 0 -3055 -3052 c-1681 -1679
-3057 -3056 -3059 -3060 -2 -5 4983 -8 11077 -8 l11080 0 35 -74 c117 -253
332 -434 601 -507 106 -29 344 -32 448 -6 335 84 598 343 677 669 43 173 35
367 -21 530 -99 290 -336 508 -639 589 -122 33 -339 33 -459 1 -274 -74 -491
-255 -608 -508 l-34 -74 -10337 0 -10337 0 2440 2440 2440 2440 700 0 700 0
1727 1727 1728 1728 713 -713 712 -712 685 0 685 0 947 -947 948 -948 337 337
338 337 1839 -1836 1839 -1836 -13 -31 c-7 -17 -24 -67 -37 -111 -34 -109 -43
-314 -19 -434 36 -175 117 -330 241 -456 130 -133 270 -214 442 -257 123 -31
332 -30 448 1 98 26 228 87 309 145 71 51 178 160 225 229 119 174 176 411
151 622 -38 319 -221 580 -507 724 -203 102 -482 120 -698 44 -38 -13 -78 -27
-88 -30 -13 -4 -518 494 -2070 2046 -1129 1128 -2057 2051 -2062 2051 -6 0
-160 -150 -342 -332 l-333 -333 -813 813 -812 812 -685 0 -685 0 -845 845
c-465 465 -847 845 -850 845 -3 0 -840 -835 -1860 -1855z m11869 -5466 c188
-94 226 -337 74 -480 -124 -119 -297 -116 -419 5 -117 118 -116 302 2 419 65
65 115 85 215 86 55 1 76 -4 128 -30z m1940 -1935 c268 -145 180 -542 -125
-562 -62 -4 -79 -1 -130 22 -77 35 -120 77 -155 151 -78 162 3 345 180 412 60
22 167 12 230 -23z"/>
<path d="M19940 30869 c-293 -45 -555 -238 -685 -504 -71 -144 -88 -222 -88
-405 -1 -179 16 -257 83 -398 50 -104 86 -157 168 -244 244 -258 637 -348 981
-223 l74 27 936 -936 936 -936 1393 0 1392 0 0 -1015 0 -1015 614 0 613 0 17
-42 c50 -133 186 -304 312 -394 81 -58 211 -119 309 -145 116 -31 325 -32 450
-1 341 85 609 363 679 704 21 99 21 277 0 376 -20 96 -62 207 -111 292 -55 95
-227 263 -326 319 -162 91 -316 127 -512 118 -342 -14 -640 -213 -780 -519
l-40 -88 -307 0 -308 0 0 1015 0 1015 -1567 0 -1568 0 -846 846 -847 847 20
46 c11 25 29 84 41 131 27 110 30 321 4 422 -87 350 -333 601 -675 689 -91 23
-269 32 -362 18z m263 -637 c110 -49 183 -171 174 -292 -11 -161 -137 -280
-297 -280 -87 0 -147 25 -211 89 -70 71 -94 133 -87 231 15 207 231 336 421
252z m7143 -4426 c197 -92 239 -354 79 -495 -67 -59 -112 -76 -200 -76 -67 0
-88 5 -130 27 -133 70 -200 216 -161 350 50 174 252 269 412 194z"/>
<path d="M19901 28130 c-69 -15 -170 -50 -236 -83 -180 -89 -351 -270 -428
-452 l-25 -60 -1789 -3 -1788 -2 -560 -560 -561 -561 -59 16 c-100 27 -293 31
-405 7 -400 -83 -690 -405 -730 -810 -28 -290 78 -569 289 -765 117 -108 251
-180 407 -219 124 -30 313 -31 437 0 225 56 418 191 546 383 104 155 151 315
151 513 0 165 -31 296 -103 431 l-34 63 446 446 446 446 1653 -2 1654 -3 25
-60 c82 -195 255 -371 455 -464 148 -70 314 -97 480 -80 118 12 192 32 296 80
338 156 549 506 529 879 -13 232 -98 429 -256 593 -113 118 -229 189 -391 242
-76 25 -102 28 -245 31 -88 2 -180 -1 -204 -6z m301 -632 c62 -26 140 -111
162 -174 36 -106 13 -213 -65 -298 -63 -69 -130 -100 -219 -100 -203 -1 -350
204 -284 397 9 26 36 70 61 97 94 105 218 133 345 78z m-5853 -1688 c73 -34
118 -76 153 -147 26 -54 32 -77 32 -132 0 -113 -64 -214 -168 -269 -43 -22
-64 -27 -131 -27 -67 0 -88 5 -130 27 -109 58 -169 154 -169 273 1 117 60 211
166 264 51 26 73 31 132 31 49 0 85 -7 115 -20z"/>
<path d="M16770 26431 c-356 -78 -638 -368 -705 -726 -25 -129 -16 -309 19
-430 107 -357 400 -606 772 -656 392 -52 792 174 950 536 l28 65 2337 0 2337
0 23 -56 c52 -130 183 -293 305 -380 81 -58 211 -119 309 -145 117 -31 326
-31 449 -1 97 24 228 82 301 132 190 130 334 350 382 578 22 107 14 339 -16
437 -95 315 -329 545 -647 637 -68 20 -101 23 -244 22 -150 0 -173 -3 -253
-27 -267 -82 -475 -265 -583 -511 l-28 -66 -2338 0 c-1724 0 -2338 3 -2338 11
0 6 -18 48 -41 93 -115 232 -313 397 -566 472 -120 36 -326 43 -453 15z m328
-631 c112 -56 167 -145 166 -270 0 -89 -24 -148 -86 -209 -147 -147 -383 -107
-477 81 -50 100 -41 217 22 299 70 92 140 128 248 129 54 0 77 -6 127 -30z
m6398 6 c67 -31 120 -86 152 -155 66 -143 4 -312 -142 -389 -43 -22 -64 -27
-131 -27 -67 0 -88 5 -130 27 -109 58 -169 154 -169 273 1 117 60 211 166 264
81 41 176 43 254 7z"/>
<path d="M12335 19810 l2630 -2630 695 0 695 0 1862 -1862 1863 -1863 848 848
847 847 680 0 680 0 817 817 818 818 337 -337 338 -337 2913 2905 c1601 1598
2912 2909 2912 2912 0 4 -57 34 -127 67 -129 60 -276 152 -365 227 l-48 40
-2642 -2637 -2642 -2636 -338 338 -338 338 -948 -948 -947 -947 -680 0 -680 0
-717 -717 -718 -718 -1728 1728 -1727 1727 -695 0 -695 0 -2325 2325 -2325
2325 -440 0 -440 0 2630 -2630z"/>
<path d="M13450 20415 l2025 -2025 695 0 695 0 1607 -1607 1608 -1608 598 598
597 597 680 0 680 0 1067 1067 1068 1068 340 -340 339 -339 2306 2304 2306
2305 -438 3 -438 2 -1867 -1867 -1868 -1868 -338 338 -337 337 -1200 -1200
-1200 -1200 -685 0 -685 0 -462 -462 -463 -463 -1478 1478 -1477 1477 -695 0
-695 0 -1715 1715 -1715 1715 -440 0 -440 0 2025 -2025z"/>
<path d="M14560 21025 l1415 -1415 695 0 695 0 1357 -1357 1358 -1358 343 343
342 342 685 0 685 0 1320 1320 1320 1320 337 -337 338 -338 1448 1448 1447
1447 -440 0 -440 0 -1010 -1010 -1010 -1010 -337 337 -338 338 -1448 -1448
-1447 -1447 -685 0 -685 0 -212 -212 -213 -213 -1223 1223 -1222 1222 -695 0
-695 0 -1110 1110 -1110 1110 -440 0 -440 0 1415 -1415z"/>
<path d="M14870 22432 c0 -4 361 -368 803 -810 l802 -802 700 0 700 0 1005
-1005 1005 -1005 880 0 880 0 1562 1562 1563 1563 333 -333 c182 -182 337
-332 342 -332 6 0 273 263 595 585 l585 585 -1115 0 -1115 0 -1515 -1515
-1515 -1515 -600 0 -600 0 -1015 1015 -1015 1015 -700 0 -700 0 -500 500 -500
500 -432 0 c-238 0 -433 -3 -433 -8z"/>
<path d="M16590 22432 c0 -4 87 -94 193 -200 l192 -192 700 0 700 0 1015
-1015 1015 -1015 360 0 360 0 1208 1208 c664 664 1207 1210 1207 1215 0 4
-195 7 -433 7 l-432 0 -905 -905 -905 -905 -105 0 -105 0 -905 905 -905 905
-1127 0 c-621 0 -1128 -3 -1128 -8z"/>
<path d="M19700 22432 c0 -4 239 -246 530 -537 l530 -530 538 538 537 537
-1068 0 c-587 0 -1067 -3 -1067 -8z"/>
<path d="M10347 8646 c-252 -574 -461 -1054 -464 -1065 -5 -21 -3 -21 210 -21
l215 0 93 225 94 225 514 -2 514 -3 93 -220 92 -220 226 -3 c124 -1 226 -1
226 0 0 2 -207 480 -459 1063 l-459 1060 -219 3 -218 2 -458 -1044z m848 149
c92 -220 169 -406 172 -412 4 -10 -71 -13 -356 -13 -199 0 -361 2 -361 5 0 6
349 835 358 849 3 5 9 1 13 -10 4 -10 82 -199 174 -419z"/>
<path d="M15110 8625 l0 -1065 205 0 205 0 2 718 3 718 535 -718 535 -717 203
-1 202 0 0 1065 0 1065 -205 0 -205 0 -2 -722 -3 -721 -540 721 -539 722 -198
0 -198 0 0 -1065z"/>
<path d="M20210 8625 l0 -1065 205 0 205 0 2 719 3 718 535 -718 535 -718 203
-1 202 0 0 1065 0 1065 -205 0 -205 0 -2 -721 -3 -722 -539 722 -539 721 -198
0 -199 0 0 -1065z"/>
<path d="M25310 8625 l0 -1065 800 0 800 0 0 180 0 180 -590 0 -590 0 0 265 0
265 515 0 515 0 0 180 0 180 -515 0 -515 0 0 260 0 260 575 0 575 0 0 180 0
180 -785 0 -785 0 0 -1065z"/>
<path d="M29793 9677 c4 -11 540 -790 663 -963 l43 -61 -379 -539 c-209 -296
-380 -542 -380 -546 0 -5 109 -8 243 -8 l242 0 265 375 c146 205 268 371 271
367 3 -4 124 -172 269 -374 l263 -368 248 0 c137 0 249 3 249 6 0 3 -173 253
-384 555 l-384 550 354 504 c195 278 354 507 354 510 0 3 -111 5 -247 5 l-248
-1 -240 -343 -239 -344 -76 108 c-41 59 -149 213 -240 343 l-165 237 -244 0
c-196 0 -242 -3 -238 -13z"/>
</g>
</svg>
