  0
SECTION
  2
HEADER
  9
$ACADVER
  1
AC1009
  9
$EXTMIN
 10
0.0
 20
0.0
 30
0.0
  9
$EXTMAX
 10
1000.0
 20
1000.0
 30
0.0
  9
$FILLMODE
 70
 0
  9
$SPLFRAME
 70
 1
  0
ENDSEC
  0
SECTION
  2
TABLES
  0
TABLE
  2
LAYER
 70
1
  0
LAYER
  2
0
 70
     0
 62
     7
  6
CONTINUOUS
  0
ENDTAB
  0
ENDSEC
  0
SECTION
  2
ENTITIES
  0
POLYLINE
  8
0
 62
     0
 66
     1
 10
0
 20
0
 30
0.0
 70
     1
 40
0
 41
0
  0
VERTEX
  8
0
 10
2.66461
 20
2.07835
 30
0.0
 40
0
 41
0
  0
VERTEX
  8
0
 10
2.62011
 20
2.12283
 30
0.0
 40
0
 41
0
  0
VERTEX
  8
0
 10
2.57596
 20
2.16732
 30
0.0
 40
0
 41
0
  0
VERTEX
  8
0
 10
2.53114
 20
2.21126
 30
0.0
 40
0
 41
0
  0
VERTEX
  8
0
 10
2.49533
 20
2.24707
 30
0.0
 40
0
 41
0
  0
VERTEX
  8
0
 10
1.93283
 20
2.24707
 30
0.0
 40
0
 41
0
  0
VERTEX
  8
0
 10
2.03157
 20
2.14833
 30
0.0
 40
0
 41
0
  0
VERTEX
  8
0
 10
2.37956
 20
2.14833
 30
0.0
 40
0
 41
0
  0
VERTEX
  8
0
 10
2.46853
 20
2.05935
 30
0.0
 40
0
 41
0
  0
VERTEX
  8
0
 10
2.51303
 20
2.01492
 30
0.0
 40
0
 41
0
  0
VERTEX
  8
0
 10
2.602
 20
1.92594
 30
0.0
 40
0
 41
0
  0
VERTEX
  8
0
 10
2.69092
 20
1.83697
 30
0.0
 40
0
 41
0
  0
VERTEX
  8
0
 10
2.88574
 20
1.64231
 30
0.0
 40
0
 41
0
  0
VERTEX
  8
0
 10
3.06467
 20
1.64231
 30
0.0
 40
0
 41
0
  0
VERTEX
  8
0
 10
3.22553
 20
1.80311
 30
0.0
 40
0
 41
0
  0
VERTEX
  8
0
 10
3.3329
 20
1.91054
 30
0.0
 40
0
 41
0
  0
VERTEX
  8
0
 10
3.54769
 20
2.12532
 30
0.0
 40
0
 41
0
  0
VERTEX
  8
0
 10
3.65511
 20
2.23269
 30
0.0
 40
0
 41
0
  0
VERTEX
  8
0
 10
3.6696
 20
2.24707
 30
0.0
 40
0
 41
0
  0
VERTEX
  8
0
 10
3.45449
 20
2.24707
 30
0.0
 40
0
 41
0
  0
VERTEX
  8
0
 10
3.44054
 20
2.23324
 30
0.0
 40
0
 41
0
  0
VERTEX
  8
0
 10
3.22575
 20
2.01844
 30
0.0
 40
0
 41
0
  0
VERTEX
  8
0
 10
3.11762
 20
1.91103
 30
0.0
 40
0
 41
0
  0
VERTEX
  8
0
 10
3.00146
 20
1.7946
 30
0.0
 40
0
 41
0
  0
VERTEX
  8
0
 10
2.94835
 20
1.7946
 30
0.0
 40
0
 41
0
  0
VERTEX
  8
0
 10
2.79801
 20
1.94476
 30
0.0
 40
0
 41
0
  0
VERTEX
  8
0
 10
2.70904
 20
2.03418
 30
0.0
 40
0
 41
0
  0
VERTEX
  8
0
 10
2.66461
 20
2.07835
 30
0.0
 40
0
 41
0
  0
SEQEND
 8
0
  0
POLYLINE
  8
0
 62
     0
 66
     1
 10
0
 20
0
 30
0.0
 70
     1
 40
0
 41
0
  0
VERTEX
  8
0
 10
2.97487
 20
1.98281
 30
0.0
 40
0
 41
0
  0
VERTEX
  8
0
 10
3.01042
 20
2.01844
 30
0.0
 40
0
 41
0
  0
VERTEX
  8
0
 10
3.11762
 20
2.12582
 30
0.0
 40
0
 41
0
  0
VERTEX
  8
0
 10
3.23947
 20
2.24761
 30
0.0
 40
0
 41
0
  0
VERTEX
  8
0
 10
2.71012
 20
2.24761
 30
0.0
 40
0
 41
0
  0
VERTEX
  8
0
 10
2.72749
 20
2.23019
 30
0.0
 40
0
 41
0
  0
VERTEX
  8
0
 10
2.90543
 20
2.05231
 30
0.0
 40
0
 41
0
  0
VERTEX
  8
0
 10
2.97487
 20
1.98281
 30
0.0
 40
0
 41
0
  0
SEQEND
 8
0
  0
POLYLINE
  8
0
 62
     0
 66
     1
 10
0
 20
0
 30
0.0
 70
     1
 40
0
 41
0
  0
VERTEX
  8
0
 10
5.46658
 20
2.20156
 30
0.0
 40
0
 41
0
  0
VERTEX
  8
0
 10
4.14561
 20
0.883247
 30
0.0
 40
0
 41
0
  0
VERTEX
  8
0
 10
3.977
 20
1.05187
 30
0.0
 40
0
 41
0
  0
VERTEX
  8
0
 10
3.50478
 20
0.579699
 30
0.0
 40
0
 41
0
  0
VERTEX
  8
0
 10
3.16303
 20
0.579699
 30
0.0
 40
0
 41
0
  0
VERTEX
  8
0
 10
2.80404
 20
0.220649
 30
0.0
 40
0
 41
0
  0
VERTEX
  8
0
 10
1.93946
 20
1.08572
 30
0.0
 40
0
 41
0
  0
VERTEX
  8
0
 10
1.59082
 20
1.08572
 30
0.0
 40
0
 41
0
  0
VERTEX
  8
0
 10
0.428982
 20
2.24761
 30
0.0
 40
0
 41
0
  0
VERTEX
  8
0
 10
0.214247
 20
2.24761
 30
0.0
 40
0
 41
0
  0
VERTEX
  8
0
 10
1.52794
 20
0.933865
 30
0.0
 40
0
 41
0
  0
VERTEX
  8
0
 10
1.87603
 20
0.933865
 30
0.0
 40
0
 41
0
  0
VERTEX
  8
0
 10
2.80404
 20
0.00585938
 30
0.0
 40
0
 41
0
  0
VERTEX
  8
0
 10
3.22592
 20
0.427789
 30
0.0
 40
0
 41
0
  0
VERTEX
  8
0
 10
3.56771
 20
0.427789
 30
0.0
 40
0
 41
0
  0
VERTEX
  8
0
 10
3.977
 20
0.837076
 30
0.0
 40
0
 41
0
  0
VERTEX
  8
0
 10
4.14551
 20
0.668565
 30
0.0
 40
0
 41
0
  0
VERTEX
  8
0
 10
5.60135
 20
2.12196
 30
0.0
 40
0
 41
0
  0
VERTEX
  8
0
 10
5.58897
 20
2.12663
 30
0.0
 40
0
 41
0
  0
VERTEX
  8
0
 10
5.53039
 20
2.15603
 30
0.0
 40
0
 41
0
  0
VERTEX
  8
0
 10
5.47651
 20
2.19347
 30
0.0
 40
0
 41
0
  0
VERTEX
  8
0
 10
5.46658
 20
2.2021
 30
0.0
 40
0
 41
0
  0
VERTEX
  8
0
 10
5.46658
 20
2.20156
 30
0.0
 40
0
 41
0
  0
SEQEND
 8
0
  0
POLYLINE
  8
0
 62
     0
 66
     1
 10
0
 20
0
 30
0.0
 70
     1
 40
0
 41
0
  0
VERTEX
  8
0
 10
1.50304
 20
2.24761
 30
0.0
 40
0
 41
0
  0
VERTEX
  8
0
 10
1.90554
 20
1.84511
 30
0.0
 40
0
 41
0
  0
VERTEX
  8
0
 10
2.25304
 20
1.84511
 30
0.0
 40
0
 41
0
  0
VERTEX
  8
0
 10
2.29753
 20
1.80063
 30
0.0
 40
0
 41
0
  0
VERTEX
  8
0
 10
2.34196
 20
1.75613
 30
0.0
 40
0
 41
0
  0
VERTEX
  8
0
 10
2.38644
 20
1.71164
 30
0.0
 40
0
 41
0
  0
VERTEX
  8
0
 10
2.47542
 20
1.62272
 30
0.0
 40
0
 41
0
  0
VERTEX
  8
0
 10
2.75667
 20
1.34147
 30
0.0
 40
0
 41
0
  0
VERTEX
  8
0
 10
3.19228
 20
1.34147
 30
0.0
 40
0
 41
0
  0
VERTEX
  8
0
 10
3.44054
 20
1.58886
 30
0.0
 40
0
 41
0
  0
VERTEX
  8
0
 10
3.87011
 20
2.01844
 30
0.0
 40
0
 41
0
  0
VERTEX
  8
0
 10
3.977
 20
2.12582
 30
0.0
 40
0
 41
0
  0
VERTEX
  8
0
 10
4.14615
 20
1.95665
 30
0.0
 40
0
 41
0
  0
VERTEX
  8
0
 10
4.43782
 20
2.24761
 30
0.0
 40
0
 41
0
  0
VERTEX
  8
0
 10
3.88406
 20
2.24761
 30
0.0
 40
0
 41
0
  0
VERTEX
  8
0
 10
3.86957
 20
2.23324
 30
0.0
 40
0
 41
0
  0
VERTEX
  8
0
 10
3.76221
 20
2.12582
 30
0.0
 40
0
 41
0
  0
VERTEX
  8
0
 10
3.65479
 20
2.01844
 30
0.0
 40
0
 41
0
  0
VERTEX
  8
0
 10
3.54742
 20
1.91103
 30
0.0
 40
0
 41
0
  0
VERTEX
  8
0
 10
3.44054
 20
1.80365
 30
0.0
 40
0
 41
0
  0
VERTEX
  8
0
 10
3.12782
 20
1.49094
 30
0.0
 40
0
 41
0
  0
VERTEX
  8
0
 10
2.82249
 20
1.49094
 30
0.0
 40
0
 41
0
  0
VERTEX
  8
0
 10
2.5829
 20
1.73053
 30
0.0
 40
0
 41
0
  0
VERTEX
  8
0
 10
2.49397
 20
1.8195
 30
0.0
 40
0
 41
0
  0
VERTEX
  8
0
 10
2.44949
 20
1.86393
 30
0.0
 40
0
 41
0
  0
VERTEX
  8
0
 10
2.31603
 20
1.9974
 30
0.0
 40
0
 41
0
  0
VERTEX
  8
0
 10
1.96832
 20
1.9974
 30
0.0
 40
0
 41
0
  0
VERTEX
  8
0
 10
1.71772
 20
2.24804
 30
0.0
 40
0
 41
0
  0
VERTEX
  8
0
 10
1.50304
 20
2.24761
 30
0.0
 40
0
 41
0
  0
SEQEND
 8
0
  0
POLYLINE
  8
0
 62
     0
 66
     1
 10
0
 20
0
 30
0.0
 70
     1
 40
0
 41
0
  0
VERTEX
  8
0
 10
0.643881
 20
2.24761
 30
0.0
 40
0
 41
0
  0
VERTEX
  8
0
 10
1.65429
 20
1.2372
 30
0.0
 40
0
 41
0
  0
VERTEX
  8
0
 10
2.00239
 20
1.2372
 30
0.0
 40
0
 41
0
  0
VERTEX
  8
0
 10
2.80458
 20
0.435004
 30
0.0
 40
0
 41
0
  0
VERTEX
  8
0
 10
3.05615
 20
0.686686
 30
0.0
 40
0
 41
0
  0
VERTEX
  8
0
 10
3.10064
 20
0.731119
 30
0.0
 40
0
 41
0
  0
VERTEX
  8
0
 10
3.44239
 20
0.731119
 30
0.0
 40
0
 41
0
  0
VERTEX
  8
0
 10
3.86957
 20
1.15918
 30
0.0
 40
0
 41
0
  0
VERTEX
  8
0
 10
3.977
 20
1.26655
 30
0.0
 40
0
 41
0
  0
VERTEX
  8
0
 10
4.14572
 20
1.09782
 30
0.0
 40
0
 41
0
  0
VERTEX
  8
0
 10
5.29731
 20
2.24761
 30
0.0
 40
0
 41
0
  0
VERTEX
  8
0
 10
5.08231
 20
2.24761
 30
0.0
 40
0
 41
0
  0
VERTEX
  8
0
 10
4.14583
 20
1.31261
 30
0.0
 40
0
 41
0
  0
VERTEX
  8
0
 10
3.977
 20
1.48144
 30
0.0
 40
0
 41
0
  0
VERTEX
  8
0
 10
3.86957
 20
1.37408
 30
0.0
 40
0
 41
0
  0
VERTEX
  8
0
 10
3.76221
 20
1.26666
 30
0.0
 40
0
 41
0
  0
VERTEX
  8
0
 10
3.37896
 20
0.883464
 30
0.0
 40
0
 41
0
  0
VERTEX
  8
0
 10
3.03717
 20
0.883464
 30
0.0
 40
0
 41
0
  0
VERTEX
  8
0
 10
2.99262
 20
0.838976
 30
0.0
 40
0
 41
0
  0
VERTEX
  8
0
 10
2.94824
 20
0.794596
 30
0.0
 40
0
 41
0
  0
VERTEX
  8
0
 10
2.80404
 20
0.650228
 30
0.0
 40
0
 41
0
  0
VERTEX
  8
0
 10
2.15375
 20
1.30051
 30
0.0
 40
0
 41
0
  0
VERTEX
  8
0
 10
2.10915
 20
1.345
 30
0.0
 40
0
 41
0
  0
VERTEX
  8
0
 10
2.06467
 20
1.38949
 30
0.0
 40
0
 41
0
  0
VERTEX
  8
0
 10
1.71669
 20
1.38949
 30
0.0
 40
0
 41
0
  0
VERTEX
  8
0
 10
0.858561
 20
2.24761
 30
0.0
 40
0
 41
0
  0
VERTEX
  8
0
 10
0.643881
 20
2.24761
 30
0.0
 40
0
 41
0
  0
SEQEND
 8
0
  0
POLYLINE
  8
0
 62
     0
 66
     1
 10
0
 20
0
 30
0.0
 70
     1
 40
0
 41
0
  0
VERTEX
  8
0
 10
1.07346
 20
2.24761
 30
0.0
 40
0
 41
0
  0
VERTEX
  8
0
 10
1.77968
 20
1.54135
 30
0.0
 40
0
 41
0
  0
VERTEX
  8
0
 10
2.12804
 20
1.54135
 30
0.0
 40
0
 41
0
  0
VERTEX
  8
0
 10
2.26144
 20
1.40793
 30
0.0
 40
0
 41
0
  0
VERTEX
  8
0
 10
2.80447
 20
0.865018
 30
0.0
 40
0
 41
0
  0
VERTEX
  8
0
 10
2.84125
 20
0.901856
 30
0.0
 40
0
 41
0
  0
VERTEX
  8
0
 10
2.93024
 20
0.990831
 30
0.0
 40
0
 41
0
  0
VERTEX
  8
0
 10
2.97467
 20
1.03532
 30
0.0
 40
0
 41
0
  0
VERTEX
  8
0
 10
3.31646
 20
1.03532
 30
0.0
 40
0
 41
0
  0
VERTEX
  8
0
 10
3.97738
 20
1.69624
 30
0.0
 40
0
 41
0
  0
VERTEX
  8
0
 10
4.08479
 20
1.58886
 30
0.0
 40
0
 41
0
  0
VERTEX
  8
0
 10
4.14638
 20
1.52729
 30
0.0
 40
0
 41
0
  0
VERTEX
  8
0
 10
4.86762
 20
2.24761
 30
0.0
 40
0
 41
0
  0
VERTEX
  8
0
 10
4.6524
 20
2.24761
 30
0.0
 40
0
 41
0
  0
VERTEX
  8
0
 10
4.14606
 20
1.74197
 30
0.0
 40
0
 41
0
  0
VERTEX
  8
0
 10
3.977
 20
1.91103
 30
0.0
 40
0
 41
0
  0
VERTEX
  8
0
 10
3.86957
 20
1.80365
 30
0.0
 40
0
 41
0
  0
VERTEX
  8
0
 10
3.76221
 20
1.69624
 30
0.0
 40
0
 41
0
  0
VERTEX
  8
0
 10
3.65479
 20
1.58886
 30
0.0
 40
0
 41
0
  0
VERTEX
  8
0
 10
3.54742
 20
1.48144
 30
0.0
 40
0
 41
0
  0
VERTEX
  8
0
 10
3.25304
 20
1.18718
 30
0.0
 40
0
 41
0
  0
VERTEX
  8
0
 10
2.91135
 20
1.18718
 30
0.0
 40
0
 41
0
  0
VERTEX
  8
0
 10
2.86675
 20
1.14269
 30
0.0
 40
0
 41
0
  0
VERTEX
  8
0
 10
2.82226
 20
1.09825
 30
0.0
 40
0
 41
0
  0
VERTEX
  8
0
 10
2.80399
 20
1.07981
 30
0.0
 40
0
 41
0
  0
VERTEX
  8
0
 10
2.36833
 20
1.51531
 30
0.0
 40
0
 41
0
  0
VERTEX
  8
0
 10
2.27935
 20
1.60428
 30
0.0
 40
0
 41
0
  0
VERTEX
  8
0
 10
2.23503
 20
1.64876
 30
0.0
 40
0
 41
0
  0
VERTEX
  8
0
 10
2.19054
 20
1.69325
 30
0.0
 40
0
 41
0
  0
VERTEX
  8
0
 10
1.8425
 20
1.69325
 30
0.0
 40
0
 41
0
  0
VERTEX
  8
0
 10
1.28814
 20
2.24761
 30
0.0
 40
0
 41
0
  0
VERTEX
  8
0
 10
1.07346
 20
2.24761
 30
0.0
 40
0
 41
0
  0
SEQEND
 8
0
  0
POLYLINE
  8
0
 62
     0
 66
     1
 10
0
 20
0
 30
0.0
 70
     1
 40
0
 41
0
  0
VERTEX
  8
0
 10
1.75917
 20
3.36908
 30
0.0
 40
0
 41
0
  0
VERTEX
  8
0
 10
1.53554
 20
3.1454
 30
0.0
 40
0
 41
0
  0
VERTEX
  8
0
 10
1.54628
 20
3.12869
 30
0.0
 40
0
 41
0
  0
VERTEX
  8
0
 10
1.56662
 20
3.07069
 30
0.0
 40
0
 41
0
  0
VERTEX
  8
0
 10
1.57004
 20
2.99208
 30
0.0
 40
0
 41
0
  0
VERTEX
  8
0
 10
1.54676
 20
2.91694
 30
0.0
 40
0
 41
0
  0
VERTEX
  8
0
 10
1.51232
 20
2.866
 30
0.0
 40
0
 41
0
  0
VERTEX
  8
0
 10
1.49767
 20
2.85254
 30
0.0
 40
0
 41
0
  0
VERTEX
  8
0
 10
1.48296
 20
2.83908
 30
0.0
 40
0
 41
0
  0
VERTEX
  8
0
 10
1.42925
 20
2.80925
 30
0.0
 40
0
 41
0
  0
VERTEX
  8
0
 10
1.35238
 20
2.79249
 30
0.0
 40
0
 41
0
  0
VERTEX
  8
0
 10
1.27436
 20
2.80274
 30
0.0
 40
0
 41
0
  0
VERTEX
  8
0
 10
1.21837
 20
2.82796
 30
0.0
 40
0
 41
0
  0
VERTEX
  8
0
 10
1.20264
 20
2.84011
 30
0.0
 40
0
 41
0
  0
VERTEX
  8
0
 10
1.18685
 20
2.85232
 30
0.0
 40
0
 41
0
  0
VERTEX
  8
0
 10
1.14827
 20
2.90018
 30
0.0
 40
0
 41
0
  0
VERTEX
  8
0
 10
1.11876
 20
2.97314
 30
0.0
 40
0
 41
0
  0
VERTEX
  8
0
 10
1.11556
 20
3.05176
 30
0.0
 40
0
 41
0
  0
VERTEX
  8
0
 10
1.13102
 20
3.11122
 30
0.0
 40
0
 41
0
  0
VERTEX
  8
0
 10
1.14035
 20
3.12879
 30
0.0
 40
0
 41
0
  0
VERTEX
  8
0
 10
1.14963
 20
3.14643
 30
0.0
 40
0
 41
0
  0
VERTEX
  8
0
 10
1.19027
 20
3.19254
 30
0.0
 40
0
 41
0
  0
VERTEX
  8
0
 10
1.25711
 20
3.23406
 30
0.0
 40
0
 41
0
  0
VERTEX
  8
0
 10
1.33409
 20
3.25049
 30
0.0
 40
0
 41
0
  0
VERTEX
  8
0
 10
1.39535
 20
3.24539
 30
0.0
 40
0
 41
0
  0
VERTEX
  8
0
 10
1.41428
 20
3.23915
 30
0.0
 40
0
 41
0
  0
VERTEX
  8
0
 10
1.69624
 20
3.52115
 30
0.0
 40
0
 41
0
  0
VERTEX
  8
0
 10
2.58876
 20
3.52115
 30
0.0
 40
0
 41
0
  0
VERTEX
  8
0
 10
2.59153
 20
3.52924
 30
0.0
 40
0
 41
0
  0
VERTEX
  8
0
 10
2.61079
 20
3.56717
 30
0.0
 40
0
 41
0
  0
VERTEX
  8
0
 10
2.6365
 20
3.60097
 30
0.0
 40
0
 41
0
  0
VERTEX
  8
0
 10
2.64258
 20
3.60699
 30
0.0
 40
0
 41
0
  0
VERTEX
  8
0
 10
2.65554
 20
3.62001
 30
0.0
 40
0
 41
0
  0
VERTEX
  8
0
 10
2.70301
 20
3.65056
 30
0.0
 40
0
 41
0
  0
VERTEX
  8
0
 10
2.77246
 20
3.67215
 30
0.0
 40
0
 41
0
  0
VERTEX
  8
0
 10
2.84517
 20
3.6709
 30
0.0
 40
0
 41
0
  0
VERTEX
  8
0
 10
2.89936
 20
3.65489
 30
0.0
 40
0
 41
0
  0
VERTEX
  8
0
 10
2.91547
 20
3.646
 30
0.0
 40
0
 41
0
  0
VERTEX
  8
0
 10
2.93153
 20
3.63715
 30
0.0
 40
0
 41
0
  0
VERTEX
  8
0
 10
2.97401
 20
3.59999
 30
0.0
 40
0
 41
0
  0
VERTEX
  8
0
 10
3.01394
 20
3.53922
 30
0.0
 40
0
 41
0
  0
VERTEX
  8
0
 10
3.03288
 20
3.46903
 30
0.0
 40
0
 41
0
  0
VERTEX
  8
0
 10
3.0325
 20
3.41254
 30
0.0
 40
0
 41
0
  0
VERTEX
  8
0
 10
3.02849
 20
3.39458
 30
0.0
 40
0
 41
0
  0
VERTEX
  8
0
 10
3.02442
 20
3.37668
 30
0.0
 40
0
 41
0
  0
VERTEX
  8
0
 10
3.00043
 20
3.32557
 30
0.0
 40
0
 41
0
  0
VERTEX
  8
0
 10
2.95307
 20
3.2704
 30
0.0
 40
0
 41
0
  0
VERTEX
  8
0
 10
2.89085
 20
3.23281
 30
0.0
 40
0
 41
0
  0
VERTEX
  8
0
 10
2.83649
 20
3.21756
 30
0.0
 40
0
 41
0
  0
VERTEX
  8
0
 10
2.81814
 20
3.21647
 30
0.0
 40
0
 41
0
  0
VERTEX
  8
0
 10
2.79975
 20
3.21544
 30
0.0
 40
0
 41
0
  0
VERTEX
  8
0
 10
2.74403
 20
3.22433
 30
0.0
 40
0
 41
0
  0
VERTEX
  8
0
 10
2.6779
 20
3.25456
 30
0.0
 40
0
 41
0
  0
VERTEX
  8
0
 10
2.62451
 20
3.30393
 30
0.0
 40
0
 41
0
  0
VERTEX
  8
0
 10
2.59483
 20
3.35194
 30
0.0
 40
0
 41
0
  0
VERTEX
  8
0
 10
2.58876
 20
3.36925
 30
0.0
 40
0
 41
0
  0
VERTEX
  8
0
 10
1.75917
 20
3.36908
 30
0.0
 40
0
 41
0
  0
SEQEND
 8
0
  0
POLYLINE
  8
0
 62
     0
 66
     1
 10
0
 20
0
 30
0.0
 70
     1
 40
0
 41
0
  0
VERTEX
  8
0
 10
2.72738
 20
3.44499
 30
0.0
 40
0
 41
0
  0
VERTEX
  8
0
 10
2.72738
 20
3.43431
 30
0.0
 40
0
 41
0
  0
VERTEX
  8
0
 10
2.74035
 20
3.40224
 30
0.0
 40
0
 41
0
  0
VERTEX
  8
0
 10
2.76768
 20
3.3769
 30
0.0
 40
0
 41
0
  0
VERTEX
  8
0
 10
2.7749
 20
3.37392
 30
0.0
 40
0
 41
0
  0
VERTEX
  8
0
 10
2.78207
 20
3.37099
 30
0.0
 40
0
 41
0
  0
VERTEX
  8
0
 10
2.81939
 20
3.36963
 30
0.0
 40
0
 41
0
  0
VERTEX
  8
0
 10
2.85325
 20
3.38525
 30
0.0
 40
0
 41
0
  0
VERTEX
  8
0
 10
2.85872
 20
3.39074
 30
0.0
 40
0
 41
0
  0
VERTEX
  8
0
 10
2.86399
 20
3.39606
 30
0.0
 40
0
 41
0
  0
VERTEX
  8
0
 10
2.8756
 20
3.41618
 30
0.0
 40
0
 41
0
  0
VERTEX
  8
0
 10
2.88118
 20
3.44504
 30
0.0
 40
0
 41
0
  0
VERTEX
  8
0
 10
2.8756
 20
3.47396
 30
0.0
 40
0
 41
0
  0
VERTEX
  8
0
 10
2.86399
 20
3.49408
 30
0.0
 40
0
 41
0
  0
VERTEX
  8
0
 10
2.85872
 20
3.49935
 30
0.0
 40
0
 41
0
  0
VERTEX
  8
0
 10
2.8534
 20
3.50467
 30
0.0
 40
0
 41
0
  0
VERTEX
  8
0
 10
2.83328
 20
3.51628
 30
0.0
 40
0
 41
0
  0
VERTEX
  8
0
 10
2.80442
 20
3.52186
 30
0.0
 40
0
 41
0
  0
VERTEX
  8
0
 10
2.7755
 20
3.51628
 30
0.0
 40
0
 41
0
  0
VERTEX
  8
0
 10
2.75537
 20
3.50467
 30
0.0
 40
0
 41
0
  0
VERTEX
  8
0
 10
2.75011
 20
3.49935
 30
0.0
 40
0
 41
0
  0
VERTEX
  8
0
 10
2.74642
 20
3.49582
 30
0.0
 40
0
 41
0
  0
VERTEX
  8
0
 10
2.73318
 20
3.4745
 30
0.0
 40
0
 41
0
  0
VERTEX
  8
0
 10
2.72726
 20
3.45236
 30
0.0
 40
0
 41
0
  0
VERTEX
  8
0
 10
2.72726
 20
3.44499
 30
0.0
 40
0
 41
0
  0
VERTEX
  8
0
 10
2.72738
 20
3.44499
 30
0.0
 40
0
 41
0
  0
SEQEND
 8
0
  0
POLYLINE
  8
0
 62
     0
 66
     1
 10
0
 20
0
 30
0.0
 70
     1
 40
0
 41
0
  0
VERTEX
  8
0
 10
1.39729
 20
3.07585
 30
0.0
 40
0
 41
0
  0
VERTEX
  8
0
 10
1.39176
 20
3.08137
 30
0.0
 40
0
 41
0
  0
VERTEX
  8
0
 10
1.35791
 20
3.0969
 30
0.0
 40
0
 41
0
  0
VERTEX
  8
0
 10
1.32069
 20
3.09549
 30
0.0
 40
0
 41
0
  0
VERTEX
  8
0
 10
1.31353
 20
3.0925
 30
0.0
 40
0
 41
0
  0
VERTEX
  8
0
 10
1.30632
 20
3.08951
 30
0.0
 40
0
 41
0
  0
VERTEX
  8
0
 10
1.27897
 20
3.06418
 30
0.0
 40
0
 41
0
  0
VERTEX
  8
0
 10
1.26606
 20
3.03217
 30
0.0
 40
0
 41
0
  0
VERTEX
  8
0
 10
1.26606
 20
3.02149
 30
0.0
 40
0
 41
0
  0
VERTEX
  8
0
 10
1.26606
 20
3.01085
 30
0.0
 40
0
 41
0
  0
VERTEX
  8
0
 10
1.27897
 20
2.97879
 30
0.0
 40
0
 41
0
  0
VERTEX
  8
0
 10
1.30632
 20
2.95344
 30
0.0
 40
0
 41
0
  0
VERTEX
  8
0
 10
1.31353
 20
2.95047
 30
0.0
 40
0
 41
0
  0
VERTEX
  8
0
 10
1.32069
 20
2.94749
 30
0.0
 40
0
 41
0
  0
VERTEX
  8
0
 10
1.35791
 20
2.94607
 30
0.0
 40
0
 41
0
  0
VERTEX
  8
0
 10
1.39176
 20
2.96158
 30
0.0
 40
0
 41
0
  0
VERTEX
  8
0
 10
1.39729
 20
2.96707
 30
0.0
 40
0
 41
0
  0
VERTEX
  8
0
 10
1.40087
 20
2.97071
 30
0.0
 40
0
 41
0
  0
VERTEX
  8
0
 10
1.41401
 20
2.99203
 30
0.0
 40
0
 41
0
  0
VERTEX
  8
0
 10
1.41992
 20
3.01417
 30
0.0
 40
0
 41
0
  0
VERTEX
  8
0
 10
1.41992
 20
3.02149
 30
0.0
 40
0
 41
0
  0
VERTEX
  8
0
 10
1.41992
 20
3.02886
 30
0.0
 40
0
 41
0
  0
VERTEX
  8
0
 10
1.41401
 20
3.05094
 30
0.0
 40
0
 41
0
  0
VERTEX
  8
0
 10
1.40087
 20
3.07226
 30
0.0
 40
0
 41
0
  0
VERTEX
  8
0
 10
1.39729
 20
3.07585
 30
0.0
 40
0
 41
0
  0
SEQEND
 8
0
  0
POLYLINE
  8
0
 62
     0
 66
     1
 10
0
 20
0
 30
0.0
 70
     1
 40
0
 41
0
  0
VERTEX
  8
0
 10
1.79753
 20
3.02149
 30
0.0
 40
0
 41
0
  0
VERTEX
  8
0
 10
1.79753
 20
3.04139
 30
0.0
 40
0
 41
0
  0
VERTEX
  8
0
 10
1.81179
 20
3.10101
 30
0.0
 40
0
 41
0
  0
VERTEX
  8
0
 10
1.8514
 20
3.16883
 30
0.0
 40
0
 41
0
  0
VERTEX
  8
0
 10
1.91157
 20
3.21929
 30
0.0
 40
0
 41
0
  0
VERTEX
  8
0
 10
1.96799
 20
3.24337
 30
0.0
 40
0
 41
0
  0
VERTEX
  8
0
 10
1.98762
 20
3.24669
 30
0.0
 40
0
 41
0
  0
VERTEX
  8
0
 10
2.00722
 20
3.25006
 30
0.0
 40
0
 41
0
  0
VERTEX
  8
0
 10
2.06842
 20
3.2461
 30
0.0
 40
0
 41
0
  0
VERTEX
  8
0
 10
2.14193
 20
3.21847
 30
0.0
 40
0
 41
0
  0
VERTEX
  8
0
 10
2.20182
 20
3.16769
 30
0.0
 40
0
 41
0
  0
VERTEX
  8
0
 10
2.23514
 20
3.11615
 30
0.0
 40
0
 41
0
  0
VERTEX
  8
0
 10
2.24175
 20
3.09739
 30
0.0
 40
0
 41
0
  0
VERTEX
  8
0
 10
3.41237
 20
3.09739
 30
0.0
 40
0
 41
0
  0
VERTEX
  8
0
 10
3.4171
 20
3.11094
 30
0.0
 40
0
 41
0
  0
VERTEX
  8
0
 10
3.43832
 20
3.14925
 30
0.0
 40
0
 41
0
  0
VERTEX
  8
0
 10
3.47586
 20
3.19228
 30
0.0
 40
0
 41
0
  0
VERTEX
  8
0
 10
3.52285
 20
3.22467
 30
0.0
 40
0
 41
0
  0
VERTEX
  8
0
 10
3.56326
 20
3.24137
 30
0.0
 40
0
 41
0
  0
VERTEX
  8
0
 10
3.57731
 20
3.24451
 30
0.0
 40
0
 41
0
  0
VERTEX
  8
0
 10
3.59131
 20
3.24772
 30
0.0
 40
0
 41
0
  0
VERTEX
  8
0
 10
3.63499
 20
3.25011
 30
0.0
 40
0
 41
0
  0
VERTEX
  8
0
 10
3.6914
 20
3.24126
 30
0.0
 40
0
 41
0
  0
VERTEX
  8
0
 10
3.74382
 20
3.21875
 30
0.0
 40
0
 41
0
  0
VERTEX
  8
0
 10
3.77951
 20
3.19342
 30
0.0
 40
0
 41
0
  0
VERTEX
  8
0
 10
3.78971
 20
3.18321
 30
0.0
 40
0
 41
0
  0
VERTEX
  8
0
 10
3.79889
 20
3.17421
 30
0.0
 40
0
 41
0
  0
VERTEX
  8
0
 10
3.82238
 20
3.14296
 30
0.0
 40
0
 41
0
  0
VERTEX
  8
0
 10
3.84494
 20
3.09694
 30
0.0
 40
0
 41
0
  0
VERTEX
  8
0
 10
3.85678
 20
3.0471
 30
0.0
 40
0
 41
0
  0
VERTEX
  8
0
 10
3.85851
 20
3.00803
 30
0.0
 40
0
 41
0
  0
VERTEX
  8
0
 10
3.85715
 20
2.99517
 30
0.0
 40
0
 41
0
  0
VERTEX
  8
0
 10
3.85574
 20
2.98242
 30
0.0
 40
0
 41
0
  0
VERTEX
  8
0
 10
3.84576
 20
2.94461
 30
0.0
 40
0
 41
0
  0
VERTEX
  8
0
 10
3.82368
 20
2.89833
 30
0.0
 40
0
 41
0
  0
VERTEX
  8
0
 10
3.79189
 20
2.85818
 30
0.0
 40
0
 41
0
  0
VERTEX
  8
0
 10
3.76232
 20
2.83257
 30
0.0
 40
0
 41
0
  0
VERTEX
  8
0
 10
3.75142
 20
2.82568
 30
0.0
 40
0
 41
0
  0
VERTEX
  8
0
 10
3.7405
 20
2.81885
 30
0.0
 40
0
 41
0
  0
VERTEX
  8
0
 10
3.70464
 20
2.80317
 30
0.0
 40
0
 41
0
  0
VERTEX
  8
0
 10
3.65468
 20
2.79183
 30
0.0
 40
0
 41
0
  0
VERTEX
  8
0
 10
3.6034
 20
2.79189
 30
0.0
 40
0
 41
0
  0
VERTEX
  8
0
 10
3.565
 20
2.79926
 30
0.0
 40
0
 41
0
  0
VERTEX
  8
0
 10
3.5529
 20
2.8035
 30
0.0
 40
0
 41
0
  0
VERTEX
  8
0
 10
3.54075
 20
2.80783
 30
0.0
 40
0
 41
0
  0
VERTEX
  8
0
 10
3.50624
 20
2.82622
 30
0.0
 40
0
 41
0
  0
VERTEX
  8
0
 10
3.46636
 20
2.8584
 30
0.0
 40
0
 41
0
  0
VERTEX
  8
0
 10
3.43457
 20
2.89865
 30
0.0
 40
0
 41
0
  0
VERTEX
  8
0
 10
3.4165
 20
2.93338
 30
0.0
 40
0
 41
0
  0
VERTEX
  8
0
 10
3.41237
 20
2.94553
 30
0.0
 40
0
 41
0
  0
VERTEX
  8
0
 10
2.24175
 20
2.94553
 30
0.0
 40
0
 41
0
  0
VERTEX
  8
0
 10
2.23514
 20
2.92681
 30
0.0
 40
0
 41
0
  0
VERTEX
  8
0
 10
2.20182
 20
2.87528
 30
0.0
 40
0
 41
0
  0
VERTEX
  8
0
 10
2.14193
 20
2.82449
 30
0.0
 40
0
 41
0
  0
VERTEX
  8
0
 10
2.06842
 20
2.79688
 30
0.0
 40
0
 41
0
  0
VERTEX
  8
0
 10
2.00722
 20
2.79292
 30
0.0
 40
0
 41
0
  0
VERTEX
  8
0
 10
1.98762
 20
2.79622
 30
0.0
 40
0
 41
0
  0
VERTEX
  8
0
 10
1.96799
 20
2.79958
 30
0.0
 40
0
 41
0
  0
VERTEX
  8
0
 10
1.91157
 20
2.82368
 30
0.0
 40
0
 41
0
  0
VERTEX
  8
0
 10
1.8514
 20
2.87414
 30
0.0
 40
0
 41
0
  0
VERTEX
  8
0
 10
1.81179
 20
2.94194
 30
0.0
 40
0
 41
0
  0
VERTEX
  8
0
 10
1.79753
 20
3.00163
 30
0.0
 40
0
 41
0
  0
VERTEX
  8
0
 10
1.79753
 20
3.02149
 30
0.0
 40
0
 41
0
  0
SEQEND
 8
0
  0
POLYLINE
  8
0
 62
     0
 66
     1
 10
0
 20
0
 30
0.0
 70
     1
 40
0
 41
0
  0
VERTEX
  8
0
 10
3.57357
 20
2.96707
 30
0.0
 40
0
 41
0
  0
VERTEX
  8
0
 10
3.57883
 20
2.96181
 30
0.0
 40
0
 41
0
  0
VERTEX
  8
0
 10
3.59896
 20
2.95019
 30
0.0
 40
0
 41
0
  0
VERTEX
  8
0
 10
3.62788
 20
2.94461
 30
0.0
 40
0
 41
0
  0
VERTEX
  8
0
 10
3.65679
 20
2.95019
 30
0.0
 40
0
 41
0
  0
VERTEX
  8
0
 10
3.67697
 20
2.96181
 30
0.0
 40
0
 41
0
  0
VERTEX
  8
0
 10
3.68229
 20
2.96707
 30
0.0
 40
0
 41
0
  0
VERTEX
  8
0
 10
3.68756
 20
2.97239
 30
0.0
 40
0
 41
0
  0
VERTEX
  8
0
 10
3.69917
 20
2.99257
 30
0.0
 40
0
 41
0
  0
VERTEX
  8
0
 10
3.70481
 20
3.02149
 30
0.0
 40
0
 41
0
  0
VERTEX
  8
0
 10
3.69917
 20
3.0504
 30
0.0
 40
0
 41
0
  0
VERTEX
  8
0
 10
3.68756
 20
3.07058
 30
0.0
 40
0
 41
0
  0
VERTEX
  8
0
 10
3.68229
 20
3.07585
 30
0.0
 40
0
 41
0
  0
VERTEX
  8
0
 10
3.67865
 20
3.07949
 30
0.0
 40
0
 41
0
  0
VERTEX
  8
0
 10
3.65733
 20
3.09256
 30
0.0
 40
0
 41
0
  0
VERTEX
  8
0
 10
3.63525
 20
3.09836
 30
0.0
 40
0
 41
0
  0
VERTEX
  8
0
 10
3.62793
 20
3.09836
 30
0.0
 40
0
 41
0
  0
VERTEX
  8
0
 10
3.62056
 20
3.09836
 30
0.0
 40
0
 41
0
  0
VERTEX
  8
0
 10
3.59847
 20
3.09256
 30
0.0
 40
0
 41
0
  0
VERTEX
  8
0
 10
3.57715
 20
3.07949
 30
0.0
 40
0
 41
0
  0
VERTEX
  8
0
 10
3.57357
 20
3.07585
 30
0.0
 40
0
 41
0
  0
VERTEX
  8
0
 10
3.56993
 20
3.07226
 30
0.0
 40
0
 41
0
  0
VERTEX
  8
0
 10
3.55686
 20
3.05089
 30
0.0
 40
0
 41
0
  0
VERTEX
  8
0
 10
3.551
 20
3.02886
 30
0.0
 40
0
 41
0
  0
VERTEX
  8
0
 10
3.551
 20
3.02149
 30
0.0
 40
0
 41
0
  0
VERTEX
  8
0
 10
3.551
 20
3.01417
 30
0.0
 40
0
 41
0
  0
VERTEX
  8
0
 10
3.55686
 20
2.99208
 30
0.0
 40
0
 41
0
  0
VERTEX
  8
0
 10
3.56993
 20
2.97071
 30
0.0
 40
0
 41
0
  0
VERTEX
  8
0
 10
3.57357
 20
2.96707
 30
0.0
 40
0
 41
0
  0
SEQEND
 8
0
  0
POLYLINE
  8
0
 62
     0
 66
     1
 10
0
 20
0
 30
0.0
 70
     1
 40
0
 41
0
  0
VERTEX
  8
0
 10
1.94937
 20
3.02149
 30
0.0
 40
0
 41
0
  0
VERTEX
  8
0
 10
1.94937
 20
3.01085
 30
0.0
 40
0
 41
0
  0
VERTEX
  8
0
 10
1.96229
 20
2.97879
 30
0.0
 40
0
 41
0
  0
VERTEX
  8
0
 10
1.98964
 20
2.9534
 30
0.0
 40
0
 41
0
  0
VERTEX
  8
0
 10
1.99685
 20
2.95042
 30
0.0
 40
0
 41
0
  0
VERTEX
  8
0
 10
2.00401
 20
2.94749
 30
0.0
 40
0
 41
0
  0
VERTEX
  8
0
 10
2.04124
 20
2.94607
 30
0.0
 40
0
 41
0
  0
VERTEX
  8
0
 10
2.07508
 20
2.96164
 30
0.0
 40
0
 41
0
  0
VERTEX
  8
0
 10
2.08062
 20
2.96712
 30
0.0
 40
0
 41
0
  0
VERTEX
  8
0
 10
2.0861
 20
2.97265
 30
0.0
 40
0
 41
0
  0
VERTEX
  8
0
 10
2.10161
 20
3.00651
 30
0.0
 40
0
 41
0
  0
VERTEX
  8
0
 10
2.10021
 20
3.04372
 30
0.0
 40
0
 41
0
  0
VERTEX
  8
0
 10
2.09728
 20
3.05089
 30
0.0
 40
0
 41
0
  0
VERTEX
  8
0
 10
2.09429
 20
3.05811
 30
0.0
 40
0
 41
0
  0
VERTEX
  8
0
 10
2.06896
 20
3.08539
 30
0.0
 40
0
 41
0
  0
VERTEX
  8
0
 10
2.03689
 20
3.09831
 30
0.0
 40
0
 41
0
  0
VERTEX
  8
0
 10
2.02626
 20
3.09831
 30
0.0
 40
0
 41
0
  0
VERTEX
  8
0
 10
2.01878
 20
3.09831
 30
0.0
 40
0
 41
0
  0
VERTEX
  8
0
 10
1.99642
 20
3.09229
 30
0.0
 40
0
 41
0
  0
VERTEX
  8
0
 10
1.97206
 20
3.07596
 30
0.0
 40
0
 41
0
  0
VERTEX
  8
0
 10
1.95551
 20
3.05165
 30
0.0
 40
0
 41
0
  0
VERTEX
  8
0
 10
1.94937
 20
3.02935
 30
0.0
 40
0
 41
0
  0
VERTEX
  8
0
 10
1.94937
 20
3.02186
 30
0.0
 40
0
 41
0
  0
VERTEX
  8
0
 10
1.94937
 20
3.02149
 30
0.0
 40
0
 41
0
  0
SEQEND
 8
0
  0
POLYLINE
  8
0
 62
     0
 66
     1
 10
0
 20
0
 30
0.0
 70
     1
 40
0
 41
0
  0
VERTEX
  8
0
 10
4.06728
 20
2.94553
 30
0.0
 40
0
 41
0
  0
VERTEX
  8
0
 10
4.06728
 20
3.45383
 30
0.0
 40
0
 41
0
  0
VERTEX
  8
0
 10
3.37125
 20
3.45383
 30
0.0
 40
0
 41
0
  0
VERTEX
  8
0
 10
2.9025
 20
3.92258
 30
0.0
 40
0
 41
0
  0
VERTEX
  8
0
 10
2.88672
 20
3.91499
 30
0.0
 40
0
 41
0
  0
VERTEX
  8
0
 10
2.83453
 20
3.90213
 30
0.0
 40
0
 41
0
  0
VERTEX
  8
0
 10
2.76519
 20
3.90326
 30
0.0
 40
0
 41
0
  0
VERTEX
  8
0
 10
2.69937
 20
3.92518
 30
0.0
 40
0
 41
0
  0
VERTEX
  8
0
 10
2.65446
 20
3.95458
 30
0.0
 40
0
 41
0
  0
VERTEX
  8
0
 10
2.64208
 20
3.96696
 30
0.0
 40
0
 41
0
  0
VERTEX
  8
0
 10
2.63097
 20
3.97797
 30
0.0
 40
0
 41
0
  0
VERTEX
  8
0
 10
2.60379
 20
4.01719
 30
0.0
 40
0
 41
0
  0
VERTEX
  8
0
 10
2.581
 20
4.07487
 30
0.0
 40
0
 41
0
  0
VERTEX
  8
0
 10
2.57443
 20
4.1365
 30
0.0
 40
0
 41
0
  0
VERTEX
  8
0
 10
2.58029
 20
4.18381
 30
0.0
 40
0
 41
0
  0
VERTEX
  8
0
 10
2.58501
 20
4.19868
 30
0.0
 40
0
 41
0
  0
VERTEX
  8
0
 10
2.58968
 20
4.2136
 30
0.0
 40
0
 41
0
  0
VERTEX
  8
0
 10
2.61208
 20
4.25569
 30
0.0
 40
0
 41
0
  0
VERTEX
  8
0
 10
2.65283
 20
4.30236
 30
0.0
 40
0
 41
0
  0
VERTEX
  8
0
 10
2.70464
 20
4.33643
 30
0.0
 40
0
 41
0
  0
VERTEX
  8
0
 10
2.7494
 20
4.35292
 30
0.0
 40
0
 41
0
  0
VERTEX
  8
0
 10
2.76481
 20
4.35553
 30
0.0
 40
0
 41
0
  0
VERTEX
  8
0
 10
2.78017
 20
4.35818
 30
0.0
 40
0
 41
0
  0
VERTEX
  8
0
 10
2.82785
 20
4.35753
 30
0.0
 40
0
 41
0
  0
VERTEX
  8
0
 10
2.88807
 20
4.34267
 30
0.0
 40
0
 41
0
  0
VERTEX
  8
0
 10
2.94206
 20
4.31222
 30
0.0
 40
0
 41
0
  0
VERTEX
  8
0
 10
2.97715
 20
4.28
 30
0.0
 40
0
 41
0
  0
VERTEX
  8
0
 10
2.9866
 20
4.26747
 30
0.0
 40
0
 41
0
  0
VERTEX
  8
0
 10
2.99946
 20
4.25032
 30
0.0
 40
0
 41
0
  0
VERTEX
  8
0
 10
3.03157
 20
4.15201
 30
0.0
 40
0
 41
0
  0
VERTEX
  8
0
 10
3.01921
 20
4.04932
 30
0.0
 40
0
 41
0
  0
VERTEX
  8
0
 10
3.00988
 20
4.03
 30
0.0
 40
0
 41
0
  0
VERTEX
  8
0
 10
3.43375
 20
3.60612
 30
0.0
 40
0
 41
0
  0
VERTEX
  8
0
 10
4.21875
 20
3.60612
 30
0.0
 40
0
 41
0
  0
VERTEX
  8
0
 10
4.21875
 20
3.09825
 30
0.0
 40
0
 41
0
  0
VERTEX
  8
0
 10
4.37418
 20
3.09825
 30
0.0
 40
0
 41
0
  0
VERTEX
  8
0
 10
4.37896
 20
3.11182
 30
0.0
 40
0
 41
0
  0
VERTEX
  8
0
 10
4.40028
 20
3.1499
 30
0.0
 40
0
 41
0
  0
VERTEX
  8
0
 10
4.43782
 20
3.19276
 30
0.0
 40
0
 41
0
  0
VERTEX
  8
0
 10
4.48486
 20
3.22504
 30
0.0
 40
0
 41
0
  0
VERTEX
  8
0
 10
4.52528
 20
3.24175
 30
0.0
 40
0
 41
0
  0
VERTEX
  8
0
 10
4.53928
 20
3.2449
 30
0.0
 40
0
 41
0
  0
VERTEX
  8
0
 10
4.55322
 20
3.2481
 30
0.0
 40
0
 41
0
  0
VERTEX
  8
0
 10
4.59685
 20
3.25054
 30
0.0
 40
0
 41
0
  0
VERTEX
  8
0
 10
4.65321
 20
3.24175
 30
0.0
 40
0
 41
0
  0
VERTEX
  8
0
 10
4.70562
 20
3.2194
 30
0.0
 40
0
 41
0
  0
VERTEX
  8
0
 10
4.74138
 20
3.19422
 30
0.0
 40
0
 41
0
  0
VERTEX
  8
0
 10
4.75157
 20
3.18408
 30
0.0
 40
0
 41
0
  0
VERTEX
  8
0
 10
4.76074
 20
3.17507
 30
0.0
 40
0
 41
0
  0
VERTEX
  8
0
 10
4.78418
 20
3.14382
 30
0.0
 40
0
 41
0
  0
VERTEX
  8
0
 10
4.80675
 20
3.09782
 30
0.0
 40
0
 41
0
  0
VERTEX
  8
0
 10
4.81847
 20
3.0479
 30
0.0
 40
0
 41
0
  0
VERTEX
  8
0
 10
4.82021
 20
3.00885
 30
0.0
 40
0
 41
0
  0
VERTEX
  8
0
 10
4.81885
 20
2.99604
 30
0.0
 40
0
 41
0
  0
VERTEX
  8
0
 10
4.81743
 20
2.98329
 30
0.0
 40
0
 41
0
  0
VERTEX
  8
0
 10
4.80746
 20
2.94547
 30
0.0
 40
0
 41
0
  0
VERTEX
  8
0
 10
4.78537
 20
2.89925
 30
0.0
 40
0
 41
0
  0
VERTEX
  8
0
 10
4.75358
 20
2.8591
 30
0.0
 40
0
 41
0
  0
VERTEX
  8
0
 10
4.72396
 20
2.83356
 30
0.0
 40
0
 41
0
  0
VERTEX
  8
0
 10
4.71311
 20
2.82667
 30
0.0
 40
0
 41
0
  0
VERTEX
  8
0
 10
4.70221
 20
2.81982
 30
0.0
 40
0
 41
0
  0
VERTEX
  8
0
 10
4.66639
 20
2.80419
 30
0.0
 40
0
 41
0
  0
VERTEX
  8
0
 10
4.61643
 20
2.79286
 30
0.0
 40
0
 41
0
  0
VERTEX
  8
0
 10
4.56515
 20
2.79286
 30
0.0
 40
0
 41
0
  0
VERTEX
  8
0
 10
4.52675
 20
2.80024
 30
0.0
 40
0
 41
0
  0
VERTEX
  8
0
 10
4.51465
 20
2.80447
 30
0.0
 40
0
 41
0
  0
VERTEX
  8
0
 10
4.5025
 20
2.80875
 30
0.0
 40
0
 41
0
  0
VERTEX
  8
0
 10
4.46799
 20
2.82721
 30
0.0
 40
0
 41
0
  0
VERTEX
  8
0
 10
4.42811
 20
2.85932
 30
0.0
 40
0
 41
0
  0
VERTEX
  8
0
 10
4.39638
 20
2.89953
 30
0.0
 40
0
 41
0
  0
VERTEX
  8
0
 10
4.37831
 20
2.93419
 30
0.0
 40
0
 41
0
  0
VERTEX
  8
0
 10
4.37418
 20
2.94635
 30
0.0
 40
0
 41
0
  0
VERTEX
  8
0
 10
4.06728
 20
2.94553
 30
0.0
 40
0
 41
0
  0
SEQEND
 8
0
  0
POLYLINE
  8
0
 62
     0
 66
     1
 10
0
 20
0
 30
0.0
 70
     1
 40
0
 41
0
  0
VERTEX
  8
0
 10
4.51346
 20
3.02186
 30
0.0
 40
0
 41
0
  0
VERTEX
  8
0
 10
4.5134
 20
3.01411
 30
0.0
 40
0
 41
0
  0
VERTEX
  8
0
 10
4.52636
 20
2.97917
 30
0.0
 40
0
 41
0
  0
VERTEX
  8
0
 10
4.55365
 20
2.95383
 30
0.0
 40
0
 41
0
  0
VERTEX
  8
0
 10
4.56087
 20
2.95085
 30
0.0
 40
0
 41
0
  0
VERTEX
  8
0
 10
4.56803
 20
2.94786
 30
0.0
 40
0
 41
0
  0
VERTEX
  8
0
 10
4.60531
 20
2.94646
 30
0.0
 40
0
 41
0
  0
VERTEX
  8
0
 10
4.63917
 20
2.96203
 30
0.0
 40
0
 41
0
  0
VERTEX
  8
0
 10
4.64469
 20
2.9675
 30
0.0
 40
0
 41
0
  0
VERTEX
  8
0
 10
4.64953
 20
2.97293
 30
0.0
 40
0
 41
0
  0
VERTEX
  8
0
 10
4.65994
 20
2.99289
 30
0.0
 40
0
 41
0
  0
VERTEX
  8
0
 10
4.6645
 20
3.02111
 30
0.0
 40
0
 41
0
  0
VERTEX
  8
0
 10
4.65847
 20
3.0491
 30
0.0
 40
0
 41
0
  0
VERTEX
  8
0
 10
4.64703
 20
3.06847
 30
0.0
 40
0
 41
0
  0
VERTEX
  8
0
 10
4.64193
 20
3.07357
 30
0.0
 40
0
 41
0
  0
VERTEX
  8
0
 10
4.63678
 20
3.07872
 30
0.0
 40
0
 41
0
  0
VERTEX
  8
0
 10
4.61729
 20
3.09006
 30
0.0
 40
0
 41
0
  0
VERTEX
  8
0
 10
4.58931
 20
3.09597
 30
0.0
 40
0
 41
0
  0
VERTEX
  8
0
 10
4.56104
 20
3.09125
 30
0.0
 40
0
 41
0
  0
VERTEX
  8
0
 10
4.54113
 20
3.08074
 30
0.0
 40
0
 41
0
  0
VERTEX
  8
0
 10
4.53581
 20
3.07585
 30
0.0
 40
0
 41
0
  0
VERTEX
  8
0
 10
4.53222
 20
3.07226
 30
0.0
 40
0
 41
0
  0
VERTEX
  8
0
 10
4.51926
 20
3.05111
 30
0.0
 40
0
 41
0
  0
VERTEX
  8
0
 10
4.51346
 20
3.02919
 30
0.0
 40
0
 41
0
  0
VERTEX
  8
0
 10
4.51346
 20
3.02186
 30
0.0
 40
0
 41
0
  0
SEQEND
 8
0
  0
POLYLINE
  8
0
 62
     0
 66
     1
 10
0
 20
0
 30
0.0
 70
     1
 40
0
 41
0
  0
VERTEX
  8
0
 10
2.85856
 20
4.18272
 30
0.0
 40
0
 41
0
  0
VERTEX
  8
0
 10
2.85499
 20
4.18647
 30
0.0
 40
0
 41
0
  0
VERTEX
  8
0
 10
2.83356
 20
4.20003
 30
0.0
 40
0
 41
0
  0
VERTEX
  8
0
 10
2.80903
 20
4.20622
 30
0.0
 40
0
 41
0
  0
VERTEX
  8
0
 10
2.80387
 20
4.20622
 30
0.0
 40
0
 41
0
  0
VERTEX
  8
0
 10
2.79872
 20
4.20628
 30
0.0
 40
0
 41
0
  0
VERTEX
  8
0
 10
2.77403
 20
4.20053
 30
0.0
 40
0
 41
0
  0
VERTEX
  8
0
 10
2.75244
 20
4.18739
 30
0.0
 40
0
 41
0
  0
VERTEX
  8
0
 10
2.74881
 20
4.18371
 30
0.0
 40
0
 41
0
  0
VERTEX
  8
0
 10
2.74511
 20
4.18007
 30
0.0
 40
0
 41
0
  0
VERTEX
  8
0
 10
2.73199
 20
4.15842
 30
0.0
 40
0
 41
0
  0
VERTEX
  8
0
 10
2.72624
 20
4.13379
 30
0.0
 40
0
 41
0
  0
VERTEX
  8
0
 10
2.72629
 20
4.12858
 30
0.0
 40
0
 41
0
  0
VERTEX
  8
0
 10
2.72635
 20
4.12343
 30
0.0
 40
0
 41
0
  0
VERTEX
  8
0
 10
2.73258
 20
4.0989
 30
0.0
 40
0
 41
0
  0
VERTEX
  8
0
 10
2.74615
 20
4.07753
 30
0.0
 40
0
 41
0
  0
VERTEX
  8
0
 10
2.74989
 20
4.07394
 30
0.0
 40
0
 41
0
  0
VERTEX
  8
0
 10
2.75515
 20
4.06868
 30
0.0
 40
0
 41
0
  0
VERTEX
  8
0
 10
2.77533
 20
4.05713
 30
0.0
 40
0
 41
0
  0
VERTEX
  8
0
 10
2.80425
 20
4.05149
 30
0.0
 40
0
 41
0
  0
VERTEX
  8
0
 10
2.83317
 20
4.05713
 30
0.0
 40
0
 41
0
  0
VERTEX
  8
0
 10
2.85335
 20
4.06868
 30
0.0
 40
0
 41
0
  0
VERTEX
  8
0
 10
2.85867
 20
4.07394
 30
0.0
 40
0
 41
0
  0
VERTEX
  8
0
 10
2.86393
 20
4.07926
 30
0.0
 40
0
 41
0
  0
VERTEX
  8
0
 10
2.87543
 20
4.09944
 30
0.0
 40
0
 41
0
  0
VERTEX
  8
0
 10
2.88103
 20
4.12836
 30
0.0
 40
0
 41
0
  0
VERTEX
  8
0
 10
2.87537
 20
4.15733
 30
0.0
 40
0
 41
0
  0
VERTEX
  8
0
 10
2.86382
 20
4.17746
 30
0.0
 40
0
 41
0
  0
VERTEX
  8
0
 10
2.85856
 20
4.18272
 30
0.0
 40
0
 41
0
  0
SEQEND
 8
0
  0
POLYLINE
  8
0
 62
     0
 66
     1
 10
0
 20
0
 30
0.0
 70
     1
 40
0
 41
0
  0
VERTEX
  8
0
 10
5.91835
 20
2.37696
 30
0.0
 40
0
 41
0
  0
VERTEX
  8
0
 10
5.90821
 20
2.36681
 30
0.0
 40
0
 41
0
  0
VERTEX
  8
0
 10
5.8725
 20
2.34142
 30
0.0
 40
0
 41
0
  0
VERTEX
  8
0
 10
5.8201
 20
2.31879
 30
0.0
 40
0
 41
0
  0
VERTEX
  8
0
 10
5.76367
 20
2.30985
 30
0.0
 40
0
 41
0
  0
VERTEX
  8
0
 10
5.71994
 20
2.31228
 30
0.0
 40
0
 41
0
  0
VERTEX
  8
0
 10
5.70594
 20
2.31543
 30
0.0
 40
0
 41
0
  0
VERTEX
  8
0
 10
5.69189
 20
2.31862
 30
0.0
 40
0
 41
0
  0
VERTEX
  8
0
 10
5.65147
 20
2.33539
 30
0.0
 40
0
 41
0
  0
VERTEX
  8
0
 10
5.60449
 20
2.36783
 30
0.0
 40
0
 41
0
  0
VERTEX
  8
0
 10
5.567
 20
2.41097
 30
0.0
 40
0
 41
0
  0
VERTEX
  8
0
 10
5.54585
 20
2.44928
 30
0.0
 40
0
 41
0
  0
VERTEX
  8
0
 10
5.54113
 20
2.46283
 30
0.0
 40
0
 41
0
  0
VERTEX
  8
0
 10
0
 20
2.46283
 30
0.0
 40
0
 41
0
  0
VERTEX
  8
0
 10
0.131565
 20
2.59353
 30
0.0
 40
0
 41
0
  0
VERTEX
  8
0
 10
1.5274
 20
3.98936
 30
0.0
 40
0
 41
0
  0
VERTEX
  8
0
 10
1.87554
 20
3.98936
 30
0.0
 40
0
 41
0
  0
VERTEX
  8
0
 10
2.80354
 20
4.91737
 30
0.0
 40
0
 41
0
  0
VERTEX
  8
0
 10
3.22542
 20
4.4955
 30
0.0
 40
0
 41
0
  0
VERTEX
  8
0
 10
3.56717
 20
4.4955
 30
0.0
 40
0
 41
0
  0
VERTEX
  8
0
 10
3.977
 20
4.08626
 30
0.0
 40
0
 41
0
  0
VERTEX
  8
0
 10
4.14551
 20
4.25478
 30
0.0
 40
0
 41
0
  0
VERTEX
  8
0
 10
5.17513
 20
3.22771
 30
0.0
 40
0
 41
0
  0
VERTEX
  8
0
 10
5.19314
 20
3.23639
 30
0.0
 40
0
 41
0
  0
VERTEX
  8
0
 10
5.25353
 20
3.2494
 30
0.0
 40
0
 41
0
  0
VERTEX
  8
0
 10
5.33231
 20
3.243
 30
0.0
 40
0
 41
0
  0
VERTEX
  8
0
 10
5.40424
 20
3.21029
 30
0.0
 40
0
 41
0
  0
VERTEX
  8
0
 10
5.45068
 20
3.1696
 30
0.0
 40
0
 41
0
  0
VERTEX
  8
0
 10
5.46224
 20
3.15321
 30
0.0
 40
0
 41
0
  0
VERTEX
  8
0
 10
5.47379
 20
3.13687
 30
0.0
 40
0
 41
0
  0
VERTEX
  8
0
 10
5.49675
 20
3.07958
 30
0.0
 40
0
 41
0
  0
VERTEX
  8
0
 10
5.50358
 20
3.00082
 30
0.0
 40
0
 41
0
  0
VERTEX
  8
0
 10
5.48346
 20
2.92437
 30
0.0
 40
0
 41
0
  0
VERTEX
  8
0
 10
5.45107
 20
2.87181
 30
0.0
 40
0
 41
0
  0
VERTEX
  8
0
 10
5.4369
 20
2.85764
 30
0.0
 40
0
 41
0
  0
VERTEX
  8
0
 10
5.42275
 20
2.84353
 30
0.0
 40
0
 41
0
  0
VERTEX
  8
0
 10
5.37007
 20
2.81131
 30
0.0
 40
0
 41
0
  0
VERTEX
  8
0
 10
5.29357
 20
2.79135
 30
0.0
 40
0
 41
0
  0
VERTEX
  8
0
 10
5.21479
 20
2.79844
 30
0.0
 40
0
 41
0
  0
VERTEX
  8
0
 10
5.15756
 20
2.82161
 30
0.0
 40
0
 41
0
  0
VERTEX
  8
0
 10
5.14128
 20
2.83317
 30
0.0
 40
0
 41
0
  0
VERTEX
  8
0
 10
5.12494
 20
2.84478
 30
0.0
 40
0
 41
0
  0
VERTEX
  8
0
 10
5.08431
 20
2.89133
 30
0.0
 40
0
 41
0
  0
VERTEX
  8
0
 10
5.05186
 20
2.96338
 30
0.0
 40
0
 41
0
  0
VERTEX
  8
0
 10
5.04568
 20
3.04221
 30
0.0
 40
0
 41
0
  0
VERTEX
  8
0
 10
5.05886
 20
3.10249
 30
0.0
 40
0
 41
0
  0
VERTEX
  8
0
 10
5.0676
 20
3.1205
 30
0.0
 40
0
 41
0
  0
VERTEX
  8
0
 10
4.14561
 20
4.04021
 30
0.0
 40
0
 41
0
  0
VERTEX
  8
0
 10
3.977
 20
3.87147
 30
0.0
 40
0
 41
0
  0
VERTEX
  8
0
 10
3.50478
 20
4.34375
 30
0.0
 40
0
 41
0
  0
VERTEX
  8
0
 10
3.16303
 20
4.34375
 30
0.0
 40
0
 41
0
  0
VERTEX
  8
0
 10
2.80404
 20
4.70313
 30
0.0
 40
0
 41
0
  0
VERTEX
  8
0
 10
1.93946
 20
3.838
 30
0.0
 40
0
 41
0
  0
VERTEX
  8
0
 10
1.59082
 20
3.838
 30
0.0
 40
0
 41
0
  0
VERTEX
  8
0
 10
0.367622
 20
2.61469
 30
0.0
 40
0
 41
0
  0
VERTEX
  8
0
 10
5.54113
 20
2.61469
 30
0.0
 40
0
 41
0
  0
VERTEX
  8
0
 10
5.54389
 20
2.62278
 30
0.0
 40
0
 41
0
  0
VERTEX
  8
0
 10
5.56304
 20
2.66064
 30
0.0
 40
0
 41
0
  0
VERTEX
  8
0
 10
5.58871
 20
2.6945
 30
0.0
 40
0
 41
0
  0
VERTEX
  8
0
 10
5.59478
 20
2.70053
 30
0.0
 40
0
 41
0
  0
VERTEX
  8
0
 10
5.61083
 20
2.71485
 30
0.0
 40
0
 41
0
  0
VERTEX
  8
0
 10
5.67008
 20
2.74522
 30
0.0
 40
0
 41
0
  0
VERTEX
  8
0
 10
5.75379
 20
2.7584
 30
0.0
 40
0
 41
0
  0
VERTEX
  8
0
 10
5.83658
 20
2.74035
 30
0.0
 40
0
 41
0
  0
VERTEX
  8
0
 10
5.89399
 20
2.70654
 30
0.0
 40
0
 41
0
  0
VERTEX
  8
0
 10
5.90918
 20
2.69135
 30
0.0
 40
0
 41
0
  0
VERTEX
  8
0
 10
5.92432
 20
2.67622
 30
0.0
 40
0
 41
0
  0
VERTEX
  8
0
 10
5.95811
 20
2.61882
 30
0.0
 40
0
 41
0
  0
VERTEX
  8
0
 10
5.97618
 20
2.53603
 30
0.0
 40
0
 41
0
  0
VERTEX
  8
0
 10
5.963
 20
2.45231
 30
0.0
 40
0
 41
0
  0
VERTEX
  8
0
 10
5.93261
 20
2.39301
 30
0.0
 40
0
 41
0
  0
VERTEX
  8
0
 10
5.91835
 20
2.37696
 30
0.0
 40
0
 41
0
  0
SEQEND
 8
0
  0
POLYLINE
  8
0
 62
     0
 66
     1
 10
0
 20
0
 30
0.0
 70
     1
 40
0
 41
0
  0
VERTEX
  8
0
 10
5.19656
 20
3.02186
 30
0.0
 40
0
 41
0
  0
VERTEX
  8
0
 10
5.19656
 20
3.01124
 30
0.0
 40
0
 41
0
  0
VERTEX
  8
0
 10
5.20947
 20
2.97922
 30
0.0
 40
0
 41
0
  0
VERTEX
  8
0
 10
5.23671
 20
2.95389
 30
0.0
 40
0
 41
0
  0
VERTEX
  8
0
 10
5.24393
 20
2.9509
 30
0.0
 40
0
 41
0
  0
VERTEX
  8
0
 10
5.25108
 20
2.94792
 30
0.0
 40
0
 41
0
  0
VERTEX
  8
0
 10
5.28825
 20
2.94646
 30
0.0
 40
0
 41
0
  0
VERTEX
  8
0
 10
5.3221
 20
2.96192
 30
0.0
 40
0
 41
0
  0
VERTEX
  8
0
 10
5.32764
 20
2.96739
 30
0.0
 40
0
 41
0
  0
VERTEX
  8
0
 10
5.33311
 20
2.97287
 30
0.0
 40
0
 41
0
  0
VERTEX
  8
0
 10
5.34874
 20
3.00663
 30
0.0
 40
0
 41
0
  0
VERTEX
  8
0
 10
5.3475
 20
3.04383
 30
0.0
 40
0
 41
0
  0
VERTEX
  8
0
 10
5.34457
 20
3.051
 30
0.0
 40
0
 41
0
  0
VERTEX
  8
0
 10
5.34158
 20
3.05821
 30
0.0
 40
0
 41
0
  0
VERTEX
  8
0
 10
5.3164
 20
3.08561
 30
0.0
 40
0
 41
0
  0
VERTEX
  8
0
 10
5.28163
 20
3.09874
 30
0.0
 40
0
 41
0
  0
VERTEX
  8
0
 10
5.27387
 20
3.09874
 30
0.0
 40
0
 41
0
  0
VERTEX
  8
0
 10
5.26872
 20
3.09879
 30
0.0
 40
0
 41
0
  0
VERTEX
  8
0
 10
5.24431
 20
3.09299
 30
0.0
 40
0
 41
0
  0
VERTEX
  8
0
 10
5.22287
 20
3.07997
 30
0.0
 40
0
 41
0
  0
VERTEX
  8
0
 10
5.21924
 20
3.07633
 30
0.0
 40
0
 41
0
  0
VERTEX
  8
0
 10
5.2156
 20
3.07275
 30
0.0
 40
0
 41
0
  0
VERTEX
  8
0
 10
5.20247
 20
3.05138
 30
0.0
 40
0
 41
0
  0
VERTEX
  8
0
 10
5.19656
 20
3.02701
 30
0.0
 40
0
 41
0
  0
VERTEX
  8
0
 10
5.19656
 20
3.02186
 30
0.0
 40
0
 41
0
  0
SEQEND
 8
0
  0
POLYLINE
  8
0
 62
     0
 66
     1
 10
0
 20
0
 30
0.0
 70
     1
 40
0
 41
0
  0
VERTEX
  8
0
 10
5.81114
 20
2.5931
 30
0.0
 40
0
 41
0
  0
VERTEX
  8
0
 10
5.80561
 20
2.59864
 30
0.0
 40
0
 41
0
  0
VERTEX
  8
0
 10
5.77175
 20
2.61421
 30
0.0
 40
0
 41
0
  0
VERTEX
  8
0
 10
5.73454
 20
2.61274
 30
0.0
 40
0
 41
0
  0
VERTEX
  8
0
 10
5.72738
 20
2.60975
 30
0.0
 40
0
 41
0
  0
VERTEX
  8
0
 10
5.72017
 20
2.60682
 30
0.0
 40
0
 41
0
  0
VERTEX
  8
0
 10
5.69287
 20
2.58149
 30
0.0
 40
0
 41
0
  0
VERTEX
  8
0
 10
5.6799
 20
2.54943
 30
0.0
 40
0
 41
0
  0
VERTEX
  8
0
 10
5.6799
 20
2.53874
 30
0.0
 40
0
 41
0
  0
VERTEX
  8
0
 10
5.6799
 20
2.5281
 30
0.0
 40
0
 41
0
  0
VERTEX
  8
0
 10
5.69287
 20
2.4961
 30
0.0
 40
0
 41
0
  0
VERTEX
  8
0
 10
5.72017
 20
2.47071
 30
0.0
 40
0
 41
0
  0
VERTEX
  8
0
 10
5.72738
 20
2.46772
 30
0.0
 40
0
 41
0
  0
VERTEX
  8
0
 10
5.73454
 20
2.46479
 30
0.0
 40
0
 41
0
  0
VERTEX
  8
0
 10
5.77175
 20
2.46338
 30
0.0
 40
0
 41
0
  0
VERTEX
  8
0
 10
5.80561
 20
2.47889
 30
0.0
 40
0
 41
0
  0
VERTEX
  8
0
 10
5.81114
 20
2.48438
 30
0.0
 40
0
 41
0
  0
VERTEX
  8
0
 10
5.81472
 20
2.48801
 30
0.0
 40
0
 41
0
  0
VERTEX
  8
0
 10
5.82781
 20
2.50939
 30
0.0
 40
0
 41
0
  0
VERTEX
  8
0
 10
5.83365
 20
2.53369
 30
0.0
 40
0
 41
0
  0
VERTEX
  8
0
 10
5.83365
 20
2.53879
 30
0.0
 40
0
 41
0
  0
VERTEX
  8
0
 10
5.83361
 20
2.54389
 30
0.0
 40
0
 41
0
  0
VERTEX
  8
0
 10
5.82769
 20
2.56825
 30
0.0
 40
0
 41
0
  0
VERTEX
  8
0
 10
5.81456
 20
2.58951
 30
0.0
 40
0
 41
0
  0
VERTEX
  8
0
 10
5.81093
 20
2.5931
 30
0.0
 40
0
 41
0
  0
VERTEX
  8
0
 10
5.81114
 20
2.5931
 30
0.0
 40
0
 41
0
  0
SEQEND
 8
0
  0
POLYLINE
  8
0
 62
     0
 66
     1
 10
0
 20
0
 30
0.0
 70
     1
 40
0
 41
0
  0
VERTEX
  8
0
 10
3.91732
 20
4.93793
 30
0.0
 40
0
 41
0
  0
VERTEX
  8
0
 10
3.91732
 20
4.95475
 30
0.0
 40
0
 41
0
  0
VERTEX
  8
0
 10
3.92736
 20
5.00515
 30
0.0
 40
0
 41
0
  0
VERTEX
  8
0
 10
3.95589
 20
5.06526
 30
0.0
 40
0
 41
0
  0
VERTEX
  8
0
 10
4.00049
 20
5.11464
 30
0.0
 40
0
 41
0
  0
VERTEX
  8
0
 10
4.04324
 20
5.14324
 30
0.0
 40
0
 41
0
  0
VERTEX
  8
0
 10
4.05875
 20
5.14963
 30
0.0
 40
0
 41
0
  0
VERTEX
  8
0
 10
4.07428
 20
5.15608
 30
0.0
 40
0
 41
0
  0
VERTEX
  8
0
 10
4.12468
 20
5.16607
 30
0.0
 40
0
 41
0
  0
VERTEX
  8
0
 10
4.19114
 20
5.16271
 30
0.0
 40
0
 41
0
  0
VERTEX
  8
0
 10
4.25385
 20
5.1404
 30
0.0
 40
0
 41
0
  0
VERTEX
  8
0
 10
4.2966
 20
5.11182
 30
0.0
 40
0
 41
0
  0
VERTEX
  8
0
 10
4.30849
 20
5.09993
 30
0.0
 40
0
 41
0
  0
VERTEX
  8
0
 10
4.32032
 20
5.08811
 30
0.0
 40
0
 41
0
  0
VERTEX
  8
0
 10
4.34885
 20
5.04536
 30
0.0
 40
0
 41
0
  0
VERTEX
  8
0
 10
4.37121
 20
4.98264
 30
0.0
 40
0
 41
0
  0
VERTEX
  8
0
 10
4.37457
 20
4.91618
 30
0.0
 40
0
 41
0
  0
VERTEX
  8
0
 10
4.36458
 20
4.86572
 30
0.0
 40
0
 41
0
  0
VERTEX
  8
0
 10
4.35818
 20
4.85021
 30
0.0
 40
0
 41
0
  0
VERTEX
  8
0
 10
4.35172
 20
4.83469
 30
0.0
 40
0
 41
0
  0
VERTEX
  8
0
 10
4.32314
 20
4.79199
 30
0.0
 40
0
 41
0
  0
VERTEX
  8
0
 10
4.27376
 20
4.7474
 30
0.0
 40
0
 41
0
  0
VERTEX
  8
0
 10
4.21365
 20
4.71886
 30
0.0
 40
0
 41
0
  0
VERTEX
  8
0
 10
4.16325
 20
4.70876
 30
0.0
 40
0
 41
0
  0
VERTEX
  8
0
 10
4.14649
 20
4.70876
 30
0.0
 40
0
 41
0
  0
VERTEX
  8
0
 10
4.12414
 20
4.70876
 30
0.0
 40
0
 41
0
  0
VERTEX
  8
0
 10
4.05724
 20
4.72678
 30
0.0
 40
0
 41
0
  0
VERTEX
  8
0
 10
3.98443
 20
4.77593
 30
0.0
 40
0
 41
0
  0
VERTEX
  8
0
 10
3.93528
 20
4.84874
 30
0.0
 40
0
 41
0
  0
VERTEX
  8
0
 10
3.91732
 20
4.91564
 30
0.0
 40
0
 41
0
  0
VERTEX
  8
0
 10
3.91732
 20
4.93793
 30
0.0
 40
0
 41
0
  0
SEQEND
 8
0
  0
POLYLINE
  8
0
 62
     0
 66
     1
 10
0
 20
0
 30
0.0
 70
     1
 40
0
 41
0
  0
VERTEX
  8
0
 10
4.06917
 20
4.93793
 30
0.0
 40
0
 41
0
  0
VERTEX
  8
0
 10
4.06917
 20
4.92731
 30
0.0
 40
0
 41
0
  0
VERTEX
  8
0
 10
4.08208
 20
4.89524
 30
0.0
 40
0
 41
0
  0
VERTEX
  8
0
 10
4.10943
 20
4.8699
 30
0.0
 40
0
 41
0
  0
VERTEX
  8
0
 10
4.11664
 20
4.86692
 30
0.0
 40
0
 41
0
  0
VERTEX
  8
0
 10
4.12381
 20
4.86393
 30
0.0
 40
0
 41
0
  0
VERTEX
  8
0
 10
4.16103
 20
4.86253
 30
0.0
 40
0
 41
0
  0
VERTEX
  8
0
 10
4.19488
 20
4.8781
 30
0.0
 40
0
 41
0
  0
VERTEX
  8
0
 10
4.20042
 20
4.88357
 30
0.0
 40
0
 41
0
  0
VERTEX
  8
0
 10
4.20589
 20
4.88911
 30
0.0
 40
0
 41
0
  0
VERTEX
  8
0
 10
4.2214
 20
4.92296
 30
0.0
 40
0
 41
0
  0
VERTEX
  8
0
 10
4.22
 20
4.96018
 30
0.0
 40
0
 41
0
  0
VERTEX
  8
0
 10
4.21707
 20
4.96733
 30
0.0
 40
0
 41
0
  0
VERTEX
  8
0
 10
4.21408
 20
4.97456
 30
0.0
 40
0
 41
0
  0
VERTEX
  8
0
 10
4.18875
 20
5.00185
 30
0.0
 40
0
 41
0
  0
VERTEX
  8
0
 10
4.15668
 20
5.01481
 30
0.0
 40
0
 41
0
  0
VERTEX
  8
0
 10
4.14606
 20
5.01481
 30
0.0
 40
0
 41
0
  0
VERTEX
  8
0
 10
4.13857
 20
5.01481
 30
0.0
 40
0
 41
0
  0
VERTEX
  8
0
 10
4.1161
 20
5.00879
 30
0.0
 40
0
 41
0
  0
VERTEX
  8
0
 10
4.09169
 20
4.99229
 30
0.0
 40
0
 41
0
  0
VERTEX
  8
0
 10
4.07519
 20
4.96789
 30
0.0
 40
0
 41
0
  0
VERTEX
  8
0
 10
4.06917
 20
4.94542
 30
0.0
 40
0
 41
0
  0
VERTEX
  8
0
 10
4.06917
 20
4.93793
 30
0.0
 40
0
 41
0
  0
SEQEND
 8
0
  0
ENDSEC
  0
EOF
